<?xml version="1.0" encoding="UTF-8" standalone="no"?>
<svg
   xmlns:dc="http://purl.org/dc/elements/1.1/"
   xmlns:cc="http://web.resource.org/cc/"
   xmlns:rdf="http://www.w3.org/1999/02/22-rdf-syntax-ns#"
   xmlns:svg="http://www.w3.org/2000/svg"
   xmlns="http://www.w3.org/2000/svg"
   xmlns:sodipodi="http://inkscape.sourceforge.net/DTD/sodipodi-0.dtd"
   xmlns:inkscape="http://www.inkscape.org/namespaces/inkscape"
   width="793.937"
   height="395.963"
   id="svg2"
   sodipodi:version="0.32"
   inkscape:version="0.42"
   sodipodi:docname="argentina.svg"
   sodipodi:docbase="/home/demailly">
  <metadata
     id="metadata453">
    <rdf:RDF>
      <cc:Work
         rdf:about="">
        <dc:format>image/svg+xml</dc:format>
        <dc:type
           rdf:resource="http://purl.org/dc/dcmitype/StillImage" />
      </cc:Work>
    </rdf:RDF>
  </metadata>
  <sodipodi:namedview
     inkscape:cy="186.64284"
     inkscape:cx="394.83460"
     inkscape:zoom="4.9119411"
     inkscape:window-height="727"
     inkscape:window-width="1336"
     inkscape:pageshadow="2"
     inkscape:pageopacity="0.0"
     borderopacity="1.0"
     bordercolor="#666666"
     pagecolor="#ffffff"
     id="base"
     inkscape:window-x="336"
     inkscape:window-y="364"
     inkscape:current-layer="svg2" />
  <defs
     id="defs4">
    <marker
       id="ArrowEnd"
       viewBox="0 0 10 10"
       refX="0"
       refY="5"
       markerUnits="strokeWidth"
       markerWidth="4"
       markerHeight="3"
       orient="auto">
      <path
         d="M 0 0 L 10 5 L 0 10 z"
         id="path7" />
    </marker>
    <marker
       id="ArrowStart"
       viewBox="0 0 10 10"
       refX="10"
       refY="5"
       markerUnits="strokeWidth"
       markerWidth="4"
       markerHeight="3"
       orient="auto">
      <path
         d="M 10 0 L 0 5 L 10 10 z"
         id="path10" />
    </marker>
  </defs>
  <g
     id="g3148">
    <path
       style="fill:#000000;stroke:#9e8500;stroke-width:0.40000001;stroke-miterlimit:4.0000000;stroke-dasharray:none;stroke-opacity:1.0000000"
       d="M 0.0000000,395.96300 L 0.0000000,395.96300 L 0.0000000,395.96300 z "
       id="path14" />
    <path
       style="fill:#00c4ff;stroke:none;stroke-width:0.40000001;stroke-miterlimit:4.0000000;stroke-dasharray:none;stroke-opacity:1.0000000"
       d="M 1.7963900,132.17800 L 793.93700,132.17800 L 793.93700,0.0000000 L 1.7963900,0.0000000 L 1.7963900,132.17800 z "
       id="path16" />
    <path
       style="fill:#ffffff;stroke:none;stroke-width:0.40000001;stroke-miterlimit:4.0000000;stroke-dasharray:none;stroke-opacity:1.0000000"
       d="M 1.7963900,263.81700 L 793.93700,263.81700 L 793.93700,131.63900 L 1.7963900,131.63900 L 1.7963900,263.81700 z "
       id="path18" />
    <path
       style="fill:#00c4ff;stroke:none;stroke-width:0.40000001;stroke-miterlimit:4.0000000;stroke-dasharray:none;stroke-opacity:1.0000000"
       d="M 1.7961400,395.45300 L 793.93700,395.45300 L 793.93700,263.27700 L 1.7961400,263.27700 L 1.7961400,395.45300 z "
       id="path20" />
    <path
       style="fill:#ffd500;stroke:#9e8500;stroke-width:0.40000001;stroke-miterlimit:4.0000000;stroke-dasharray:none;stroke-opacity:1.0000000"
       d="M 419.17900,194.47700 C 419.17900,206.16600 409.49800,215.65200 397.57000,215.65200 C 385.64200,215.65200 375.96100,206.16600 375.96100,194.47700 C 375.96100,182.78500 385.64200,173.29900 397.57000,173.29900 C 409.49800,173.29900 419.17900,182.78500 419.17900,194.47700"
       id="path22" />
    <path
       style="fill:none;stroke:#9e8500;stroke-width:0.40000001;stroke-miterlimit:4.0000000;stroke-dasharray:none;stroke-opacity:1.0000000"
       d="M 419.17700,194.47500 C 419.17700,206.16400 409.49700,215.65200 397.56800,215.65200 C 385.64000,215.65200 375.95900,206.16400 375.95900,194.47500 C 375.95900,182.78500 385.64000,173.29900 397.56800,173.29900 C 409.49700,173.29900 419.17700,182.78500 419.17700,194.47500 z "
       id="path24" />
    <path
       style="fill:none;stroke:#9e8500;stroke-width:0.40000001;stroke-miterlimit:4.0000000;stroke-dasharray:none;stroke-opacity:1.0000000"
       d="M 403.66000,179.32800 C 400.92800,178.69000 398.12900,179.58600 397.24700,179.52400 C 396.03500,179.52400 392.97200,178.49800 390.83400,179.52400"
       id="path26" />
    <path
       style="fill:none;stroke:#9e8500;stroke-width:0.40000001;stroke-miterlimit:4.0000000;stroke-dasharray:none;stroke-opacity:1.0000000"
       d="M 387.46400,182.50800 C 390.17500,180.67200 393.20200,183.17000 394.00800,182.69900 C 396.20700,181.30100 398.24900,181.56100 400.35500,182.82800 C 401.71200,183.60400 404.07800,180.56500 406.83300,183.02000"
       id="path28" />
    <path
       style="fill:#eec20f;stroke:#9e8500;stroke-width:0.40000001;stroke-miterlimit:4.0000000;stroke-dasharray:none;stroke-opacity:1.0000000"
       d="M 384.42100,185.64700 C 385.85300,184.51600 390.52500,184.47300 395.32900,187.11900 C 396.05600,186.94900 396.51900,186.45900 395.92400,185.77500 C 392.31000,184.55900 388.10100,183.02000 384.22300,184.17400 C 383.16500,184.89900 383.43000,185.36900 384.42100,185.64700"
       id="path30" />
    <path
       style="fill:none;stroke:#9e8500;stroke-width:0.40000001;stroke-miterlimit:4.0000000;stroke-dasharray:none;stroke-opacity:1.0000000"
       d="M 384.42200,185.64700 C 385.85400,184.51600 390.52600,184.47300 395.33000,187.11900 C 396.05700,186.94700 396.52000,186.45900 395.92500,185.77500 C 392.31100,184.55700 388.10200,183.02000 384.22400,184.17400 C 383.16700,184.90100 383.43100,185.36900 384.42200,185.64700 z "
       id="path32" />
    <path
       style="fill:#eec20f;stroke:#9e8500;stroke-width:0.40000001;stroke-miterlimit:4.0000000;stroke-dasharray:none;stroke-opacity:1.0000000"
       d="M 409.99500,185.64700 C 408.56300,184.51600 403.89100,184.47300 399.08700,187.11900 C 398.36000,186.94900 397.89700,186.45900 398.49200,185.77500 C 402.10600,184.55900 406.31500,183.02000 410.19300,184.17400 C 411.25100,184.89900 410.98600,185.36900 409.99500,185.64700"
       id="path34" />
    <path
       style="fill:none;stroke:#9e8500;stroke-width:0.40000001;stroke-miterlimit:4.0000000;stroke-dasharray:none;stroke-opacity:1.0000000"
       d="M 409.99700,185.64700 C 408.56500,184.51600 403.89400,184.47300 399.09000,187.11900 C 398.36300,186.94700 397.89900,186.45900 398.49500,185.77500 C 402.10800,184.55700 406.31800,183.02000 410.19600,184.17400 C 411.25300,184.90100 410.98900,185.36900 409.99800,185.64700 L 409.99700,185.64700 z "
       id="path36" />
    <path
       style="fill:#efc10e;stroke:#9e8500;stroke-width:0.40000001;stroke-miterlimit:4.0000000;stroke-dasharray:none;stroke-opacity:1.0000000"
       d="M 382.50400,189.42600 C 387.24200,186.47900 393.50000,188.01800 396.12300,189.61700 C 392.28800,188.91200 392.22200,188.59400 389.44600,188.52900 C 387.48500,188.59400 384.59800,188.40100 382.50500,189.42600"
       id="path38" />
    <path
       style="fill:none;stroke:#9e8500;stroke-width:0.40000001;stroke-linejoin:round;stroke-miterlimit:4.0000000;stroke-dasharray:none;stroke-opacity:1.0000000"
       d="M 382.50600,189.42600 C 387.24400,186.48100 393.50200,188.01800 396.12500,189.61900 C 392.29000,188.91400 392.22400,188.59400 389.44700,188.52900 C 387.48600,188.59400 384.59900,188.40100 382.50600,189.42600 z "
       id="path40" />
    <path
       style="fill:none;stroke:#9e8500;stroke-width:0.40000001;stroke-miterlimit:4.0000000;stroke-dasharray:none;stroke-opacity:1.0000000"
       d="M 393.34800,189.10600 C 391.03400,193.78300 387.00100,193.84800 384.15800,188.85000"
       id="path42" />
    <path
       style="fill:#000000;stroke:#9e8500;stroke-width:0.40000001;stroke-miterlimit:4.0000000;stroke-dasharray:none;stroke-opacity:1.0000000"
       d="M 392.11200,190.53100 C 391.42600,191.28100 389.74700,191.72900 388.36200,191.52700 C 386.97800,191.32800 386.41100,190.55700 387.09700,189.80700 C 387.78300,189.05700 389.46200,188.61100 390.84700,188.81100 C 392.23100,189.01200 392.79800,189.78100 392.11200,190.53100"
       id="path44" />
    <path
       style="fill:#ffd600;stroke:#9e8500;stroke-width:0.40000001;stroke-miterlimit:4.0000000;stroke-dasharray:none;stroke-opacity:1.0000000"
       d="M 388.71400,189.58000 C 388.78500,189.75600 388.56600,189.98800 388.22600,190.10000 C 387.88600,190.20900 387.55300,190.15800 387.48200,189.98400 C 387.41100,189.80900 387.63000,189.57600 387.97000,189.46700 C 388.31000,189.35600 388.64300,189.40600 388.71400,189.58000"
       id="path46" />
    <path
       style="fill:none;stroke:#9e8500;stroke-width:0.40000001;stroke-miterlimit:4.0000000;stroke-dasharray:none;stroke-opacity:1.0000000"
       d="M 394.05700,197.15800 C 391.38700,201.50600 395.02400,198.44000 395.61500,199.69900 C 396.65400,200.86500 397.69300,200.59000 398.30700,199.69900 C 398.92200,198.69200 402.79500,201.59800 400.15000,197.29700"
       id="path48" />
    <path
       style="fill:none;stroke:#9e8500;stroke-width:0.40000001;stroke-linecap:round;stroke-linejoin:round;stroke-miterlimit:4.0000000;stroke-dasharray:none;stroke-opacity:1.0000000"
       d="M 389.30900,204.36700 C 391.59900,204.11500 395.45000,202.42200 396.82000,203.81800 C 398.00000,202.55900 402.15800,204.18400 404.82600,204.36700 C 402.88900,205.51000 398.97000,204.73300 397.10400,205.94500 C 395.28500,204.86900 391.27000,205.85400 389.30900,204.36700 z "
       id="path50" />
    <path
       style="fill:none;stroke:#9e8500;stroke-width:0.40000001;stroke-linejoin:round;stroke-miterlimit:4.0000000;stroke-dasharray:none;stroke-opacity:1.0000000"
       d="M 392.99400,206.35800 C 396.46600,207.73100 397.24600,207.52500 401.00100,206.49400 C 400.22200,208.48600 398.23200,208.90600 397.10400,208.83000 C 395.93500,208.75600 394.34100,208.89900 392.99500,206.35800 L 392.99400,206.35800 z "
       id="path52" />
    <path
       style="fill:#ffd600;stroke:#9e8500;stroke-width:0.40000001;stroke-miterlimit:4.0000000;stroke-dasharray:none;stroke-opacity:1.0000000"
       d="M 390.26800,217.63700 C 387.76400,223.98800 390.50700,227.00800 389.28100,230.42800 C 388.10100,233.72100 382.96900,241.88300 386.87500,245.43000 C 389.98000,245.57000 386.33900,240.93000 392.54900,232.34000 C 395.43000,228.31700 391.79600,225.77000 394.83100,217.87500 C 395.11400,217.19900 390.66200,216.63700 390.26700,217.63700"
       id="path54" />
    <path
       style="fill:none;stroke:#9e8500;stroke-width:0.40000001;stroke-linejoin:round;stroke-miterlimit:4.0000000;stroke-dasharray:none;stroke-opacity:1.0000000"
       d="M 390.27000,217.63700 C 387.76600,223.98800 390.50900,227.00800 389.28400,230.43000 C 388.10400,233.72300 382.97200,241.88500 386.87800,245.43200 C 389.98300,245.57000 386.34200,240.93200 392.55300,232.34200 C 395.43300,228.31800 391.80000,225.77000 394.83500,217.87700 C 395.11700,217.20100 390.66600,216.63700 390.27100,217.63900 L 390.27000,217.63700 z "
       id="path56" />
    <path
       style="fill:#ffd600;stroke:#9e8500;stroke-width:0.40000001;stroke-miterlimit:4.0000000;stroke-dasharray:none;stroke-opacity:1.0000000"
       d="M 395.57300,218.11500 C 394.61100,225.24200 395.18300,247.14500 397.48500,246.26800 C 400.03400,247.06500 400.37100,224.81300 400.13700,218.23400 C 400.10400,217.50600 395.70700,217.05300 395.57300,218.11500"
       id="path58" />
    <path
       style="fill:none;stroke:#9e8500;stroke-width:0.40000001;stroke-linejoin:round;stroke-miterlimit:4.0000000;stroke-dasharray:none;stroke-opacity:1.0000000"
       d="M 395.57400,218.11500 C 394.61200,225.24400 395.18400,247.14500 397.48700,246.27000 C 400.03600,247.06500 400.37200,224.81300 400.13800,218.23400 C 400.10600,217.50600 395.70800,217.05300 395.57400,218.11500 z "
       id="path60" />
    <path
       style="fill:none;stroke:#9e8500;stroke-width:0.40000001;stroke-linejoin:round;stroke-miterlimit:4.0000000;stroke-dasharray:none;stroke-opacity:1.0000000"
       d="M 385.86600,215.67400 C 383.07100,221.91200 378.93300,222.21100 377.34000,225.48600 C 375.80700,228.63900 373.58400,237.95100 368.23200,237.84000 C 365.91300,235.83400 371.86400,234.98600 373.62400,224.63700 C 374.46900,219.80900 378.90400,220.45100 382.43200,212.75200 C 382.71700,212.07800 386.30600,214.69200 385.86700,215.67400 L 385.86600,215.67400 z "
       id="path62" />
    <path
       style="fill:none;stroke:#9e8500;stroke-width:0.40000001;stroke-linejoin:round;stroke-miterlimit:4.0000000;stroke-dasharray:none;stroke-opacity:1.0000000"
       d="M 375.60200,206.04100 C 369.16700,208.75200 368.86100,212.76400 365.48200,214.30900 C 362.22800,215.79700 352.62000,217.95500 352.73800,223.14100 C 354.80800,225.38700 355.68100,219.62100 366.35900,217.90800 C 371.34200,217.08800 370.67700,212.79100 378.62000,209.36700 C 379.31600,209.09000 376.61600,205.61500 375.60200,206.04100 z "
       id="path64" />
    <path
       style="fill:none;stroke:#9e8500;stroke-width:0.40000001;stroke-linejoin:round;stroke-miterlimit:4.0000000;stroke-dasharray:none;stroke-opacity:1.0000000"
       d="M 373.59500,201.55100 C 367.05500,204.01400 363.92400,201.37300 360.40100,202.58000 C 357.01000,203.74200 348.61600,208.76400 344.93300,204.99800 C 344.77200,201.99000 349.58100,205.49200 358.40900,199.42400 C 362.54500,196.60900 365.19400,200.11500 373.32300,197.12900 C 374.01800,196.85200 374.62500,201.16200 373.59500,201.54900 L 373.59500,201.55100 z "
       id="path66" />
    <path
       style="fill:none;stroke:#9e8500;stroke-width:0.40000001;stroke-linejoin:round;stroke-miterlimit:4.0000000;stroke-dasharray:none;stroke-opacity:1.0000000"
       d="M 390.52000,217.09800 C 388.47400,224.01000 378.95300,243.87900 377.20000,242.18800 C 374.53400,241.93400 383.36700,221.39300 386.28400,215.44700 C 386.61300,214.79100 390.83300,216.07200 390.51900,217.10000 L 390.52000,217.09800 z "
       id="path68" />
    <path
       style="fill:none;stroke:#9e8500;stroke-width:0.40000001;stroke-linejoin:round;stroke-miterlimit:4.0000000;stroke-dasharray:none;stroke-opacity:1.0000000"
       d="M 381.52100,212.72500 C 377.04400,218.45700 360.77500,233.66800 359.76900,231.47900 C 357.37700,230.31300 373.25200,214.23300 378.18400,209.70500 C 378.73500,209.20900 382.19600,211.87700 381.52100,212.72500 z "
       id="path70" />
    <path
       style="fill:none;stroke:#9e8500;stroke-width:0.40000001;stroke-linejoin:round;stroke-miterlimit:4.0000000;stroke-dasharray:none;stroke-opacity:1.0000000"
       d="M 375.87500,205.38700 C 369.48000,209.02900 348.45300,217.07800 348.38500,214.68200 C 346.63300,212.71900 367.63800,203.72500 373.97900,201.36100 C 374.68400,201.10600 376.83300,204.85200 375.87600,205.38500 L 375.87500,205.38700 z "
       id="path72" />
    <path
       style="fill:none;stroke:#9e8500;stroke-width:0.40000001;stroke-miterlimit:4.0000000;stroke-dasharray:none;stroke-opacity:1.0000000"
       d="M 394.05700,197.15800 C 391.38700,201.50600 395.02400,198.44000 395.61500,199.69900 C 396.65400,200.86500 397.69300,200.59000 398.30700,199.69900 C 398.92200,198.69200 402.79500,201.59800 400.15000,197.29700"
       id="path74" />
    <path
       style="fill:#efc10e;stroke:#9e8500;stroke-width:0.40000001;stroke-miterlimit:4.0000000;stroke-dasharray:none;stroke-opacity:1.0000000"
       d="M 389.30800,204.36700 C 391.59900,204.11500 395.44900,202.42200 396.81900,203.81800 C 398.00000,202.55900 402.15700,204.18400 404.82500,204.36700 C 402.88800,205.51000 398.96800,204.73300 397.10200,205.94500 C 395.28300,204.86900 391.26800,205.85400 389.30800,204.36700"
       id="path76" />
    <path
       style="fill:none;stroke:#9e8500;stroke-width:0.40000001;stroke-linecap:round;stroke-linejoin:round;stroke-miterlimit:4.0000000;stroke-dasharray:none;stroke-opacity:1.0000000"
       d="M 389.30900,204.36700 C 391.59900,204.11500 395.45000,202.42200 396.82000,203.81800 C 398.00000,202.55900 402.15800,204.18400 404.82600,204.36700 C 402.88900,205.51000 398.97000,204.73300 397.10400,205.94500 C 395.28500,204.86900 391.27000,205.85400 389.30900,204.36700 z "
       id="path78" />
    <path
       style="fill:#efc10e;stroke:#9e8500;stroke-width:0.40000001;stroke-miterlimit:4.0000000;stroke-dasharray:none;stroke-opacity:1.0000000"
       d="M 392.99300,206.35800 C 396.46500,207.73100 397.24400,207.52500 401.00000,206.49400 C 400.22100,208.48600 398.23100,208.90600 397.10300,208.82800 C 395.93400,208.75400 394.34000,208.89900 392.99400,206.35800"
       id="path80" />
    <path
       style="fill:none;stroke:#9e8500;stroke-width:0.40000001;stroke-linejoin:round;stroke-miterlimit:4.0000000;stroke-dasharray:none;stroke-opacity:1.0000000"
       d="M 392.99400,206.35800 C 396.46600,207.73100 397.24600,207.52500 401.00100,206.49400 C 400.22200,208.48600 398.23200,208.90600 397.10400,208.83000 C 395.93500,208.75600 394.34100,208.89900 392.99500,206.35800 L 392.99400,206.35800 z "
       id="path82" />
    <path
       style="fill:#ffd600;stroke:#9e8500;stroke-width:0.40000001;stroke-miterlimit:4.0000000;stroke-dasharray:none;stroke-opacity:1.0000000"
       d="M 385.86600,215.67600 C 383.07200,221.91200 378.93300,222.21100 377.34000,225.48600 C 375.80600,228.63900 373.58400,237.95100 368.23200,237.84000 C 365.91200,235.83400 371.86300,234.98600 373.62400,224.63700 C 374.46900,219.80900 378.90400,220.45100 382.43200,212.75000 C 382.71700,212.07600 386.30700,214.69200 385.86700,215.67400"
       id="path84" />
    <path
       style="fill:none;stroke:#9e8500;stroke-width:0.40000001;stroke-linejoin:round;stroke-miterlimit:4.0000000;stroke-dasharray:none;stroke-opacity:1.0000000"
       d="M 385.86600,215.67400 C 383.07100,221.91200 378.93300,222.21100 377.34000,225.48600 C 375.80700,228.63900 373.58400,237.95100 368.23200,237.84000 C 365.91300,235.83400 371.86400,234.98600 373.62400,224.63700 C 374.46900,219.80900 378.90400,220.45100 382.43200,212.75200 C 382.71700,212.07800 386.30600,214.69200 385.86700,215.67400 L 385.86600,215.67400 z "
       id="path86" />
    <path
       style="fill:#ffd600;stroke:#9e8500;stroke-width:0.40000001;stroke-miterlimit:4.0000000;stroke-dasharray:none;stroke-opacity:1.0000000"
       d="M 375.60200,206.04100 C 369.16700,208.75200 368.86100,212.76400 365.48200,214.31100 C 362.22800,215.79700 352.61900,217.95700 352.73800,223.14300 C 354.80800,225.38900 355.68000,219.62100 366.35900,217.91000 C 371.34100,217.08800 370.67600,212.79100 378.62000,209.36900 C 379.31600,209.09200 376.61600,205.61500 375.60200,206.04100"
       id="path88" />
    <path
       style="fill:none;stroke:#9e8500;stroke-width:0.40000001;stroke-linejoin:round;stroke-miterlimit:4.0000000;stroke-dasharray:none;stroke-opacity:1.0000000"
       d="M 375.60200,206.04100 C 369.16700,208.75200 368.86100,212.76400 365.48200,214.30900 C 362.22800,215.79700 352.62000,217.95500 352.73800,223.14100 C 354.80800,225.38700 355.68100,219.62100 366.35900,217.90800 C 371.34200,217.08800 370.67700,212.79100 378.62000,209.36700 C 379.31600,209.09000 376.61600,205.61500 375.60200,206.04100 z "
       id="path90" />
    <path
       style="fill:#ffd600;stroke:#9e8500;stroke-width:0.40000001;stroke-miterlimit:4.0000000;stroke-dasharray:none;stroke-opacity:1.0000000"
       d="M 373.59600,201.55100 C 367.05600,204.01400 363.92500,201.37500 360.40200,202.58000 C 357.01000,203.74200 348.61600,208.76400 344.93400,204.99800 C 344.77300,201.99000 349.58100,205.49200 358.41000,199.42400 C 362.54600,196.60900 365.19500,200.11700 373.32400,197.12900 C 374.01900,196.85200 374.62700,201.16200 373.59600,201.55100"
       id="path92" />
    <path
       style="fill:none;stroke:#9e8500;stroke-width:0.40000001;stroke-linejoin:round;stroke-miterlimit:4.0000000;stroke-dasharray:none;stroke-opacity:1.0000000"
       d="M 373.59500,201.55100 C 367.05500,204.01400 363.92400,201.37300 360.40100,202.58000 C 357.01000,203.74200 348.61600,208.76400 344.93300,204.99800 C 344.77200,201.99000 349.58100,205.49200 358.40900,199.42400 C 362.54500,196.60900 365.19400,200.11500 373.32300,197.12900 C 374.01800,196.85200 374.62500,201.16200 373.59500,201.54900 L 373.59500,201.55100 z "
       id="path94" />
    <path
       style="fill:#ffd600;stroke:#9e8500;stroke-width:0.40000001;stroke-miterlimit:4.0000000;stroke-dasharray:none;stroke-opacity:1.0000000"
       d="M 390.52100,217.09800 C 388.47500,224.00800 378.95300,243.87700 377.20100,242.18600 C 374.53500,241.93400 383.36800,221.39100 386.28500,215.44500 C 386.61400,214.78900 390.83500,216.07000 390.52100,217.09800"
       id="path96" />
    <path
       style="fill:none;stroke:#9e8500;stroke-width:0.40000001;stroke-linejoin:round;stroke-miterlimit:4.0000000;stroke-dasharray:none;stroke-opacity:1.0000000"
       d="M 390.52000,217.09800 C 388.47400,224.01000 378.95300,243.87900 377.20000,242.18800 C 374.53400,241.93400 383.36700,221.39300 386.28400,215.44700 C 386.61300,214.79100 390.83300,216.07200 390.51900,217.10000 L 390.52000,217.09800 z "
       id="path98" />
    <path
       style="fill:#ffd600;stroke:#9e8500;stroke-width:0.40000001;stroke-miterlimit:4.0000000;stroke-dasharray:none;stroke-opacity:1.0000000"
       d="M 381.52100,212.72500 C 377.04400,218.45500 360.77500,233.66800 359.76900,231.47900 C 357.37600,230.31100 373.25200,214.23300 378.18400,209.70300 C 378.73500,209.20700 382.19600,211.87500 381.52200,212.72300"
       id="path100" />
    <path
       style="fill:none;stroke:#9e8500;stroke-width:0.40000001;stroke-linejoin:round;stroke-miterlimit:4.0000000;stroke-dasharray:none;stroke-opacity:1.0000000"
       d="M 381.52100,212.72500 C 377.04400,218.45700 360.77500,233.66800 359.76900,231.47900 C 357.37700,230.31300 373.25200,214.23300 378.18400,209.70500 C 378.73500,209.20900 382.19600,211.87700 381.52100,212.72500 z "
       id="path102" />
    <path
       style="fill:#ffd600;stroke:#9e8500;stroke-width:0.40000001;stroke-miterlimit:4.0000000;stroke-dasharray:none;stroke-opacity:1.0000000"
       d="M 375.87400,205.38700 C 369.47900,209.02900 348.45200,217.07600 348.38400,214.68200 C 346.63100,212.71900 367.63600,203.72500 373.97700,201.36100 C 374.68100,201.10600 376.83000,204.85200 375.87300,205.38700"
       id="path104" />
    <path
       style="fill:none;stroke:#9e8500;stroke-width:0.40000001;stroke-linejoin:round;stroke-miterlimit:4.0000000;stroke-dasharray:none;stroke-opacity:1.0000000"
       d="M 375.87500,205.38700 C 369.48000,209.02900 348.45300,217.07800 348.38500,214.68200 C 346.63300,212.71900 367.63800,203.72500 373.97900,201.36100 C 374.68400,201.10600 376.83300,204.85200 375.87600,205.38500 L 375.87500,205.38700 z "
       id="path106" />
    <path
       style="fill:#ffd600;stroke:#9e8500;stroke-width:0.40000001;stroke-miterlimit:4.0000000;stroke-dasharray:none;stroke-opacity:1.0000000"
       d="M 422.02700,196.52900 C 429.38300,197.46100 451.98300,196.90800 451.07900,194.67800 C 451.90000,192.20700 428.93900,191.88100 422.15000,192.10800 C 421.39800,192.13900 420.93000,196.40100 422.02700,196.52900"
       id="path108" />
    <path
       style="fill:none;stroke:#9e8500;stroke-width:0.40000001;stroke-linejoin:round;stroke-miterlimit:4.0000000;stroke-dasharray:none;stroke-opacity:1.0000000"
       d="M 422.02900,196.52900 C 429.38400,197.46300 451.98500,196.90800 451.08100,194.67800 C 451.90300,192.20700 428.94000,191.88100 422.15100,192.10800 C 421.40000,192.13900 420.93200,196.40100 422.02900,196.52900 z "
       id="path110" />
    <path
       style="fill:#ffd600;stroke:#9e8500;stroke-width:0.40000001;stroke-miterlimit:4.0000000;stroke-dasharray:none;stroke-opacity:1.0000000"
       d="M 404.98600,217.95300 C 407.49000,224.30500 404.74700,227.32400 405.97300,230.74400 C 407.15300,234.03700 412.28400,242.19900 408.37800,245.74600 C 405.27300,245.88500 408.91400,241.24600 402.70500,232.65600 C 399.82400,228.63300 403.45800,226.08600 400.42300,218.19200 C 400.14000,217.51600 404.59200,216.95300 404.98700,217.95300"
       id="path112" />
    <path
       style="fill:none;stroke:#9e8500;stroke-width:0.40000001;stroke-linejoin:round;stroke-miterlimit:4.0000000;stroke-dasharray:none;stroke-opacity:1.0000000"
       d="M 404.98800,217.95100 C 407.49100,224.30500 404.74900,227.32200 405.97400,230.74400 C 407.15400,234.03700 412.28500,242.19900 408.38000,245.74800 C 405.27500,245.88700 408.91600,241.24800 402.70500,232.65600 C 399.82500,228.63300 403.45800,226.08600 400.42300,218.19200 C 400.14100,217.51800 404.59200,216.95300 404.98700,217.95300 L 404.98800,217.95100 z "
       id="path114" />
    <path
       style="fill:#ffd600;stroke:#9e8500;stroke-width:0.40000001;stroke-miterlimit:4.0000000;stroke-dasharray:none;stroke-opacity:1.0000000"
       d="M 409.57400,215.99000 C 412.36800,222.22700 416.50700,222.52500 418.10000,225.80100 C 419.63400,228.95500 421.85600,238.26600 427.20800,238.15400 C 429.52800,236.15100 423.57700,235.30100 421.81600,224.95100 C 420.97100,220.12300 416.53600,220.76600 413.00800,213.06700 C 412.72300,212.39300 409.13300,215.00600 409.57300,215.98800"
       id="path116" />
    <path
       style="fill:none;stroke:#9e8500;stroke-width:0.40000001;stroke-linejoin:round;stroke-miterlimit:4.0000000;stroke-dasharray:none;stroke-opacity:1.0000000"
       d="M 409.57300,215.99000 C 412.36800,222.22700 416.50600,222.52500 418.09900,225.80100 C 419.63300,228.95500 421.85500,238.26800 427.20700,238.15400 C 429.52700,236.15100 423.57600,235.30300 421.81500,224.95300 C 420.97000,220.12500 416.53500,220.76600 413.00700,213.06700 C 412.72200,212.39300 409.13300,215.00800 409.57300,215.99000 z "
       id="path118" />
    <path
       style="fill:#ffd600;stroke:#9e8500;stroke-width:0.40000001;stroke-miterlimit:4.0000000;stroke-dasharray:none;stroke-opacity:1.0000000"
       d="M 419.84100,206.19900 C 426.27600,208.91000 426.58200,212.92000 429.96100,214.46700 C 433.21500,215.95500 442.82300,218.11300 442.70500,223.29900 C 440.63500,225.54700 439.76300,219.77900 429.08400,218.06800 C 424.10200,217.24600 424.76700,212.94900 416.82300,209.52500 C 416.12700,209.24800 418.82700,205.77200 419.84100,206.19900"
       id="path120" />
    <path
       style="fill:none;stroke:#9e8500;stroke-width:0.40000001;stroke-linejoin:round;stroke-miterlimit:4.0000000;stroke-dasharray:none;stroke-opacity:1.0000000"
       d="M 419.84000,206.19900 C 426.27500,208.91000 426.58200,212.92200 429.96000,214.46700 C 433.21400,215.95500 442.82200,218.11300 442.70400,223.29900 C 440.63400,225.54700 439.76200,219.77900 429.08300,218.06700 C 424.10100,217.24600 424.76600,212.94900 416.82200,209.52500 C 416.12700,209.25000 418.82600,205.77400 419.84000,206.19900 z "
       id="path122" />
    <path
       style="fill:#ffd600;stroke:#9e8500;stroke-width:0.40000001;stroke-miterlimit:4.0000000;stroke-dasharray:none;stroke-opacity:1.0000000"
       d="M 421.66100,201.55100 C 428.20100,204.01400 431.33200,201.37500 434.85500,202.58000 C 438.24700,203.74200 446.64100,208.76400 450.32300,204.99800 C 450.48300,201.99000 445.67600,205.49200 436.84700,199.42400 C 432.71100,196.60900 430.06200,200.11700 421.93300,197.12900 C 421.23800,196.85200 420.63000,201.16200 421.66100,201.55100"
       id="path124" />
    <path
       style="fill:none;stroke:#9e8500;stroke-width:0.40000001;stroke-linejoin:round;stroke-miterlimit:4.0000000;stroke-dasharray:none;stroke-opacity:1.0000000"
       d="M 421.66000,201.55100 C 428.19900,204.01400 431.33100,201.37300 434.85300,202.58000 C 438.24500,203.74200 446.63900,208.76200 450.32100,204.99800 C 450.48200,201.99000 445.67400,205.49000 436.84500,199.42400 C 432.70900,196.60900 430.06100,200.11500 421.93200,197.12900 C 421.23700,196.85200 420.63000,201.16200 421.66000,201.54900 L 421.66000,201.55100 z "
       id="path126" />
    <path
       style="fill:#ffd600;stroke:#9e8500;stroke-width:0.40000001;stroke-miterlimit:4.0000000;stroke-dasharray:none;stroke-opacity:1.0000000"
       d="M 404.88300,217.41400 C 406.92900,224.32400 416.45100,244.19300 418.20300,242.50200 C 420.86800,242.24800 412.03600,221.70700 409.11900,215.76200 C 408.79000,215.10600 404.56900,216.38500 404.88300,217.41400"
       id="path128" />
    <path
       style="fill:none;stroke:#9e8500;stroke-width:0.40000001;stroke-linejoin:round;stroke-miterlimit:4.0000000;stroke-dasharray:none;stroke-opacity:1.0000000"
       d="M 404.88300,217.41400 C 406.93000,224.32600 416.45100,244.19500 418.20400,242.50400 C 420.87000,242.25000 412.03700,221.70900 409.12000,215.76400 C 408.79100,215.10800 404.57100,216.38900 404.88400,217.41600 L 404.88300,217.41400 z "
       id="path130" />
    <path
       style="fill:#ffd600;stroke:#9e8500;stroke-width:0.40000001;stroke-miterlimit:4.0000000;stroke-dasharray:none;stroke-opacity:1.0000000"
       d="M 413.49200,212.72500 C 417.96900,218.45500 434.23800,233.66800 435.24400,231.47900 C 437.63700,230.31100 421.76100,214.23300 416.82900,209.70300 C 416.27800,209.20700 412.81700,211.87500 413.49200,212.72300"
       id="path132" />
    <path
       style="fill:none;stroke:#9e8500;stroke-width:0.40000001;stroke-linejoin:round;stroke-miterlimit:4.0000000;stroke-dasharray:none;stroke-opacity:1.0000000"
       d="M 413.49200,212.72500 C 417.96900,218.45700 434.23800,233.66800 435.24300,231.47900 C 437.63600,230.31100 421.76100,214.23300 416.82900,209.70500 C 416.27800,209.20900 412.81700,211.87500 413.49100,212.72500 L 413.49200,212.72500 z "
       id="path134" />
    <path
       style="fill:#ffd600;stroke:#9e8500;stroke-width:0.40000001;stroke-miterlimit:4.0000000;stroke-dasharray:none;stroke-opacity:1.0000000"
       d="M 419.65800,205.38700 C 426.05300,209.02900 447.08000,217.07600 447.14800,214.68200 C 448.90100,212.71900 427.89600,203.72500 421.55500,201.36100 C 420.85000,201.10600 418.70100,204.85200 419.65900,205.38700"
       id="path136" />
    <path
       style="fill:none;stroke:#9e8500;stroke-width:0.40000001;stroke-linejoin:round;stroke-miterlimit:4.0000000;stroke-dasharray:none;stroke-opacity:1.0000000"
       d="M 419.65800,205.38700 C 426.05300,209.02900 447.08000,217.07600 447.14700,214.68000 C 448.90000,212.71700 427.89500,203.72300 421.55300,201.36100 C 420.84900,201.10600 418.70000,204.85000 419.65700,205.38500 L 419.65800,205.38700 z "
       id="path138" />
    <path
       style="fill:#ffd600;stroke:#9e8500;stroke-width:0.40000001;stroke-miterlimit:4.0000000;stroke-dasharray:none;stroke-opacity:1.0000000"
       d="M 409.57400,215.99000 C 412.36800,222.22700 416.50700,222.52500 418.10000,225.80100 C 419.63400,228.95500 421.85600,238.26600 427.20800,238.15400 C 429.52800,236.15100 423.57700,235.30100 421.81600,224.95100 C 420.97100,220.12300 416.53600,220.76600 413.00800,213.06700 C 412.72300,212.39300 409.13300,215.00600 409.57300,215.98800"
       id="path140" />
    <path
       style="fill:none;stroke:#9e8500;stroke-width:0.40000001;stroke-linejoin:round;stroke-miterlimit:4.0000000;stroke-dasharray:none;stroke-opacity:1.0000000"
       d="M 409.57300,215.99000 C 412.36800,222.22700 416.50600,222.52500 418.09900,225.80100 C 419.63300,228.95500 421.85500,238.26800 427.20700,238.15400 C 429.52700,236.15100 423.57600,235.30300 421.81500,224.95300 C 420.97000,220.12500 416.53500,220.76600 413.00700,213.06700 C 412.72200,212.39300 409.13300,215.00800 409.57300,215.99000 z "
       id="path142" />
    <path
       style="fill:#ffd600;stroke:#9e8500;stroke-width:0.40000001;stroke-miterlimit:4.0000000;stroke-dasharray:none;stroke-opacity:1.0000000"
       d="M 419.84100,206.19900 C 426.27600,208.91000 426.58200,212.92000 429.96100,214.46700 C 433.21500,215.95500 442.82300,218.11300 442.70500,223.29900 C 440.63500,225.54700 439.76300,219.77900 429.08400,218.06800 C 424.10200,217.24600 424.76700,212.94900 416.82300,209.52500 C 416.12700,209.24800 418.82700,205.77200 419.84100,206.19900"
       id="path144" />
    <path
       style="fill:none;stroke:#9e8500;stroke-width:0.40000001;stroke-linejoin:round;stroke-miterlimit:4.0000000;stroke-dasharray:none;stroke-opacity:1.0000000"
       d="M 419.84000,206.19900 C 426.27500,208.91000 426.58200,212.92200 429.96000,214.46700 C 433.21400,215.95500 442.82200,218.11300 442.70400,223.29900 C 440.63400,225.54700 439.76200,219.77900 429.08300,218.06700 C 424.10100,217.24600 424.76600,212.94900 416.82200,209.52500 C 416.12700,209.25000 418.82600,205.77400 419.84000,206.19900 z "
       id="path146" />
    <path
       style="fill:#ffd600;stroke:#9e8500;stroke-width:0.40000001;stroke-miterlimit:4.0000000;stroke-dasharray:none;stroke-opacity:1.0000000"
       d="M 421.66100,201.55100 C 428.20100,204.01400 431.33200,201.37500 434.85500,202.58000 C 438.24700,203.74200 446.64100,208.76400 450.32300,204.99800 C 450.48300,201.99000 445.67600,205.49200 436.84700,199.42400 C 432.71100,196.60900 430.06200,200.11700 421.93300,197.12900 C 421.23800,196.85200 420.63000,201.16200 421.66100,201.55100"
       id="path148" />
    <path
       style="fill:none;stroke:#9e8500;stroke-width:0.40000001;stroke-linejoin:round;stroke-miterlimit:4.0000000;stroke-dasharray:none;stroke-opacity:1.0000000"
       d="M 421.66000,201.55100 C 428.19900,204.01400 431.33100,201.37300 434.85300,202.58000 C 438.24500,203.74200 446.63900,208.76200 450.32100,204.99800 C 450.48200,201.99000 445.67400,205.49000 436.84500,199.42400 C 432.70900,196.60900 430.06100,200.11500 421.93200,197.12900 C 421.23700,196.85200 420.63000,201.16200 421.66000,201.54900 L 421.66000,201.55100 z "
       id="path150" />
    <path
       style="fill:#ffd600;stroke:#9e8500;stroke-width:0.40000001;stroke-miterlimit:4.0000000;stroke-dasharray:none;stroke-opacity:1.0000000"
       d="M 404.88300,217.41400 C 406.92900,224.32400 416.45100,244.19300 418.20300,242.50200 C 420.86800,242.24800 412.03600,221.70700 409.11900,215.76200 C 408.79000,215.10600 404.56900,216.38500 404.88300,217.41400"
       id="path152" />
    <path
       style="fill:none;stroke:#9e8500;stroke-width:0.40000001;stroke-linejoin:round;stroke-miterlimit:4.0000000;stroke-dasharray:none;stroke-opacity:1.0000000"
       d="M 404.88300,217.41400 C 406.93000,224.32600 416.45100,244.19500 418.20400,242.50400 C 420.87000,242.25000 412.03700,221.70900 409.12000,215.76400 C 408.79100,215.10800 404.57100,216.38900 404.88400,217.41600 L 404.88300,217.41400 z "
       id="path154" />
    <path
       style="fill:#ffd600;stroke:#9e8500;stroke-width:0.40000001;stroke-miterlimit:4.0000000;stroke-dasharray:none;stroke-opacity:1.0000000"
       d="M 413.49200,212.72500 C 417.96900,218.45500 434.23800,233.66800 435.24400,231.47900 C 437.63700,230.31100 421.76100,214.23300 416.82900,209.70300 C 416.27800,209.20700 412.81700,211.87500 413.49200,212.72300"
       id="path156" />
    <path
       style="fill:none;stroke:#9e8500;stroke-width:0.40000001;stroke-linejoin:round;stroke-miterlimit:4.0000000;stroke-dasharray:none;stroke-opacity:1.0000000"
       d="M 413.49200,212.72500 C 417.96900,218.45700 434.23800,233.66800 435.24300,231.47900 C 437.63600,230.31100 421.76100,214.23300 416.82900,209.70500 C 416.27800,209.20900 412.81700,211.87500 413.49100,212.72500 L 413.49200,212.72500 z "
       id="path158" />
    <path
       style="fill:#ffd600;stroke:#9e8500;stroke-width:0.40000001;stroke-miterlimit:4.0000000;stroke-dasharray:none;stroke-opacity:1.0000000"
       d="M 419.65800,205.38700 C 426.05300,209.02900 447.08000,217.07600 447.14800,214.68200 C 448.90100,212.71900 427.89600,203.72500 421.55500,201.36100 C 420.85000,201.10600 418.70100,204.85200 419.65900,205.38700"
       id="path160" />
    <path
       style="fill:none;stroke:#9e8500;stroke-width:0.40000001;stroke-linejoin:round;stroke-miterlimit:4.0000000;stroke-dasharray:none;stroke-opacity:1.0000000"
       d="M 419.65800,205.38700 C 426.05300,209.02900 447.08000,217.07600 447.14700,214.68000 C 448.90000,212.71700 427.89500,203.72300 421.55300,201.36100 C 420.84900,201.10600 418.70000,204.85000 419.65700,205.38500 L 419.65800,205.38700 z "
       id="path162" />
    <path
       style="fill:#ffd600;stroke:#9e8500;stroke-width:0.40000001;stroke-miterlimit:4.0000000;stroke-dasharray:none;stroke-opacity:1.0000000"
       d="M 373.16500,192.36700 C 365.80900,191.43600 343.20900,191.98800 344.11300,194.21900 C 343.29100,196.69200 366.25300,197.01600 373.04200,196.78900 C 373.79400,196.75800 374.26200,192.49600 373.16500,192.36700"
       id="path164" />
    <path
       style="fill:none;stroke:#9e8500;stroke-width:0.40000001;stroke-linejoin:round;stroke-miterlimit:4.0000000;stroke-dasharray:none;stroke-opacity:1.0000000"
       d="M 373.16600,192.36700 C 365.81100,191.43600 343.21000,191.98800 344.11400,194.22100 C 343.29200,196.69200 366.25400,197.01600 373.04300,196.78900 C 373.79500,196.75800 374.26300,192.49600 373.16600,192.36700 z "
       id="path166" />
    <path
       style="fill:#ffd600;stroke:#9e8500;stroke-width:0.40000001;stroke-miterlimit:4.0000000;stroke-dasharray:none;stroke-opacity:1.0000000"
       d="M 390.20600,170.94300 C 387.70200,164.59200 390.44500,161.57200 389.21900,158.15200 C 388.03900,154.85900 382.90700,146.69700 386.81300,143.15100 C 389.91800,143.01200 386.27700,147.65100 392.48700,156.24000 C 395.36800,160.26600 391.73400,162.81300 394.76900,170.70500 C 395.05200,171.38100 390.60000,171.94500 390.20500,170.94500"
       id="path168" />
    <path
       style="fill:none;stroke:#9e8500;stroke-width:0.40000001;stroke-linejoin:round;stroke-miterlimit:4.0000000;stroke-dasharray:none;stroke-opacity:1.0000000"
       d="M 390.20800,170.94300 C 387.70400,164.59200 390.44700,161.57200 389.22200,158.15200 C 388.04200,154.85900 382.91000,146.69500 386.81600,143.14900 C 389.92100,143.01000 386.28000,147.64900 392.49100,156.24000 C 395.37100,160.26400 391.73800,162.81100 394.77300,170.70300 C 395.05500,171.37900 390.60400,171.94300 390.20800,170.94200 L 390.20800,170.94300 z "
       id="path170" />
    <path
       style="fill:#ffd600;stroke:#9e8500;stroke-width:0.40000001;stroke-miterlimit:4.0000000;stroke-dasharray:none;stroke-opacity:1.0000000"
       d="M 385.61800,172.90600 C 382.82400,166.67000 378.68500,166.36900 377.09200,163.09600 C 375.55800,159.94200 373.33600,150.62900 367.98400,150.74200 C 365.66400,152.74600 371.61500,153.59400 373.37600,163.94300 C 374.22100,168.77200 378.65600,168.13100 382.18400,175.83000 C 382.46900,176.50400 386.05900,173.89100 385.61900,172.90800"
       id="path172" />
    <path
       style="fill:none;stroke:#9e8500;stroke-width:0.40000001;stroke-linejoin:round;stroke-miterlimit:4.0000000;stroke-dasharray:none;stroke-opacity:1.0000000"
       d="M 385.61700,172.90600 C 382.82200,166.67000 378.68400,166.37100 377.09100,163.09600 C 375.55700,159.94200 373.33500,150.62900 367.98300,150.74200 C 365.66300,152.74600 371.61400,153.59400 373.37500,163.94300 C 374.22000,168.77200 378.65500,168.12900 382.18300,175.83000 C 382.46800,176.50400 386.05700,173.88900 385.61700,172.90600 z "
       id="path174" />
    <path
       style="fill:#ffd600;stroke:#9e8500;stroke-width:0.40000001;stroke-miterlimit:4.0000000;stroke-dasharray:none;stroke-opacity:1.0000000"
       d="M 375.35100,182.69700 C 368.91600,179.98600 368.61000,175.97500 365.23100,174.43000 C 361.97700,172.94200 352.36800,170.78100 352.48700,165.59600 C 354.55700,163.35000 355.42900,169.11700 366.10800,170.82800 C 371.09000,171.65100 370.42500,175.94700 378.36900,179.37100 C 379.06500,179.64700 376.36500,183.12500 375.35100,182.69700"
       id="path176" />
    <path
       style="fill:none;stroke:#9e8500;stroke-width:0.40000001;stroke-linejoin:round;stroke-miterlimit:4.0000000;stroke-dasharray:none;stroke-opacity:1.0000000"
       d="M 375.35100,182.69700 C 368.91600,179.98600 368.60900,175.97500 365.23100,174.43000 C 361.97700,172.94200 352.36900,170.78300 352.48700,165.59800 C 354.55700,163.35200 355.43000,169.11700 366.10800,170.83000 C 371.09000,171.65100 370.42500,175.94900 378.36900,179.37100 C 379.06500,179.64900 376.36500,183.12500 375.35100,182.69700 z "
       id="path178" />
    <path
       style="fill:#ffd600;stroke:#9e8500;stroke-width:0.40000001;stroke-miterlimit:4.0000000;stroke-dasharray:none;stroke-opacity:1.0000000"
       d="M 373.53100,187.34600 C 366.99100,184.88300 363.86000,187.52400 360.33700,186.31700 C 356.94500,185.15400 348.55100,180.13300 344.86900,183.89900 C 344.70800,186.90600 349.51600,183.40400 358.34500,189.47300 C 362.48100,192.28700 365.13000,188.77900 373.25900,191.76800 C 373.95400,192.04500 374.56200,187.73400 373.53100,187.34600"
       id="path180" />
    <path
       style="fill:none;stroke:#9e8500;stroke-width:0.40000001;stroke-linejoin:round;stroke-miterlimit:4.0000000;stroke-dasharray:none;stroke-opacity:1.0000000"
       d="M 373.53000,187.34600 C 366.99000,184.88300 363.85900,187.52400 360.33600,186.31700 C 356.94500,185.15400 348.55100,180.13500 344.86800,183.89900 C 344.70700,186.90600 349.51500,183.40600 358.34400,189.47300 C 362.48000,192.28700 365.12800,188.78100 373.25700,191.76800 C 373.95300,192.04500 374.56000,187.73400 373.53000,187.34800 L 373.53000,187.34600 z "
       id="path182" />
    <path
       style="fill:#ffd600;stroke:#9e8500;stroke-width:0.40000001;stroke-miterlimit:4.0000000;stroke-dasharray:none;stroke-opacity:1.0000000"
       d="M 390.30900,171.48300 C 388.26300,164.57200 378.74100,144.70300 376.98900,146.39500 C 374.32300,146.64900 383.15600,167.19000 386.07300,173.13500 C 386.40200,173.79100 390.62300,172.51200 390.30900,171.48300"
       id="path184" />
    <path
       style="fill:none;stroke:#9e8500;stroke-width:0.40000001;stroke-linejoin:round;stroke-miterlimit:4.0000000;stroke-dasharray:none;stroke-opacity:1.0000000"
       d="M 390.31000,171.48400 C 388.26300,164.57400 378.74200,144.70500 376.98900,146.39700 C 374.32300,146.64900 383.15600,167.19200 386.07300,173.13500 C 386.40200,173.79100 390.62200,172.51200 390.30900,171.48400 L 390.31000,171.48400 z "
       id="path186" />
    <path
       style="fill:#ffd600;stroke:#9e8500;stroke-width:0.40000001;stroke-miterlimit:4.0000000;stroke-dasharray:none;stroke-opacity:1.0000000"
       d="M 381.70000,176.17400 C 377.22300,170.44200 360.95400,155.22900 359.94800,157.42000 C 357.55500,158.58600 373.43100,174.66400 378.36300,179.19300 C 378.91400,179.69000 382.37500,177.02200 381.70100,176.17400"
       id="path188" />
    <path
       style="fill:none;stroke:#9e8500;stroke-width:0.40000001;stroke-linejoin:round;stroke-miterlimit:4.0000000;stroke-dasharray:none;stroke-opacity:1.0000000"
       d="M 381.69900,176.17200 C 377.22200,170.44000 360.95300,155.22900 359.94800,157.41800 C 357.55500,158.58400 373.43000,174.66400 378.36200,179.19200 C 378.91300,179.68800 382.37400,177.02000 381.70000,176.17200 L 381.69900,176.17200 z "
       id="path190" />
    <path
       style="fill:#ffd600;stroke:#9e8500;stroke-width:0.40000001;stroke-miterlimit:4.0000000;stroke-dasharray:none;stroke-opacity:1.0000000"
       d="M 375.53400,183.51200 C 369.13900,179.86700 348.11200,171.82000 348.04400,174.21700 C 346.29100,176.18000 367.29600,185.17200 373.63700,187.53500 C 374.34200,187.79100 376.49000,184.04500 375.53300,183.51200"
       id="path192" />
    <path
       style="fill:none;stroke:#9e8500;stroke-width:0.40000001;stroke-linejoin:round;stroke-miterlimit:4.0000000;stroke-dasharray:none;stroke-opacity:1.0000000"
       d="M 375.53400,183.51200 C 369.13900,179.86700 348.11200,171.82000 348.04400,174.21700 C 346.29200,176.18000 367.29700,185.17400 373.63800,187.53700 C 374.34300,187.79300 376.49200,184.04700 375.53500,183.51200 L 375.53400,183.51200 z "
       id="path194" />
    <path
       style="fill:#ffd600;stroke:#9e8500;stroke-width:0.40000001;stroke-miterlimit:4.0000000;stroke-dasharray:none;stroke-opacity:1.0000000"
       d="M 385.61800,172.90600 C 382.82400,166.67000 378.68500,166.36900 377.09200,163.09600 C 375.55800,159.94200 373.33600,150.62900 367.98400,150.74200 C 365.66400,152.74600 371.61500,153.59400 373.37600,163.94300 C 374.22100,168.77200 378.65600,168.13100 382.18400,175.83000 C 382.46900,176.50400 386.05900,173.89100 385.61900,172.90800"
       id="path196" />
    <path
       style="fill:none;stroke:#9e8500;stroke-width:0.40000001;stroke-linejoin:round;stroke-miterlimit:4.0000000;stroke-dasharray:none;stroke-opacity:1.0000000"
       d="M 385.61700,172.90600 C 382.82200,166.67000 378.68400,166.37100 377.09100,163.09600 C 375.55700,159.94200 373.33500,150.62900 367.98300,150.74200 C 365.66300,152.74600 371.61400,153.59400 373.37500,163.94300 C 374.22000,168.77200 378.65500,168.12900 382.18300,175.83000 C 382.46800,176.50400 386.05700,173.88900 385.61700,172.90600 z "
       id="path198" />
    <path
       style="fill:#ffd600;stroke:#9e8500;stroke-width:0.40000001;stroke-miterlimit:4.0000000;stroke-dasharray:none;stroke-opacity:1.0000000"
       d="M 375.35100,182.69700 C 368.91600,179.98600 368.61000,175.97500 365.23100,174.43000 C 361.97700,172.94200 352.36800,170.78100 352.48700,165.59600 C 354.55700,163.35000 355.42900,169.11700 366.10800,170.82800 C 371.09000,171.65100 370.42500,175.94700 378.36900,179.37100 C 379.06500,179.64700 376.36500,183.12500 375.35100,182.69700"
       id="path200" />
    <path
       style="fill:none;stroke:#9e8500;stroke-width:0.40000001;stroke-linejoin:round;stroke-miterlimit:4.0000000;stroke-dasharray:none;stroke-opacity:1.0000000"
       d="M 375.35100,182.69700 C 368.91600,179.98600 368.60900,175.97500 365.23100,174.43000 C 361.97700,172.94200 352.36900,170.78300 352.48700,165.59800 C 354.55700,163.35200 355.43000,169.11700 366.10800,170.83000 C 371.09000,171.65100 370.42500,175.94900 378.36900,179.37100 C 379.06500,179.64900 376.36500,183.12500 375.35100,182.69700 z "
       id="path202" />
    <path
       style="fill:#ffd600;stroke:#9e8500;stroke-width:0.40000001;stroke-miterlimit:4.0000000;stroke-dasharray:none;stroke-opacity:1.0000000"
       d="M 373.53100,187.34600 C 366.99100,184.88300 363.86000,187.52400 360.33700,186.31700 C 356.94500,185.15400 348.55100,180.13300 344.86900,183.89900 C 344.70800,186.90600 349.51600,183.40400 358.34500,189.47300 C 362.48100,192.28700 365.13000,188.77900 373.25900,191.76800 C 373.95400,192.04500 374.56200,187.73400 373.53100,187.34600"
       id="path204" />
    <path
       style="fill:none;stroke:#9e8500;stroke-width:0.40000001;stroke-linejoin:round;stroke-miterlimit:4.0000000;stroke-dasharray:none;stroke-opacity:1.0000000"
       d="M 373.53000,187.34600 C 366.99000,184.88300 363.85900,187.52400 360.33600,186.31700 C 356.94500,185.15400 348.55100,180.13500 344.86800,183.89900 C 344.70700,186.90600 349.51500,183.40600 358.34400,189.47300 C 362.48000,192.28700 365.12800,188.78100 373.25700,191.76800 C 373.95300,192.04500 374.56000,187.73400 373.53000,187.34800 L 373.53000,187.34600 z "
       id="path206" />
    <path
       style="fill:#ffd600;stroke:#9e8500;stroke-width:0.40000001;stroke-miterlimit:4.0000000;stroke-dasharray:none;stroke-opacity:1.0000000"
       d="M 390.30900,171.48300 C 388.26300,164.57200 378.74100,144.70300 376.98900,146.39500 C 374.32300,146.64900 383.15600,167.19000 386.07300,173.13500 C 386.40200,173.79100 390.62300,172.51200 390.30900,171.48300"
       id="path208" />
    <path
       style="fill:none;stroke:#9e8500;stroke-width:0.40000001;stroke-linejoin:round;stroke-miterlimit:4.0000000;stroke-dasharray:none;stroke-opacity:1.0000000"
       d="M 390.31000,171.48400 C 388.26300,164.57400 378.74200,144.70500 376.98900,146.39700 C 374.32300,146.64900 383.15600,167.19200 386.07300,173.13500 C 386.40200,173.79100 390.62200,172.51200 390.30900,171.48400 L 390.31000,171.48400 z "
       id="path210" />
    <path
       style="fill:#ffd600;stroke:#9e8500;stroke-width:0.40000001;stroke-miterlimit:4.0000000;stroke-dasharray:none;stroke-opacity:1.0000000"
       d="M 381.70000,176.17400 C 377.22300,170.44200 360.95400,155.22900 359.94800,157.42000 C 357.55500,158.58600 373.43100,174.66400 378.36300,179.19300 C 378.91400,179.69000 382.37500,177.02200 381.70100,176.17400"
       id="path212" />
    <path
       style="fill:none;stroke:#9e8500;stroke-width:0.40000001;stroke-linejoin:round;stroke-miterlimit:4.0000000;stroke-dasharray:none;stroke-opacity:1.0000000"
       d="M 381.69900,176.17200 C 377.22200,170.44000 360.95300,155.22900 359.94800,157.41800 C 357.55500,158.58400 373.43000,174.66400 378.36200,179.19200 C 378.91300,179.68800 382.37400,177.02000 381.70000,176.17200 L 381.69900,176.17200 z "
       id="path214" />
    <path
       style="fill:#ffd600;stroke:#9e8500;stroke-width:0.40000001;stroke-miterlimit:4.0000000;stroke-dasharray:none;stroke-opacity:1.0000000"
       d="M 375.53400,183.51200 C 369.13900,179.86700 348.11200,171.82000 348.04400,174.21700 C 346.29100,176.18000 367.29600,185.17200 373.63700,187.53500 C 374.34200,187.79100 376.49000,184.04500 375.53300,183.51200"
       id="path216" />
    <path
       style="fill:none;stroke:#9e8500;stroke-width:0.40000001;stroke-linejoin:round;stroke-miterlimit:4.0000000;stroke-dasharray:none;stroke-opacity:1.0000000"
       d="M 375.53400,183.51200 C 369.13900,179.86700 348.11200,171.82000 348.04400,174.21700 C 346.29200,176.18000 367.29700,185.17400 373.63800,187.53700 C 374.34300,187.79300 376.49200,184.04700 375.53500,183.51200 L 375.53400,183.51200 z "
       id="path218" />
    <path
       style="fill:#ffd600;stroke:#9e8500;stroke-width:0.40000001;stroke-miterlimit:4.0000000;stroke-dasharray:none;stroke-opacity:1.0000000"
       d="M 399.58100,170.77400 C 400.54300,163.64500 399.97100,141.74400 397.66900,142.61900 C 395.12000,141.82400 394.78300,164.07400 395.01700,170.65400 C 395.05000,171.38300 399.44700,171.83600 399.58100,170.77400"
       id="path220" />
    <path
       style="fill:none;stroke:#9e8500;stroke-width:0.40000001;stroke-linejoin:round;stroke-miterlimit:4.0000000;stroke-dasharray:none;stroke-opacity:1.0000000"
       d="M 399.58300,170.77400 C 400.54500,163.64500 399.97300,141.74400 397.67000,142.61900 C 395.12100,141.82400 394.78500,164.07600 395.01900,170.65400 C 395.05100,171.38300 399.44900,171.83600 399.58300,170.77400 z "
       id="path222" />
    <path
       style="fill:#ffd600;stroke:#9e8500;stroke-width:0.40000001;stroke-miterlimit:4.0000000;stroke-dasharray:none;stroke-opacity:1.0000000"
       d="M 421.68800,187.28700 C 428.24300,184.85900 431.35800,187.51800 434.88800,186.33200 C 438.28700,185.18800 446.71000,180.21500 450.37000,184.00000 C 450.51400,187.01000 445.72600,183.48100 436.86100,189.50000 C 432.70900,192.28900 430.08000,188.77000 421.93400,191.71100 C 421.23800,191.98400 420.65600,187.67200 421.68800,187.28900"
       id="path224" />
    <path
       style="fill:none;stroke:#9e8500;stroke-width:0.40000001;stroke-linejoin:round;stroke-miterlimit:4.0000000;stroke-dasharray:none;stroke-opacity:1.0000000"
       d="M 421.68900,187.28700 C 428.24300,184.86100 431.35900,187.52000 434.88900,186.33200 C 438.28800,185.18800 446.71100,180.21500 450.37200,184.00000 C 450.51500,187.01000 445.72800,183.48100 436.86300,189.50000 C 432.71100,192.29100 430.08200,188.77000 421.93600,191.71100 C 421.23900,191.98400 420.65700,187.67200 421.69000,187.28700 L 421.68900,187.28700 z "
       id="path226" />
    <path
       style="fill:#ffd600;stroke:#9e8500;stroke-width:0.40000001;stroke-miterlimit:4.0000000;stroke-dasharray:none;stroke-opacity:1.0000000"
       d="M 419.66300,182.84200 C 426.09900,180.13300 426.40800,176.12100 429.78800,174.57800 C 433.04300,173.09400 442.65300,170.94000 442.53700,165.75400 C 440.46800,163.50600 439.59300,169.27200 428.91300,170.97900 C 423.93000,171.79700 424.59300,176.09600 416.64700,179.51400 C 415.95100,179.78900 418.64900,183.26800 419.66300,182.84000"
       id="path228" />
    <path
       style="fill:none;stroke:#9e8500;stroke-width:0.40000001;stroke-linejoin:round;stroke-miterlimit:4.0000000;stroke-dasharray:none;stroke-opacity:1.0000000"
       d="M 419.66200,182.84000 C 426.09800,180.13300 426.40700,176.12100 429.78700,174.57800 C 433.04100,173.09200 442.65100,170.93800 442.53500,165.75200 C 440.46700,163.50400 439.59100,169.27200 428.91100,170.97900 C 423.93000,171.79700 424.59200,176.09400 416.64600,179.51400 C 415.95100,179.78900 418.64800,183.26800 419.66200,182.84200 L 419.66200,182.84000 z "
       id="path230" />
    <path
       style="fill:#ffd600;stroke:#9e8500;stroke-width:0.40000001;stroke-miterlimit:4.0000000;stroke-dasharray:none;stroke-opacity:1.0000000"
       d="M 409.55900,172.89300 C 412.35700,166.65600 416.49600,166.35900 418.09100,163.08600 C 419.62600,159.93200 421.85400,150.62100 427.20600,150.73400 C 429.52400,152.74000 423.57300,153.58600 421.80700,163.93600 C 420.95900,168.76400 416.52400,168.11700 412.99300,175.81700 C 412.70700,176.49000 409.12000,173.87500 409.56000,172.89100"
       id="path232" />
    <path
       style="fill:none;stroke:#9e8500;stroke-width:0.40000001;stroke-linejoin:round;stroke-miterlimit:4.0000000;stroke-dasharray:none;stroke-opacity:1.0000000"
       d="M 409.55900,172.89300 C 412.35700,166.65600 416.49500,166.35900 418.09000,163.08400 C 419.62500,159.93200 421.85300,150.62100 427.20500,150.73600 C 429.52300,152.74200 423.57200,153.58600 421.80500,163.93600 C 420.95800,168.76400 416.52300,168.11900 412.99100,175.81700 C 412.70600,176.49000 409.11800,173.87500 409.55800,172.89300 L 409.55900,172.89300 z "
       id="path234" />
    <path
       style="fill:#ffd600;stroke:#9e8500;stroke-width:0.40000001;stroke-miterlimit:4.0000000;stroke-dasharray:none;stroke-opacity:1.0000000"
       d="M 404.76300,171.12700 C 407.30500,164.78900 404.58000,161.75600 405.82600,158.34200 C 407.02600,155.05500 412.20600,146.92200 408.32100,143.35200 C 405.21700,143.19500 408.83100,147.85600 402.56900,156.41000 C 399.66500,160.41800 403.28300,162.98600 400.20100,170.86300 C 399.91400,171.53700 404.36300,172.12500 404.76400,171.12700"
       id="path236" />
    <path
       style="fill:none;stroke:#9e8500;stroke-width:0.40000001;stroke-linejoin:round;stroke-miterlimit:4.0000000;stroke-dasharray:none;stroke-opacity:1.0000000"
       d="M 404.76100,171.12900 C 407.30200,164.79100 404.57900,161.75600 405.82400,158.34200 C 407.02300,155.05700 412.20400,146.92200 408.31900,143.35400 C 405.21500,143.19700 408.82800,147.85800 402.56600,156.41200 C 399.66300,160.42000 403.28100,162.98600 400.19800,170.86300 C 399.91200,171.53700 404.36100,172.12500 404.76100,171.12700 L 404.76100,171.12900 z "
       id="path238" />
    <path
       style="fill:#ffd600;stroke:#9e8500;stroke-width:0.40000001;stroke-miterlimit:4.0000000;stroke-dasharray:none;stroke-opacity:1.0000000"
       d="M 421.13200,187.38700 C 428.26300,185.40400 448.76800,176.17800 447.02200,174.47900 C 446.76100,171.89700 425.56300,180.45500 419.42800,183.28100 C 418.75100,183.60200 420.07200,187.69200 421.13200,187.38700"
       id="path240" />
    <path
       style="fill:none;stroke:#9e8500;stroke-width:0.40000001;stroke-linejoin:round;stroke-miterlimit:4.0000000;stroke-dasharray:none;stroke-opacity:1.0000000"
       d="M 421.13200,187.38700 C 428.26300,185.40400 448.76700,176.17800 447.02200,174.47900 C 446.76000,171.89500 425.56300,180.45500 419.42800,183.28100 C 418.75100,183.60000 420.07200,187.69000 421.13200,187.38700 z "
       id="path242" />
    <path
       style="fill:#ffd600;stroke:#9e8500;stroke-width:0.40000001;stroke-miterlimit:4.0000000;stroke-dasharray:none;stroke-opacity:1.0000000"
       d="M 416.29200,179.04300 C 422.20700,174.70500 437.90500,158.94000 435.64500,157.96500 C 434.44100,155.64700 417.84800,171.03100 413.17600,175.81100 C 412.66300,176.34400 415.41600,179.69700 416.29200,179.04300"
       id="path244" />
    <path
       style="fill:none;stroke:#9e8500;stroke-width:0.40000001;stroke-linejoin:round;stroke-miterlimit:4.0000000;stroke-dasharray:none;stroke-opacity:1.0000000"
       d="M 416.29200,179.04300 C 422.20700,174.70500 437.90500,158.94000 435.64500,157.96500 C 434.44100,155.64700 417.84800,171.03100 413.17600,175.81100 C 412.66400,176.34400 415.41600,179.69700 416.29200,179.04500 L 416.29200,179.04300 z "
       id="path246" />
    <path
       style="fill:#ffd600;stroke:#9e8500;stroke-width:0.40000001;stroke-miterlimit:4.0000000;stroke-dasharray:none;stroke-opacity:1.0000000"
       d="M 408.72000,173.06800 C 412.48000,166.87300 420.78500,146.49400 418.31200,146.43000 C 416.28600,144.73300 407.00500,165.08800 404.56700,171.23100 C 404.30300,171.91400 408.16800,173.99600 408.72000,173.06800"
       id="path248" />
    <path
       style="fill:none;stroke:#9e8500;stroke-width:0.40000001;stroke-linejoin:round;stroke-miterlimit:4.0000000;stroke-dasharray:none;stroke-opacity:1.0000000"
       d="M 408.71900,173.06800 C 412.47900,166.87100 420.78400,146.49400 418.31100,146.43000 C 416.28600,144.73100 407.00400,165.08600 404.56600,171.23100 C 404.30200,171.91400 408.16700,173.99600 408.71900,173.06800 z "
       id="path250" />
    <path
       style="fill:#ffd600;stroke:#9e8500;stroke-width:0.40000001;stroke-miterlimit:4.0000000;stroke-dasharray:none;stroke-opacity:1.0000000"
       d="M 419.66300,182.84200 C 426.09900,180.13300 426.40800,176.12100 429.78800,174.57800 C 433.04300,173.09400 442.65300,170.94000 442.53700,165.75400 C 440.46800,163.50600 439.59300,169.27200 428.91300,170.97900 C 423.93000,171.79700 424.59300,176.09600 416.64700,179.51400 C 415.95100,179.78900 418.64900,183.26800 419.66300,182.84000"
       id="path252" />
    <path
       style="fill:none;stroke:#9e8500;stroke-width:0.40000001;stroke-linejoin:round;stroke-miterlimit:4.0000000;stroke-dasharray:none;stroke-opacity:1.0000000"
       d="M 419.66200,182.84000 C 426.09800,180.13300 426.40700,176.12100 429.78700,174.57800 C 433.04100,173.09200 442.65100,170.93800 442.53500,165.75200 C 440.46700,163.50400 439.59100,169.27200 428.91100,170.97900 C 423.93000,171.79700 424.59200,176.09400 416.64600,179.51400 C 415.95100,179.78900 418.64800,183.26800 419.66200,182.84200 L 419.66200,182.84000 z "
       id="path254" />
    <path
       style="fill:#ffd600;stroke:#9e8500;stroke-width:0.40000001;stroke-miterlimit:4.0000000;stroke-dasharray:none;stroke-opacity:1.0000000"
       d="M 409.55900,172.89300 C 412.35700,166.65600 416.49600,166.35900 418.09100,163.08600 C 419.62600,159.93200 421.85400,150.62100 427.20600,150.73400 C 429.52400,152.74000 423.57300,153.58600 421.80700,163.93600 C 420.95900,168.76400 416.52400,168.11700 412.99300,175.81700 C 412.70700,176.49000 409.12000,173.87500 409.56000,172.89100"
       id="path256" />
    <path
       style="fill:none;stroke:#9e8500;stroke-width:0.40000001;stroke-linejoin:round;stroke-miterlimit:4.0000000;stroke-dasharray:none;stroke-opacity:1.0000000"
       d="M 409.55900,172.89300 C 412.35700,166.65600 416.49500,166.35900 418.09000,163.08400 C 419.62500,159.93200 421.85300,150.62100 427.20500,150.73600 C 429.52300,152.74200 423.57200,153.58600 421.80500,163.93600 C 420.95800,168.76400 416.52300,168.11900 412.99100,175.81700 C 412.70600,176.49000 409.11800,173.87500 409.55800,172.89300 L 409.55900,172.89300 z "
       id="path258" />
    <path
       style="fill:#ffd600;stroke:#9e8500;stroke-width:0.40000001;stroke-miterlimit:4.0000000;stroke-dasharray:none;stroke-opacity:1.0000000"
       d="M 404.76300,171.12700 C 407.30500,164.78900 404.58000,161.75600 405.82600,158.34200 C 407.02600,155.05500 412.20600,146.92200 408.32100,143.35200 C 405.21700,143.19500 408.83100,147.85600 402.56900,156.41000 C 399.66500,160.41800 403.28300,162.98600 400.20100,170.86300 C 399.91400,171.53700 404.36300,172.12500 404.76400,171.12700"
       id="path260" />
    <path
       style="fill:none;stroke:#9e8500;stroke-width:0.40000001;stroke-linejoin:round;stroke-miterlimit:4.0000000;stroke-dasharray:none;stroke-opacity:1.0000000"
       d="M 404.76100,171.12900 C 407.30200,164.79100 404.57900,161.75600 405.82400,158.34200 C 407.02300,155.05700 412.20400,146.92200 408.31900,143.35400 C 405.21500,143.19700 408.82800,147.85800 402.56600,156.41200 C 399.66300,160.42000 403.28100,162.98600 400.19800,170.86300 C 399.91200,171.53700 404.36100,172.12500 404.76100,171.12700 L 404.76100,171.12900 z "
       id="path262" />
    <path
       style="fill:#ffd600;stroke:#9e8500;stroke-width:0.40000001;stroke-miterlimit:4.0000000;stroke-dasharray:none;stroke-opacity:1.0000000"
       d="M 421.13200,187.38700 C 428.26300,185.40400 448.76800,176.17800 447.02200,174.47900 C 446.76100,171.89700 425.56300,180.45500 419.42800,183.28100 C 418.75100,183.60200 420.07200,187.69200 421.13200,187.38700"
       id="path264" />
    <path
       style="fill:none;stroke:#9e8500;stroke-width:0.40000001;stroke-linejoin:round;stroke-miterlimit:4.0000000;stroke-dasharray:none;stroke-opacity:1.0000000"
       d="M 421.13200,187.38700 C 428.26300,185.40400 448.76700,176.17800 447.02200,174.47900 C 446.76000,171.89500 425.56300,180.45500 419.42800,183.28100 C 418.75100,183.60000 420.07200,187.69000 421.13200,187.38700 z "
       id="path266" />
    <path
       style="fill:#ffd600;stroke:#9e8500;stroke-width:0.40000001;stroke-miterlimit:4.0000000;stroke-dasharray:none;stroke-opacity:1.0000000"
       d="M 416.29200,179.04300 C 422.20700,174.70500 437.90500,158.94000 435.64500,157.96500 C 434.44100,155.64700 417.84800,171.03100 413.17600,175.81100 C 412.66300,176.34400 415.41600,179.69700 416.29200,179.04300"
       id="path268" />
    <path
       style="fill:none;stroke:#9e8500;stroke-width:0.40000001;stroke-linejoin:round;stroke-miterlimit:4.0000000;stroke-dasharray:none;stroke-opacity:1.0000000"
       d="M 416.29200,179.04300 C 422.20700,174.70500 437.90500,158.94000 435.64500,157.96500 C 434.44100,155.64700 417.84800,171.03100 413.17600,175.81100 C 412.66400,176.34400 415.41600,179.69700 416.29200,179.04500 L 416.29200,179.04300 z "
       id="path270" />
    <path
       style="fill:#ffd600;stroke:#9e8500;stroke-width:0.40000001;stroke-miterlimit:4.0000000;stroke-dasharray:none;stroke-opacity:1.0000000"
       d="M 408.72000,173.06800 C 412.48000,166.87300 420.78500,146.49400 418.31200,146.43000 C 416.28600,144.73300 407.00500,165.08800 404.56700,171.23100 C 404.30300,171.91400 408.16800,173.99600 408.72000,173.06800"
       id="path272" />
    <path
       style="fill:none;stroke:#9e8500;stroke-width:0.40000001;stroke-linejoin:round;stroke-miterlimit:4.0000000;stroke-dasharray:none;stroke-opacity:1.0000000"
       d="M 408.71900,173.06800 C 412.47900,166.87100 420.78400,146.49400 418.31100,146.43000 C 416.28600,144.73100 407.00400,165.08600 404.56600,171.23100 C 404.30200,171.91400 408.16700,173.99600 408.71900,173.06800 z "
       id="path274" />
    <path
       style="fill:none;stroke:#9e8500;stroke-width:0.40000001;stroke-miterlimit:4.0000000;stroke-dasharray:none;stroke-opacity:1.0000000"
       d="M 381.13300,184.24200 L 379.14900,184.24200"
       id="path276" />
    <path
       style="fill:none;stroke:#9e8500;stroke-width:0.40000001;stroke-miterlimit:4.0000000;stroke-dasharray:none;stroke-opacity:1.0000000"
       d="M 380.63700,185.47900 L 378.65300,185.47900"
       id="path278" />
    <path
       style="fill:none;stroke:#9e8500;stroke-width:0.40000001;stroke-miterlimit:4.0000000;stroke-dasharray:none;stroke-opacity:1.0000000"
       d="M 380.42300,186.64500 L 378.22600,186.64500"
       id="path280" />
    <path
       style="fill:none;stroke:#9e8500;stroke-width:0.40000001;stroke-miterlimit:4.0000000;stroke-dasharray:none;stroke-opacity:1.0000000"
       d="M 379.78300,187.74400 L 377.58600,187.74400"
       id="path282" />
    <path
       style="fill:none;stroke:#9e8500;stroke-width:0.40000001;stroke-miterlimit:4.0000000;stroke-dasharray:none;stroke-opacity:1.0000000"
       d="M 379.64400,188.91000 L 377.02300,188.91000"
       id="path284" />
    <path
       style="fill:none;stroke:#9e8500;stroke-width:0.40000001;stroke-miterlimit:4.0000000;stroke-dasharray:none;stroke-opacity:1.0000000"
       d="M 379.71500,190.07800 L 376.81000,190.07800"
       id="path286" />
    <path
       style="fill:none;stroke:#9e8500;stroke-width:0.40000001;stroke-miterlimit:4.0000000;stroke-dasharray:none;stroke-opacity:1.0000000"
       d="M 379.28800,191.38300 L 376.52500,191.38300"
       id="path288" />
    <path
       style="fill:none;stroke:#9e8500;stroke-width:0.40000001;stroke-miterlimit:4.0000000;stroke-dasharray:none;stroke-opacity:1.0000000"
       d="M 379.43000,192.68800 L 376.73700,192.68800"
       id="path290" />
    <path
       style="fill:none;stroke:#9e8500;stroke-width:0.40000001;stroke-miterlimit:4.0000000;stroke-dasharray:none;stroke-opacity:1.0000000"
       d="M 379.43000,193.92400 L 376.66700,193.92400"
       id="path292" />
    <path
       style="fill:none;stroke:#9e8500;stroke-width:0.40000001;stroke-miterlimit:4.0000000;stroke-dasharray:none;stroke-opacity:1.0000000"
       d="M 380.14000,195.36500 L 376.66800,195.36500"
       id="path294" />
    <path
       style="fill:none;stroke:#9e8500;stroke-width:0.40000001;stroke-miterlimit:4.0000000;stroke-dasharray:none;stroke-opacity:1.0000000"
       d="M 379.85700,197.01400 L 376.88200,197.01400"
       id="path296" />
    <path
       style="fill:none;stroke:#9e8500;stroke-width:0.40000001;stroke-miterlimit:4.0000000;stroke-dasharray:none;stroke-opacity:1.0000000"
       d="M 379.92700,198.18000 L 376.95200,198.18000"
       id="path298" />
    <path
       style="fill:none;stroke:#9e8500;stroke-width:0.40000001;stroke-miterlimit:4.0000000;stroke-dasharray:none;stroke-opacity:1.0000000"
       d="M 380.42300,199.76000 L 377.44800,199.76000"
       id="path300" />
    <path
       style="fill:none;stroke:#9e8500;stroke-width:0.40000001;stroke-miterlimit:4.0000000;stroke-dasharray:none;stroke-opacity:1.0000000"
       d="M 380.49500,201.13300 L 377.52000,201.13300"
       id="path302" />
    <path
       style="fill:none;stroke:#9e8500;stroke-width:0.40000001;stroke-miterlimit:4.0000000;stroke-dasharray:none;stroke-opacity:1.0000000"
       d="M 381.34500,202.64300 L 378.37000,202.64300"
       id="path304" />
    <path
       style="fill:none;stroke:#9e8500;stroke-width:0.40000001;stroke-miterlimit:4.0000000;stroke-dasharray:none;stroke-opacity:1.0000000"
       d="M 382.19500,203.87900 L 379.21900,203.87900"
       id="path306" />
    <path
       style="fill:none;stroke:#9e8500;stroke-width:0.40000001;stroke-miterlimit:4.0000000;stroke-dasharray:none;stroke-opacity:1.0000000"
       d="M 382.97500,205.32000 L 379.99900,205.32000"
       id="path308" />
    <path
       style="fill:none;stroke:#9e8500;stroke-width:0.40000001;stroke-miterlimit:4.0000000;stroke-dasharray:none;stroke-opacity:1.0000000"
       d="M 383.89600,206.69500 L 380.92000,206.69500"
       id="path310" />
    <path
       style="fill:none;stroke:#9e8500;stroke-width:0.40000001;stroke-miterlimit:4.0000000;stroke-dasharray:none;stroke-opacity:1.0000000"
       d="M 384.53400,208.00000 L 381.55800,208.00000"
       id="path312" />
    <path
       style="fill:none;stroke:#9e8500;stroke-width:0.40000001;stroke-miterlimit:4.0000000;stroke-dasharray:none;stroke-opacity:1.0000000"
       d="M 385.88000,209.57800 L 382.90500,209.57800"
       id="path314" />
    <path
       style="fill:none;stroke:#9e8500;stroke-width:0.40000001;stroke-miterlimit:4.0000000;stroke-dasharray:none;stroke-opacity:1.0000000"
       d="M 386.44500,211.02000 L 384.53200,211.02000"
       id="path316" />
    <path
       style="fill:none;stroke:#9e8500;stroke-width:0.40000001;stroke-miterlimit:4.0000000;stroke-dasharray:none;stroke-opacity:1.0000000"
       d="M 379.92700,198.18000 L 376.95200,198.18000"
       id="path318" />
    <path
       style="fill:none;stroke:#9e8500;stroke-width:0.40000001;stroke-miterlimit:4.0000000;stroke-dasharray:none;stroke-opacity:1.0000000"
       d="M 380.42300,199.76000 L 377.44800,199.76000"
       id="path320" />
    <path
       style="fill:none;stroke:#9e8500;stroke-width:0.40000001;stroke-miterlimit:4.0000000;stroke-dasharray:none;stroke-opacity:1.0000000"
       d="M 380.49500,201.13300 L 377.52000,201.13300"
       id="path322" />
    <path
       style="fill:none;stroke:#9e8500;stroke-width:0.40000001;stroke-miterlimit:4.0000000;stroke-dasharray:none;stroke-opacity:1.0000000"
       d="M 381.34500,202.64300 L 378.37000,202.64300"
       id="path324" />
    <path
       style="fill:none;stroke:#9e8500;stroke-width:0.40000001;stroke-miterlimit:4.0000000;stroke-dasharray:none;stroke-opacity:1.0000000"
       d="M 382.19500,203.87900 L 379.21900,203.87900"
       id="path326" />
    <path
       style="fill:none;stroke:#9e8500;stroke-width:0.40000001;stroke-miterlimit:4.0000000;stroke-dasharray:none;stroke-opacity:1.0000000"
       d="M 382.97500,205.32000 L 379.99900,205.32000"
       id="path328" />
    <path
       style="fill:none;stroke:#9e8500;stroke-width:0.40000001;stroke-miterlimit:4.0000000;stroke-dasharray:none;stroke-opacity:1.0000000"
       d="M 383.89600,206.69500 L 380.92000,206.69500"
       id="path330" />
    <path
       style="fill:none;stroke:#9e8500;stroke-width:0.40000001;stroke-miterlimit:4.0000000;stroke-dasharray:none;stroke-opacity:1.0000000"
       d="M 384.53400,208.00000 L 381.55800,208.00000"
       id="path332" />
    <path
       style="fill:none;stroke:#9e8500;stroke-width:0.40000001;stroke-miterlimit:4.0000000;stroke-dasharray:none;stroke-opacity:1.0000000"
       d="M 385.88000,209.57800 L 382.90500,209.57800"
       id="path334" />
    <path
       style="fill:none;stroke:#9e8500;stroke-width:0.40000001;stroke-miterlimit:4.0000000;stroke-dasharray:none;stroke-opacity:1.0000000"
       d="M 386.75300,210.90100 L 384.84000,210.90100"
       id="path336" />
    <path
       style="fill:#3c7c9d;stroke:#9e8500;stroke-width:0.40000001;stroke-miterlimit:4.0000000;stroke-dasharray:none;stroke-opacity:1.0000000"
       d="M 413.96900,183.92800 L 415.95300,183.92800"
       id="path338" />
    <path
       style="fill:none;stroke:#9e8500;stroke-width:0.40000001;stroke-miterlimit:4.0000000;stroke-dasharray:none;stroke-opacity:1.0000000"
       d="M 413.97100,183.92600 L 415.95400,183.92600"
       id="path340" />
    <path
       style="fill:#3c7c9d;stroke:#9e8500;stroke-width:0.40000001;stroke-miterlimit:4.0000000;stroke-dasharray:none;stroke-opacity:1.0000000"
       d="M 414.46500,185.16200 L 416.44900,185.16200"
       id="path342" />
    <path
       style="fill:none;stroke:#9e8500;stroke-width:0.40000001;stroke-miterlimit:4.0000000;stroke-dasharray:none;stroke-opacity:1.0000000"
       d="M 414.46800,185.16200 L 416.45100,185.16200"
       id="path344" />
    <path
       style="fill:#3c7c9d;stroke:#9e8500;stroke-width:0.40000001;stroke-miterlimit:4.0000000;stroke-dasharray:none;stroke-opacity:1.0000000"
       d="M 414.67800,186.33000 L 416.87500,186.33000"
       id="path346" />
    <path
       style="fill:none;stroke:#9e8500;stroke-width:0.40000001;stroke-miterlimit:4.0000000;stroke-dasharray:none;stroke-opacity:1.0000000"
       d="M 414.67800,186.33000 L 416.87500,186.33000"
       id="path348" />
    <path
       style="fill:#3c7c9d;stroke:#9e8500;stroke-width:0.40000001;stroke-miterlimit:4.0000000;stroke-dasharray:none;stroke-opacity:1.0000000"
       d="M 415.31600,187.43000 L 417.51300,187.43000"
       id="path350" />
    <path
       style="fill:none;stroke:#9e8500;stroke-width:0.40000001;stroke-miterlimit:4.0000000;stroke-dasharray:none;stroke-opacity:1.0000000"
       d="M 415.31400,187.42800 L 417.51100,187.42800"
       id="path352" />
    <path
       style="fill:#3c7c9d;stroke:#9e8500;stroke-width:0.40000001;stroke-miterlimit:4.0000000;stroke-dasharray:none;stroke-opacity:1.0000000"
       d="M 415.45700,188.59600 L 418.07900,188.59600"
       id="path354" />
    <path
       style="fill:none;stroke:#9e8500;stroke-width:0.40000001;stroke-miterlimit:4.0000000;stroke-dasharray:none;stroke-opacity:1.0000000"
       d="M 415.45800,188.59600 L 418.08000,188.59600"
       id="path356" />
    <path
       style="fill:#3c7c9d;stroke:#9e8500;stroke-width:0.40000001;stroke-miterlimit:4.0000000;stroke-dasharray:none;stroke-opacity:1.0000000"
       d="M 415.38600,189.76400 L 418.29100,189.76400"
       id="path358" />
    <path
       style="fill:none;stroke:#9e8500;stroke-width:0.40000001;stroke-miterlimit:4.0000000;stroke-dasharray:none;stroke-opacity:1.0000000"
       d="M 415.38600,189.76400 L 418.29200,189.76400"
       id="path360" />
    <path
       style="fill:#3c7c9d;stroke:#9e8500;stroke-width:0.40000001;stroke-miterlimit:4.0000000;stroke-dasharray:none;stroke-opacity:1.0000000"
       d="M 415.81100,191.06800 L 418.57400,191.06800"
       id="path362" />
    <path
       style="fill:none;stroke:#9e8500;stroke-width:0.40000001;stroke-miterlimit:4.0000000;stroke-dasharray:none;stroke-opacity:1.0000000"
       d="M 415.81000,191.06800 L 418.57300,191.06800"
       id="path364" />
    <path
       style="fill:#3c7c9d;stroke:#9e8500;stroke-width:0.40000001;stroke-miterlimit:4.0000000;stroke-dasharray:none;stroke-opacity:1.0000000"
       d="M 415.67000,192.37100 L 418.36300,192.37100"
       id="path366" />
    <path
       style="fill:none;stroke:#9e8500;stroke-width:0.40000001;stroke-miterlimit:4.0000000;stroke-dasharray:none;stroke-opacity:1.0000000"
       d="M 415.66900,192.37100 L 418.36200,192.37100"
       id="path368" />
    <path
       style="fill:#3c7c9d;stroke:#9e8500;stroke-width:0.40000001;stroke-miterlimit:4.0000000;stroke-dasharray:none;stroke-opacity:1.0000000"
       d="M 415.67000,193.60800 L 418.43300,193.60800"
       id="path370" />
    <path
       style="fill:none;stroke:#9e8500;stroke-width:0.40000001;stroke-miterlimit:4.0000000;stroke-dasharray:none;stroke-opacity:1.0000000"
       d="M 415.66900,193.60800 L 418.43200,193.60800"
       id="path372" />
    <path
       style="fill:#3c7c9d;stroke:#9e8500;stroke-width:0.40000001;stroke-miterlimit:4.0000000;stroke-dasharray:none;stroke-opacity:1.0000000"
       d="M 414.96100,195.05100 L 418.43300,195.05100"
       id="path374" />
    <path
       style="fill:none;stroke:#9e8500;stroke-width:0.40000001;stroke-miterlimit:4.0000000;stroke-dasharray:none;stroke-opacity:1.0000000"
       d="M 414.96100,195.04900 L 418.43200,195.04900"
       id="path376" />
    <path
       style="fill:#3c7c9d;stroke:#9e8500;stroke-width:0.40000001;stroke-miterlimit:4.0000000;stroke-dasharray:none;stroke-opacity:1.0000000"
       d="M 415.24500,196.69700 L 418.22100,196.69700"
       id="path378" />
    <path
       style="fill:none;stroke:#9e8500;stroke-width:0.40000001;stroke-miterlimit:4.0000000;stroke-dasharray:none;stroke-opacity:1.0000000"
       d="M 415.24600,196.69700 L 418.22200,196.69700"
       id="path380" />
    <path
       style="fill:#3c7c9d;stroke:#9e8500;stroke-width:0.40000001;stroke-miterlimit:4.0000000;stroke-dasharray:none;stroke-opacity:1.0000000"
       d="M 415.17400,197.86500 L 418.15000,197.86500"
       id="path382" />
    <path
       style="fill:none;stroke:#9e8500;stroke-width:0.40000001;stroke-miterlimit:4.0000000;stroke-dasharray:none;stroke-opacity:1.0000000"
       d="M 415.17600,197.86500 L 418.15100,197.86500"
       id="path384" />
    <path
       style="fill:#3c7c9d;stroke:#9e8500;stroke-width:0.40000001;stroke-miterlimit:4.0000000;stroke-dasharray:none;stroke-opacity:1.0000000"
       d="M 414.67800,199.44300 L 417.65400,199.44300"
       id="path386" />
    <path
       style="fill:none;stroke:#9e8500;stroke-width:0.40000001;stroke-miterlimit:4.0000000;stroke-dasharray:none;stroke-opacity:1.0000000"
       d="M 414.67900,199.44300 L 417.65400,199.44300"
       id="path388" />
    <path
       style="fill:#3c7c9d;stroke:#9e8500;stroke-width:0.40000001;stroke-miterlimit:4.0000000;stroke-dasharray:none;stroke-opacity:1.0000000"
       d="M 414.60700,200.81700 L 417.58300,200.81700"
       id="path390" />
    <path
       style="fill:none;stroke:#9e8500;stroke-width:0.40000001;stroke-miterlimit:4.0000000;stroke-dasharray:none;stroke-opacity:1.0000000"
       d="M 414.60800,200.81700 L 417.58400,200.81700"
       id="path392" />
    <path
       style="fill:#3c7c9d;stroke:#9e8500;stroke-width:0.40000001;stroke-miterlimit:4.0000000;stroke-dasharray:none;stroke-opacity:1.0000000"
       d="M 413.75700,202.32800 L 416.73300,202.32800"
       id="path394" />
    <path
       style="fill:none;stroke:#9e8500;stroke-width:0.40000001;stroke-miterlimit:4.0000000;stroke-dasharray:none;stroke-opacity:1.0000000"
       d="M 413.75800,202.32800 L 416.73300,202.32800"
       id="path396" />
    <path
       style="fill:#3c7c9d;stroke:#9e8500;stroke-width:0.40000001;stroke-miterlimit:4.0000000;stroke-dasharray:none;stroke-opacity:1.0000000"
       d="M 412.90600,203.56500 L 415.88200,203.56500"
       id="path398" />
    <path
       style="fill:none;stroke:#9e8500;stroke-width:0.40000001;stroke-miterlimit:4.0000000;stroke-dasharray:none;stroke-opacity:1.0000000"
       d="M 412.90800,203.56500 L 415.88400,203.56500"
       id="path400" />
    <path
       style="fill:#3c7c9d;stroke:#9e8500;stroke-width:0.40000001;stroke-miterlimit:4.0000000;stroke-dasharray:none;stroke-opacity:1.0000000"
       d="M 412.12700,205.00600 L 415.10300,205.00600"
       id="path402" />
    <path
       style="fill:none;stroke:#9e8500;stroke-width:0.40000001;stroke-miterlimit:4.0000000;stroke-dasharray:none;stroke-opacity:1.0000000"
       d="M 412.12800,205.00600 L 415.10400,205.00600"
       id="path404" />
    <path
       style="fill:#3c7c9d;stroke:#9e8500;stroke-width:0.40000001;stroke-miterlimit:4.0000000;stroke-dasharray:none;stroke-opacity:1.0000000"
       d="M 411.20600,206.37900 L 414.18200,206.37900"
       id="path406" />
    <path
       style="fill:none;stroke:#9e8500;stroke-width:0.40000001;stroke-miterlimit:4.0000000;stroke-dasharray:none;stroke-opacity:1.0000000"
       d="M 411.20700,206.37900 L 414.18300,206.37900"
       id="path408" />
    <path
       style="fill:#3c7c9d;stroke:#9e8500;stroke-width:0.40000001;stroke-miterlimit:4.0000000;stroke-dasharray:none;stroke-opacity:1.0000000"
       d="M 410.56800,207.68400 L 413.54400,207.68400"
       id="path410" />
    <path
       style="fill:none;stroke:#9e8500;stroke-width:0.40000001;stroke-miterlimit:4.0000000;stroke-dasharray:none;stroke-opacity:1.0000000"
       d="M 410.56900,207.68400 L 413.54500,207.68400"
       id="path412" />
    <path
       style="fill:#3c7c9d;stroke:#9e8500;stroke-width:0.40000001;stroke-miterlimit:4.0000000;stroke-dasharray:none;stroke-opacity:1.0000000"
       d="M 409.22200,209.26400 L 412.19800,209.26400"
       id="path414" />
    <path
       style="fill:none;stroke:#9e8500;stroke-width:0.40000001;stroke-miterlimit:4.0000000;stroke-dasharray:none;stroke-opacity:1.0000000"
       d="M 409.22300,209.26400 L 412.19900,209.26400"
       id="path416" />
    <path
       style="fill:#3c7c9d;stroke:#9e8500;stroke-width:0.40000001;stroke-miterlimit:4.0000000;stroke-dasharray:none;stroke-opacity:1.0000000"
       d="M 408.65500,210.70500 L 410.56800,210.70500"
       id="path418" />
    <path
       style="fill:none;stroke:#9e8500;stroke-width:0.40000001;stroke-miterlimit:4.0000000;stroke-dasharray:none;stroke-opacity:1.0000000"
       d="M 408.65500,210.70500 L 410.56800,210.70500"
       id="path420" />
    <path
       style="fill:none;stroke:#9e8500;stroke-width:0.40000001;stroke-miterlimit:4.0000000;stroke-dasharray:none;stroke-opacity:1.0000000"
       d="M 415.17600,197.86500 L 418.15100,197.86500"
       id="path422" />
    <path
       style="fill:none;stroke:#9e8500;stroke-width:0.40000001;stroke-miterlimit:4.0000000;stroke-dasharray:none;stroke-opacity:1.0000000"
       d="M 414.67900,199.44300 L 417.65400,199.44300"
       id="path424" />
    <path
       style="fill:none;stroke:#9e8500;stroke-width:0.40000001;stroke-miterlimit:4.0000000;stroke-dasharray:none;stroke-opacity:1.0000000"
       d="M 414.60800,200.81700 L 417.58400,200.81700"
       id="path426" />
    <path
       style="fill:none;stroke:#9e8500;stroke-width:0.40000001;stroke-miterlimit:4.0000000;stroke-dasharray:none;stroke-opacity:1.0000000"
       d="M 413.75800,202.32800 L 416.73300,202.32800"
       id="path428" />
    <path
       style="fill:none;stroke:#9e8500;stroke-width:0.40000001;stroke-miterlimit:4.0000000;stroke-dasharray:none;stroke-opacity:1.0000000"
       d="M 412.90800,203.56500 L 415.88400,203.56500"
       id="path430" />
    <path
       style="fill:none;stroke:#9e8500;stroke-width:0.40000001;stroke-miterlimit:4.0000000;stroke-dasharray:none;stroke-opacity:1.0000000"
       d="M 412.12800,205.00600 L 415.10400,205.00600"
       id="path432" />
    <path
       style="fill:none;stroke:#9e8500;stroke-width:0.40000001;stroke-miterlimit:4.0000000;stroke-dasharray:none;stroke-opacity:1.0000000"
       d="M 411.20700,206.37900 L 414.18300,206.37900"
       id="path434" />
    <path
       style="fill:none;stroke:#9e8500;stroke-width:0.40000001;stroke-miterlimit:4.0000000;stroke-dasharray:none;stroke-opacity:1.0000000"
       d="M 410.56900,207.68400 L 413.54500,207.68400"
       id="path436" />
    <path
       style="fill:none;stroke:#9e8500;stroke-width:0.40000001;stroke-miterlimit:4.0000000;stroke-dasharray:none;stroke-opacity:1.0000000"
       d="M 409.22300,209.26400 L 412.19900,209.26400"
       id="path438" />
    <path
       style="fill:none;stroke:#9e8500;stroke-width:0.40000001;stroke-miterlimit:4.0000000;stroke-dasharray:none;stroke-opacity:1.0000000"
       d="M 408.65500,210.70500 L 410.56800,210.70500"
       id="path440" />
    <path
       style="fill:#efc10e;stroke:#9e8500;stroke-width:0.40000001;stroke-miterlimit:4.0000000;stroke-dasharray:none;stroke-opacity:1.0000000"
       d="M 412.56400,189.27000 C 407.82600,186.32200 401.56800,187.85900 398.94500,189.46100 C 402.78000,188.75600 402.84600,188.43600 405.62200,188.37100 C 407.58300,188.43800 410.47000,188.24400 412.56300,189.27000"
       id="path442" />
    <path
       style="fill:none;stroke:#9e8500;stroke-width:0.40000001;stroke-linejoin:round;stroke-miterlimit:4.0000000;stroke-dasharray:none;stroke-opacity:1.0000000"
       d="M 412.56500,189.27000 C 407.82700,186.32200 401.56900,187.85900 398.94600,189.46100 C 402.78100,188.75600 402.84600,188.43800 405.62400,188.37100 C 407.58500,188.43600 410.47100,188.24400 412.56500,189.26800 L 412.56500,189.27000 z "
       id="path444" />
    <path
       style="fill:none;stroke:#9e8500;stroke-width:0.40000001;stroke-miterlimit:4.0000000;stroke-dasharray:none;stroke-opacity:1.0000000"
       d="M 409.78800,188.79100 C 407.47400,193.46900 403.44200,193.53100 400.59900,188.53500"
       id="path446" />
    <path
       style="fill:#000000;stroke:#9e8500;stroke-width:0.40000001;stroke-miterlimit:4.0000000;stroke-dasharray:none;stroke-opacity:1.0000000"
       d="M 408.54300,190.26200 C 407.83500,190.97900 406.09900,191.40600 404.66900,191.21500 C 403.23900,191.02400 402.65300,190.28500 403.36200,189.56700 C 404.07000,188.85000 405.80600,188.42200 407.23600,188.61300 C 408.66600,188.80500 409.25200,189.54300 408.54300,190.26200"
       id="path448" />
    <path
       style="fill:#ffd600;stroke:#9e8500;stroke-width:0.40000001;stroke-miterlimit:4.0000000;stroke-dasharray:none;stroke-opacity:1.0000000"
       d="M 405.15500,189.26600 C 405.22600,189.44000 405.00700,189.67200 404.66700,189.78300 C 404.32700,189.89300 403.99400,189.84200 403.92300,189.66800 C 403.85200,189.49200 404.07100,189.26000 404.41100,189.15100 C 404.75100,189.03900 405.08400,189.09000 405.15500,189.26600"
       id="path450" />
  </g>
</svg>
