<?xml version="1.0" encoding="UTF-8" standalone="no"?>
<!-- Created with Sodipodi ("http://www.sodipodi.com/") -->
<svg
   xmlns:dc="http://purl.org/dc/elements/1.1/"
   xmlns:cc="http://web.resource.org/cc/"
   xmlns:rdf="http://www.w3.org/1999/02/22-rdf-syntax-ns#"
   xmlns:svg="http://www.w3.org/2000/svg"
   xmlns="http://www.w3.org/2000/svg"
   xmlns:sodipodi="http://inkscape.sourceforge.net/DTD/sodipodi-0.dtd"
   xmlns:inkscape="http://www.inkscape.org/namespaces/inkscape"
   height="140mm"
   id="svg1689"
   sodipodi:docbase="flags/src"
   sodipodi:docname="egypt.svg"
   sodipodi:version="0.32"
   width="210mm"
   inkscape:version="0.43">
  <defs
     id="defs1691" />
  <sodipodi:namedview
     gridspacingx="1mm"
     gridspacingy="1mm"
     id="base"
     showgrid="false"
     snaptogrid="true"
     showguides="true"
     inkscape:guide-bbox="true"
     inkscape:zoom="1.0662272"
     inkscape:cx="366.02116"
     inkscape:cy="230.05016"
     inkscape:window-width="1306"
     inkscape:window-height="948"
     inkscape:window-x="360"
     inkscape:window-y="130"
     inkscape:current-layer="svg1689" />
  <metadata
     id="metadata2419">
    <rdf:RDF>
      <cc:Work
         rdf:about="">
        <dc:title> egypt</dc:title>
        <dc:description />
        <dc:subject>
          <rdf:Bag>
            <rdf:li>flags</rdf:li>
            <rdf:li>africa</rdf:li>
            <rdf:li>sign</rdf:li>
            <rdf:li>signs_and_symbols</rdf:li>
            <rdf:li />
            <rdf:li>united_nations_member</rdf:li>
          </rdf:Bag>
        </dc:subject>
        <dc:publisher>
          <cc:Agent
             rdf:about="http://www.openclipart.org">
            <dc:title> Caleb Moore</dc:title>
          </cc:Agent>
        </dc:publisher>
        <dc:creator>
          <cc:Agent
             rdf:about="">
            <dc:title> Caleb Moore</dc:title>
          </cc:Agent>
        </dc:creator>
        <dc:rights>
          <cc:Agent
             rdf:about="">
            <dc:title> Caleb Moore</dc:title>
          </cc:Agent>
        </dc:rights>
        <dc:date />
        <dc:format>image/svg+xml</dc:format>
        <dc:type
           rdf:resource="http://purl.org/dc/dcmitype/StillImage" />
        <cc:license
           rdf:resource="http://web.resource.org/cc/PublicDomain">
          <dc:date />
        </cc:license>
        <dc:language>en</dc:language>
      </cc:Work>
      <cc:License
         rdf:about="http://web.resource.org/cc/PublicDomain">
        <cc:permits
           rdf:resource="http://web.resource.org/cc/Reproduction" />
        <cc:permits
           rdf:resource="http://web.resource.org/cc/Distribution" />
        <cc:permits
           rdf:resource="http://web.resource.org/cc/DerivativeWorks" />
      </cc:License>
    </rdf:RDF>
  </metadata>
  <g
     id="g2618">
    <rect
       height="166.53545"
       id="rect1801"
       style="font-size:12px;fill:#ffffff;fill-rule:evenodd;stroke-width:1pt"
       width="744.09448"
       x="6.5652046"
       y="168.61938" />
    <rect
       height="166.53545"
       id="rect1800"
       style="font-size:12px;fill-rule:evenodd;stroke-width:1pt"
       width="744.09454"
       x="0"
       y="329.52744" />
    <rect
       height="162.99214"
       id="rect1802"
       style="font-size:12px;fill:#ff0000;fill-rule:evenodd;stroke-width:1pt"
       width="744.09448"
       x="0"
       y="-5.7000001e-05" />
    <g
       id="g827"
       transform="translate(23.21154,409.2175)">
      <path
         d="M 322.441,-322.441 L 329.528,-322.441 L 333.278,-262.205 L 325.984,-255.118 L 318.898,-262.205 L 322.441,-322.441 z "
         id="path725"
         sodipodi:nodetypes="cccccc"
         style="font-size:12px;fill:#b77f00;fill-rule:evenodd;stroke:#ffffff;stroke-width:1pt"
         transform="matrix(0.605846,-3.20379e-2,5.719647e-2,0.758729,164.0516,95.20659)" />
      <path
         d="M 322.441,-322.441 L 329.528,-322.441 L 333.278,-262.205 L 325.984,-255.118 L 318.898,-262.205 L 322.441,-322.441 z "
         id="path726"
         sodipodi:nodetypes="cccccc"
         style="font-size:12px;fill:#b77f00;fill-rule:evenodd;stroke:#ffffff;stroke-width:1pt"
         transform="matrix(0.606424,2.312396e-2,-4.128265e-2,0.759454,123.8816,77.44898)" />
      <g
         id="g720"
         style="font-size:12px"
         transform="matrix(1.266666,0,0,1.030736,-115.191,8.205971)">
        <path
           d="M 177.165,255.118 L 159.449,698.032 L 194.882,662.598 L 212.598,255.118 L 177.165,255.118 z "
           id="path1700"
           sodipodi:nodetypes="ccccc"
           style="font-size:12px;fill:#b77f00;fill-opacity:1;fill-rule:evenodd;stroke:#ffffff;stroke-width:4.82444;stroke-opacity:1"
           transform="matrix(-0.210526,0,0,0.184182,442.7267,-252.5807)" />
        <path
           d="M 177.165,290.551 L 159.448,698.032 L 194.881,662.598 L 212.598,290.551 L 177.165,290.551 z "
           id="path1701"
           sodipodi:nodetypes="ccccc"
           style="font-size:12px;fill:#b77f00;fill-opacity:1;fill-rule:evenodd;stroke:#ffffff;stroke-width:4.82444;stroke-opacity:1"
           transform="matrix(-0.210526,0,0,0.184182,435.2671,-259.1068)" />
        <path
           d="M 177.166,325.984 L 159.448,698.032 L 194.881,662.598 L 212.599,325.984 L 177.166,325.984 z "
           id="path1702"
           sodipodi:nodetypes="ccccc"
           style="font-size:12px;fill:#b77f00;fill-opacity:1;fill-rule:evenodd;stroke:#ffffff;stroke-width:4.82444;stroke-opacity:1"
           transform="matrix(-0.210526,0,0,0.184182,427.8076,-265.6329)" />
        <path
           d="M 177.165,361.417 L 159.448,698.032 L 194.881,662.598 L 212.598,361.417 L 177.165,361.417 z "
           id="path1703"
           sodipodi:nodetypes="ccccc"
           style="font-size:12px;fill:#b77f00;fill-opacity:1;fill-rule:evenodd;stroke:#ffffff;stroke-width:4.82444;stroke-opacity:1"
           transform="matrix(-0.210526,0,0,0.184182,420.348,-272.1591)" />
      </g>
      <g
         id="g715"
         style="font-size:12px"
         transform="matrix(1.127293,0,0,1.030735,-62.20917,8.148102)">
        <path
           d="M 177.165,255.118 L 159.449,698.032 L 194.882,662.598 L 212.598,255.118 L 177.165,255.118 z "
           id="path1696"
           sodipodi:nodetypes="ccccc"
           style="font-size:12px;fill:#b77f00;fill-opacity:1;fill-rule:evenodd;stroke:#ffffff;stroke-width:4.82444;stroke-opacity:1"
           transform="matrix(0.210526,0,0,0.184182,269.1654,-252.5807)" />
        <path
           d="M 177.165,290.551 L 159.448,698.032 L 194.881,662.598 L 212.598,290.551 L 177.165,290.551 z "
           id="path1697"
           sodipodi:nodetypes="ccccc"
           style="font-size:12px;fill:#b77f00;fill-opacity:1;fill-rule:evenodd;stroke:#ffffff;stroke-width:4.82444;stroke-opacity:1"
           transform="matrix(0.210526,0,0,0.184182,276.6251,-259.1068)" />
        <path
           d="M 177.166,325.984 L 159.449,698.032 L 194.882,662.598 L 212.599,325.984 L 177.166,325.984 z "
           id="path1698"
           sodipodi:nodetypes="ccccc"
           style="font-size:12px;fill:#b77f00;fill-opacity:1;fill-rule:evenodd;stroke:#ffffff;stroke-width:4.82444;stroke-opacity:1"
           transform="matrix(0.210526,0,0,0.184182,284.0845,-265.633)" />
        <path
           d="M 177.165,361.417 L 159.449,698.033 L 194.882,662.599 L 212.598,361.417 L 177.165,361.417 z "
           id="path1699"
           sodipodi:nodetypes="ccccc"
           style="font-size:12px;fill:#b77f00;fill-opacity:1;fill-rule:evenodd;stroke:#ffffff;stroke-width:4.82444;stroke-opacity:1"
           transform="matrix(0.210526,0,0,0.184182,291.8568,-271.3014)" />
      </g>
      <path
         d="M 181.732,256.048 C 180.728,254.736 201.579,237.402 237.012,237.402 C 290.162,237.402 298.319,256.048 333.753,256.048 C 369.186,256.048 450.341,256.048 485.774,256.048 C 521.207,256.048 531.497,237.402 584.646,237.402 C 620.079,237.402 636.814,255.695 637.795,256.048 C 637.795,256.048 620.079,255.118 584.646,255.118 C 549.213,255.118 535.346,294.158 499.594,293.34 C 472.806,294.158 355.366,293.34 319.932,293.34 C 284.499,293.34 272.446,256.048 237.012,256.048 C 201.579,256.048 180.728,254.736 181.732,256.048 z "
         id="path1704"
         sodipodi:nodetypes="ccccccccccc"
         style="font-size:12px;fill:#ffffff;fill-rule:evenodd;stroke:#b77f00;stroke-width:4.82444"
         transform="matrix(0.256388,0,0,0.190031,236.0099,-252.3627)" />
      <path
         d="M 400.394,-109.842 L 400.394,-106.299 L 403.937,-102.756 L 400.394,-99.2126 L 400.394,-95.6693 C 386.22,-88.5826 371.545,-88.5826 357.874,-88.5826 C 344.204,-88.5826 329.528,-88.5826 311.811,-95.6693 L 311.811,-99.2126 L 308.268,-102.756 L 311.811,-106.299 L 311.811,-109.842 C 325.984,-106.299 340.158,-102.756 357.874,-102.756 C 375.591,-102.756 386.221,-106.299 400.394,-109.842 z "
         id="path709"
         sodipodi:nodetypes="ccccccccccccc"
         style="font-size:12px;fill:#ffffff;fill-rule:evenodd;stroke:#b77f00;stroke-width:1pt"
         transform="matrix(1.323131,0,0,1.203745,-129.9094,19.85426)" />
      <g
         id="g695"
         style="font-size:12px"
         transform="matrix(-1.062733,0.284558,0.304927,0.99174,760.8218,-100.2936)">
        <rect
           height="40.130047"
           id="rect696"
           rx="2.394664"
           ry="4.5047727"
           style="font-size:12px;fill:#ffffff;fill-opacity:1;fill-rule:evenodd;stroke:#b77f00;stroke-width:0.62344497;stroke-opacity:1"
           transform="matrix(-0.563962,-0.825801,-0.888399,0.459072,0,0)"
           width="4.7893281"
           x="-73.159378"
           y="-406.53253" />
        <g
           id="g697"
           style="font-size:12px;fill:#ffffff;fill-opacity:1;stroke:#b77f00;stroke-width:4.71280003;stroke-opacity:1"
           transform="matrix(-0.100453,3.769187e-2,9.413487e-2,0.22662,362.0181,-256.8519)">
          <path
             d="M 318.898,574.016 L 336.614,591.732 L 354.331,574.016 L 372.047,591.732 L 389.764,574.016 L 407.48,591.732 C 412.737,582.306 414.572,568.844 407.368,555.213 C 371.183,541.395 338.544,542.57 300.189,556.401 C 297.102,567.432 297.214,580.329 300.189,591.834 L 318.898,574.016 z "
             id="path698"
             sodipodi:nodetypes="cccccccccc"
             style="fill:#ffffff;fill-opacity:1;fill-rule:evenodd;stroke:#b77f00;stroke-width:4.71280003;stroke-linecap:butt;stroke-linejoin:miter;stroke-dasharray:none;stroke-opacity:1"
             transform="matrix(1.376273,0.175475,-0.141509,1.706629,-97.8857,-514.1425)" />
          <path
             d="M 318.898,574.016 L 336.614,591.732 L 354.331,574.016 L 372.047,591.732 L 389.764,574.016 L 407.48,591.732 C 412.737,582.306 414.572,568.844 407.368,555.213 C 371.183,541.395 338.544,542.57 300.189,556.401 C 297.102,567.432 297.214,580.329 300.189,591.834 L 318.898,574.016 z "
             id="path699"
             sodipodi:nodetypes="cccccccccc"
             style="fill:#ffffff;fill-opacity:1;fill-rule:evenodd;stroke:#b77f00;stroke-width:4.71280003;stroke-linecap:butt;stroke-linejoin:miter;stroke-dasharray:none;stroke-opacity:1"
             transform="matrix(1.376273,0.175475,-0.141509,1.706629,-95.12674,-545.9706)" />
          <path
             d="M 318.898,574.016 L 336.614,591.732 L 354.331,574.016 L 372.047,591.732 L 389.764,574.016 L 407.48,591.732 C 412.737,582.306 414.572,568.844 407.368,555.213 C 371.183,541.395 338.544,542.57 300.189,556.401 C 297.102,567.432 297.214,580.329 300.189,591.834 L 318.898,574.016 z "
             id="path700"
             sodipodi:nodetypes="cccccccccc"
             style="fill:#ffffff;fill-opacity:1;fill-rule:evenodd;stroke:#b77f00;stroke-width:4.71280003;stroke-linecap:butt;stroke-linejoin:miter;stroke-dasharray:none;stroke-opacity:1"
             transform="matrix(1.376273,0.175475,-0.141509,1.706629,-92.36777,-577.7986)" />
          <path
             d="M 318.898,574.016 L 336.614,591.732 L 354.331,574.016 L 372.047,591.732 L 389.764,574.016 L 407.48,591.732 C 412.737,582.306 414.572,568.844 407.368,555.213 C 371.183,541.395 338.544,542.57 300.189,556.401 C 297.102,567.432 297.214,580.329 300.189,591.834 L 318.898,574.016 z "
             id="path701"
             sodipodi:nodetypes="cccccccccc"
             style="fill:#ffffff;fill-opacity:1;fill-rule:evenodd;stroke:#b77f00;stroke-width:4.71280003;stroke-linecap:butt;stroke-linejoin:miter;stroke-dasharray:none;stroke-opacity:1"
             transform="matrix(1.376273,0.175475,-0.141509,1.706629,-88.22936,-617.1158)" />
          <path
             d="M 318.898,574.016 L 336.614,591.732 L 354.331,574.016 L 372.047,591.732 L 389.764,574.016 L 407.48,591.732 C 412.737,582.306 414.572,568.844 407.368,555.213 C 371.183,541.395 338.544,542.57 300.189,556.401 C 297.102,567.432 297.214,580.329 300.189,591.834 L 318.898,574.016 z "
             id="path702"
             sodipodi:nodetypes="cccccccccc"
             style="fill:#ffffff;fill-opacity:1;fill-rule:evenodd;stroke:#b77f00;stroke-width:4.71280003;stroke-linecap:butt;stroke-linejoin:miter;stroke-dasharray:none;stroke-opacity:1"
             transform="matrix(1.376273,0.175475,-0.141509,1.706629,-85.47041,-648.9438)" />
          <path
             d="M 318.898,574.016 L 336.614,591.732 L 354.331,574.016 L 372.047,591.732 L 389.764,574.016 L 407.48,591.732 C 412.737,582.306 414.572,568.844 407.368,555.213 C 371.183,541.395 338.544,542.57 300.189,556.401 C 297.102,567.432 297.214,580.329 300.189,591.834 L 318.898,574.016 z "
             id="path703"
             sodipodi:nodetypes="cccccccccc"
             style="fill:#ffffff;fill-opacity:1;fill-rule:evenodd;stroke:#b77f00;stroke-width:4.71280003;stroke-linecap:butt;stroke-linejoin:miter;stroke-dasharray:none;stroke-opacity:1"
             transform="matrix(1.376273,0.175475,-0.141509,1.706629,-82.71143,-680.772)" />
        </g>
        <path
           d="M 345.62503 -96.12455 A 2.5 5.9375 0 1 1  340.62503,-96.12455 A 2.5 5.9375 0 1 1  345.62503 -96.12455 z"
           id="path704"
           sodipodi:cx="343.12503"
           sodipodi:cy="-96.12455"
           sodipodi:rx="2.5"
           sodipodi:ry="5.9375"
           sodipodi:type="arc"
           style="fill:#ffffff;fill-opacity:1;fill-rule:evenodd;stroke:#b77f00;stroke-width:1pt;stroke-linecap:butt;stroke-linejoin:miter;stroke-opacity:1"
           transform="matrix(0.497996,-0.385055,0.290965,0.659035,228.0313,87.15948)" />
        <path
           d="M 345.62503 -96.12455 A 2.5 5.9375 0 1 1  340.62503,-96.12455 A 2.5 5.9375 0 1 1  345.62503 -96.12455 z"
           id="path705"
           sodipodi:cx="343.12503"
           sodipodi:cy="-96.12455"
           sodipodi:rx="2.5"
           sodipodi:ry="5.9375"
           sodipodi:type="arc"
           style="fill:#ffffff;fill-opacity:1;fill-rule:evenodd;stroke:#b77f00;stroke-width:1pt;stroke-linecap:butt;stroke-linejoin:miter;stroke-opacity:1"
           transform="matrix(0.497996,-0.429838,0.290965,0.735681,242.0938,102.8618)" />
        <path
           d="M 345.62503 -96.12455 A 2.5 5.9375 0 1 1  340.62503,-96.12455 A 2.5 5.9375 0 1 1  345.62503 -96.12455 z"
           id="path706"
           sodipodi:cx="343.12503"
           sodipodi:cy="-96.12455"
           sodipodi:rx="2.5"
           sodipodi:ry="5.9375"
           sodipodi:type="arc"
           style="fill:#ffffff;fill-opacity:1;fill-rule:evenodd;stroke:#b77f00;stroke-width:1pt;stroke-linecap:butt;stroke-linejoin:miter;stroke-opacity:1"
           transform="matrix(0.534539,-0.41491,0.312316,0.710132,245.2011,88.25274)" />
      </g>
      <path
         d="M 268.291,261.844 C 268.291,261.844 301.181,219.685 301.181,166.535 C 301.181,166.536 372.047,166.536 372.047,166.535 C 372.047,219.685 406.355,261.844 407.481,255.119 C 389.764,255.119 354.331,237.402 336.615,201.969 C 318.899,237.403 286.007,261.844 268.291,261.844 z "
         id="path1751"
         sodipodi:nodetypes="cccccc"
         style="font-size:12px;fill:#ffffff;fill-rule:evenodd;stroke:#b77f00;stroke-width:4.82444"
         transform="matrix(0.30797,0,0,0.190031,235.4112,-246.3776)" />
      <path
         d="M 253.459,240.407 C 253.459,240.407 301.398,181.681 301.398,128.532 C 301.398,91.2395 301.398,89.3806 301.398,53.9475 C 301.398,36.2309 325.368,35.3019 337.353,35.3019 C 355.07,35.3019 373.307,36.2309 373.307,53.9475 C 373.307,89.3806 373.307,99.7814 373.307,128.532 C 373.307,181.681 421.247,240.407 421.247,240.407 C 385.814,240.407 367.054,201.256 349.338,165.823 C 349.338,183.54 354.331,219.685 336.614,237.402 C 318.898,219.685 325.368,183.54 325.368,165.823 C 307.651,201.256 288.893,240.407 253.459,240.407 z "
         id="path1750"
         sodipodi:nodetypes="ccccccccccc"
         style="font-size:12px;fill:#ffffff;fill-rule:evenodd;stroke:#b77f00;stroke-width:4.82444"
         transform="matrix(0.295648,0,0,0.190031,239.5589,-245.8472)" />
      <path
         d="M 283.116,77.9526 C 283.116,77.9526 336.265,77.9526 336.265,77.9526 C 336.265,95.6691 336.265,113.386 318.549,113.386 C 300.832,113.386 283.116,95.6691 283.116,77.9526 z "
         id="path1756"
         sodipodi:nodetypes="ccsc"
         style="font-size:12px;fill:#ffffff;fill-rule:evenodd;stroke:#b77f00;stroke-width:5.90871"
         transform="matrix(0.242291,7.746248e-2,-5.39426e-2,0.118358,258.1111,-271.5446)" />
      <path
         d="M 183.965,42.5197 C 195.776,42.5197 195.776,60.2362 195.776,77.9528 C 178.06,77.9528 166.248,60.2362 148.532,77.9528 C 148.532,58.3938 148.532,42.5197 166.248,42.5197 C 183.965,42.5197 166.249,42.5197 183.965,42.5197 z "
         id="path1754"
         sodipodi:nodetypes="ccccc"
         style="font-size:12px;fill:#ffffff;fill-rule:evenodd;stroke:#b77f00;stroke-width:4.82444"
         transform="matrix(0.363435,0.116193,-5.39426e-2,0.118358,267.4771,-266.1476)" />
      <path
         d="M 336.6142 69.094437 A 8.8582764 8.8582611 0 1 1  318.89764,69.094437 A 8.8582764 8.8582611 0 1 1  336.6142 69.094437 z"
         id="path1757"
         sodipodi:cx="327.75592"
         sodipodi:cy="69.094437"
         sodipodi:rx="8.8582764"
         sodipodi:ry="8.8582611"
         sodipodi:type="arc"
         style="font-size:12px;fill:#ffffff;fill-rule:evenodd;stroke:#b77f00;stroke-width:4.82444"
         transform="matrix(0.242291,7.746248e-2,-8.091389e-2,0.177536,263.9437,-273.7637)" />
      <path
         d="M 322.441,-322.441 L 329.528,-322.441 L 333.278,-262.205 L 325.984,-255.118 L 318.898,-262.205 L 322.441,-322.441 z "
         id="path710"
         sodipodi:nodetypes="cccccc"
         style="font-size:12px;fill:#b77f00;fill-rule:evenodd;stroke:#ffffff;stroke-width:1pt"
         transform="matrix(0.607052,0,0,0.76024,141.1257,85.23917)" />
      <g
         id="g683"
         style="font-size:12px"
         transform="matrix(1.15895,0.30317,-0.355856,0.987359,-126.7418,-108.6385)">
        <rect
           height="40.130047"
           id="rect1764"
           rx="2.394664"
           ry="4.5047727"
           style="font-size:12px;fill:#ffffff;fill-opacity:1;fill-rule:evenodd;stroke:#b77f00;stroke-width:0.62344497;stroke-opacity:1"
           transform="matrix(-0.563962,-0.825801,-0.888399,0.459072,0,0)"
           width="4.7893281"
           x="-73.159378"
           y="-406.53253" />
        <g
           id="g673"
           style="font-size:12px;fill:#ffffff;fill-opacity:1;stroke:#b77f00;stroke-width:4.71280003;stroke-opacity:1"
           transform="matrix(-0.100453,3.769187e-2,9.413487e-2,0.22662,362.0181,-256.8519)">
          <path
             d="M 318.898,574.016 L 336.614,591.732 L 354.331,574.016 L 372.047,591.732 L 389.764,574.016 L 407.48,591.732 C 412.737,582.306 414.572,568.844 407.368,555.213 C 371.183,541.395 338.544,542.57 300.189,556.401 C 297.102,567.432 297.214,580.329 300.189,591.834 L 318.898,574.016 z "
             id="path674"
             sodipodi:nodetypes="cccccccccc"
             style="fill:#ffffff;fill-opacity:1;fill-rule:evenodd;stroke:#b77f00;stroke-width:4.71280003;stroke-linecap:butt;stroke-linejoin:miter;stroke-dasharray:none;stroke-opacity:1"
             transform="matrix(1.376273,0.175475,-0.141509,1.706629,-97.8857,-514.1425)" />
          <path
             d="M 318.898,574.016 L 336.614,591.732 L 354.331,574.016 L 372.047,591.732 L 389.764,574.016 L 407.48,591.732 C 412.737,582.306 414.572,568.844 407.368,555.213 C 371.183,541.395 338.544,542.57 300.189,556.401 C 297.102,567.432 297.214,580.329 300.189,591.834 L 318.898,574.016 z "
             id="path675"
             sodipodi:nodetypes="cccccccccc"
             style="fill:#ffffff;fill-opacity:1;fill-rule:evenodd;stroke:#b77f00;stroke-width:4.71280003;stroke-linecap:butt;stroke-linejoin:miter;stroke-dasharray:none;stroke-opacity:1"
             transform="matrix(1.376273,0.175475,-0.141509,1.706629,-95.12674,-545.9706)" />
          <path
             d="M 318.898,574.016 L 336.614,591.732 L 354.331,574.016 L 372.047,591.732 L 389.764,574.016 L 407.48,591.732 C 412.737,582.306 414.572,568.844 407.368,555.213 C 371.183,541.395 338.544,542.57 300.189,556.401 C 297.102,567.432 297.214,580.329 300.189,591.834 L 318.898,574.016 z "
             id="path676"
             sodipodi:nodetypes="cccccccccc"
             style="fill:#ffffff;fill-opacity:1;fill-rule:evenodd;stroke:#b77f00;stroke-width:4.71280003;stroke-linecap:butt;stroke-linejoin:miter;stroke-dasharray:none;stroke-opacity:1"
             transform="matrix(1.376273,0.175475,-0.141509,1.706629,-92.36777,-577.7986)" />
          <path
             d="M 318.898,574.016 L 336.614,591.732 L 354.331,574.016 L 372.047,591.732 L 389.764,574.016 L 407.48,591.732 C 412.737,582.306 414.572,568.844 407.368,555.213 C 371.183,541.395 338.544,542.57 300.189,556.401 C 297.102,567.432 297.214,580.329 300.189,591.834 L 318.898,574.016 z "
             id="path677"
             sodipodi:nodetypes="cccccccccc"
             style="fill:#ffffff;fill-opacity:1;fill-rule:evenodd;stroke:#b77f00;stroke-width:4.71280003;stroke-linecap:butt;stroke-linejoin:miter;stroke-dasharray:none;stroke-opacity:1"
             transform="matrix(1.376273,0.175475,-0.141509,1.706629,-88.22936,-617.1158)" />
          <path
             d="M 318.898,574.016 L 336.614,591.732 L 354.331,574.016 L 372.047,591.732 L 389.764,574.016 L 407.48,591.732 C 412.737,582.306 414.572,568.844 407.368,555.213 C 371.183,541.395 338.544,542.57 300.189,556.401 C 297.102,567.432 297.214,580.329 300.189,591.834 L 318.898,574.016 z "
             id="path678"
             sodipodi:nodetypes="cccccccccc"
             style="fill:#ffffff;fill-opacity:1;fill-rule:evenodd;stroke:#b77f00;stroke-width:4.71280003;stroke-linecap:butt;stroke-linejoin:miter;stroke-dasharray:none;stroke-opacity:1"
             transform="matrix(1.376273,0.175475,-0.141509,1.706629,-85.47041,-648.9438)" />
          <path
             d="M 318.898,574.016 L 336.614,591.732 L 354.331,574.016 L 372.047,591.732 L 389.764,574.016 L 407.48,591.732 C 412.737,582.306 414.572,568.844 407.368,555.213 C 371.183,541.395 338.544,542.57 300.189,556.401 C 297.102,567.432 297.214,580.329 300.189,591.834 L 318.898,574.016 z "
             id="path679"
             sodipodi:nodetypes="cccccccccc"
             style="fill:#ffffff;fill-opacity:1;fill-rule:evenodd;stroke:#b77f00;stroke-width:4.71280003;stroke-linecap:butt;stroke-linejoin:miter;stroke-dasharray:none;stroke-opacity:1"
             transform="matrix(1.376273,0.175475,-0.141509,1.706629,-82.71143,-680.772)" />
        </g>
        <path
           d="M 345.62503 -96.12455 A 2.5 5.9375 0 1 1  340.62503,-96.12455 A 2.5 5.9375 0 1 1  345.62503 -96.12455 z"
           id="path680"
           sodipodi:cx="343.12503"
           sodipodi:cy="-96.12455"
           sodipodi:rx="2.5"
           sodipodi:ry="5.9375"
           sodipodi:type="arc"
           style="fill:#ffffff;fill-opacity:1;fill-rule:evenodd;stroke:#b77f00;stroke-width:1pt;stroke-linecap:butt;stroke-linejoin:miter;stroke-opacity:1"
           transform="matrix(0.497996,-0.385055,0.290965,0.659035,228.0313,87.15948)" />
        <path
           d="M 345.62503 -96.12455 A 2.5 5.9375 0 1 1  340.62503,-96.12455 A 2.5 5.9375 0 1 1  345.62503 -96.12455 z"
           id="path681"
           sodipodi:cx="343.12503"
           sodipodi:cy="-96.12455"
           sodipodi:rx="2.5"
           sodipodi:ry="5.9375"
           sodipodi:type="arc"
           style="fill:#ffffff;fill-opacity:1;fill-rule:evenodd;stroke:#b77f00;stroke-width:1pt;stroke-linecap:butt;stroke-linejoin:miter;stroke-opacity:1"
           transform="matrix(0.497996,-0.429838,0.290965,0.735681,242.0938,102.8618)" />
        <path
           d="M 345.62503 -96.12455 A 2.5 5.9375 0 1 1  340.62503,-96.12455 A 2.5 5.9375 0 1 1  345.62503 -96.12455 z"
           id="path682"
           sodipodi:cx="343.12503"
           sodipodi:cy="-96.12455"
           sodipodi:rx="2.5"
           sodipodi:ry="5.9375"
           sodipodi:type="arc"
           style="fill:#ffffff;fill-opacity:1;fill-rule:evenodd;stroke:#b77f00;stroke-width:1pt;stroke-linecap:butt;stroke-linejoin:miter;stroke-opacity:1"
           transform="matrix(0.534539,-0.41491,0.312316,0.710132,245.2011,88.25274)" />
      </g>
      <g
         id="g711"
         style="font-size:12px"
         transform="matrix(1.170283,0,0,1.031757,-76.89803,9.43129)">
        <path
           d="M 301.181,290.551 C 301.181,485.433 336.614,467.717 407.48,538.583 C 478.346,467.717 513.78,485.433 513.78,290.551 C 478.346,290.551 442.913,290.551 407.48,272.835 C 372.048,290.551 336.614,290.551 301.181,290.551 z "
           id="path1706"
           sodipodi:nodetypes="ccccc"
           style="font-size:12px;fill:#ffffff;fill-opacity:1;fill-rule:evenodd;stroke:#b77f00;stroke-width:4.82444;stroke-opacity:1"
           transform="matrix(0.210526,0,0,0.184182,269.6644,-253.3405)" />
        <path
           d="M 301.181,290.551 C 301.181,485.433 336.614,467.717 407.48,538.583 C 478.346,467.717 513.78,485.433 513.78,290.551 C 478.346,290.551 442.913,290.551 407.48,272.835 C 372.048,290.551 336.614,290.551 301.181,290.551 z "
           id="path707"
           sodipodi:nodetypes="ccccc"
           style="font-size:12px;fill:#b77f00;fill-opacity:1;fill-rule:evenodd;stroke:none;stroke-width:4.82444;stroke-opacity:1"
           transform="matrix(0.195827,0,0,0.168895,275.654,-247.6072)" />
        <path
           d="M 372.047,284.806 L 372.047,506.388 L 407.48,538.583 L 442.913,506.388 L 442.913,284.806 C 430.273,282.362 418.076,277.93 407.535,272.835 C 395.816,278.262 383.876,282.528 372.047,284.806 z "
           id="path1709"
           sodipodi:nodetypes="ccccccc"
           style="font-size:12px;fill:#ffffff;fill-rule:evenodd;stroke:none;stroke-width:4.82444"
           transform="matrix(0.210526,0,0,0.154784,269.7744,-242.1947)" />
      </g>
    </g>
    <g
       transform="translate(-72.58452,-61.30014)"
       id="g2515">
      <path
         id="path152"
         d="M 401.26938,368.213 L 398.88438,368.388 L 397.02938,368.838 L 395.42938,369.558 L 395.89938,370.888 L 396.93438,371.183 L 398.27938,370.438 L 399.62938,369.698 L 400.95438,369.228 L 401.24938,368.193"
         style="fill:#000000;stroke:none" />
      <path
         id="path154"
         d="M 401.26938,368.213 L 398.88438,368.388 L 397.02938,368.838 L 395.42938,369.558 L 395.89938,370.888 L 396.93438,371.183 L 398.27938,370.438 L 399.62938,369.698 L 400.95438,369.228 L 401.24938,368.193 L 401.26938,368.213 z "
         style="fill:none;stroke:#000000;stroke-width:1.48738503;stroke-linecap:round;stroke-linejoin:round" />
      <path
         id="path156"
         d="M 408.29938,371.378 L 407.94938,374.268 L 406.87438,375.008 L 405.85938,374.188 L 405.13438,372.568 L 403.23938,374.073 L 402.16438,374.558 L 400.60438,374.248 L 399.85938,373.173 L 400.42938,371.613 L 401.24938,370.593 L 402.12938,367.998"
         style="fill:none;stroke:#000000;stroke-width:1.48738503;stroke-linecap:round;stroke-linejoin:round" />
      <path
         id="path158"
         d="M 422.06938,371.358 L 421.40438,375.028 L 420.81938,377.118 L 419.74438,377.863 L 418.43438,377.823 L 417.41938,376.728 L 418.06438,373.308 L 418.00438,374.893 L 417.41938,376.728 L 416.07438,377.468 L 414.80438,376.103 L 412.98938,375.518 L 413.45438,377.118 L 412.35938,378.388 L 411.30938,378.348 L 408.94438,378.273 L 407.12938,377.683 L 405.91438,379.148"
         style="fill:none;stroke:#000000;stroke-width:1.48738503;stroke-linecap:round;stroke-linejoin:round" />
      <path
         id="path160"
         d="M 404.66438,376.808 L 403.55438,378.603"
         style="fill:none;stroke:#000000;stroke-width:1.48738503;stroke-linecap:round;stroke-linejoin:round" />
      <path
         id="path162"
         d="M 402.32438,375.928 L 400.91438,378.503"
         style="fill:none;stroke:#000000;stroke-width:1.48738503;stroke-linecap:round;stroke-linejoin:round" />
      <path
         id="path164"
         d="M 424.41438,372.238 L 422.92938,376.943"
         style="fill:none;stroke:#000000;stroke-width:1.48738503;stroke-linecap:round;stroke-linejoin:round" />
      <path
         id="path166"
         d="M 426.87438,379.168 L 428.96438,379.753 L 431.32438,379.833 L 433.18438,379.383 L 432.45938,377.783 L 431.71938,376.433 L 432.51938,375.673 L 433.82438,375.968 L 434.84438,376.788 L 435.83938,378.133 L 435.54438,379.168 L 436.16938,376.278 L 436.98938,375.263 L 438.31938,374.793 L 440.15438,374.853 L 440.36938,375.908 L 439.82438,376.943 L 438.49438,377.413 L 437.18438,377.373 L 436.16938,376.278"
         style="fill:none;stroke:#000000;stroke-width:1.48738503;stroke-linecap:round;stroke-linejoin:round" />
      <path
         id="path168"
         d="M 445.13438,377.218 L 443.49438,378.993 L 441.87438,380.243 L 440.56438,380.203 L 439.27438,379.638"
         style="fill:none;stroke:#000000;stroke-width:1.48738503;stroke-linecap:round;stroke-linejoin:round" />
      <path
         id="path170"
         d="M 452.90938,374.578 L 451.53938,376.103 L 449.95938,376.298 L 448.39938,375.713 L 449.50938,374.168 L 451.38438,373.448 L 452.92938,374.558"
         style="fill:#000000;stroke:none" />
      <path
         id="path172"
         d="M 452.90938,374.598 L 451.53938,376.123 L 449.95938,376.318 L 448.39938,375.753 L 449.50938,374.208 L 451.38438,373.488 L 452.92938,374.598 L 452.90938,374.598 z "
         style="fill:none;stroke:#000000;stroke-width:1.48738503;stroke-linecap:round;stroke-linejoin:round" />
      <path
         id="path174"
         d="M 448.25938,371.513 L 447.14938,373.308 L 448.25938,371.513"
         style="fill:#000000;stroke:none" />
      <path
         id="path176"
         d="M 448.25938,371.513 L 447.14938,373.308 L 448.25938,371.513"
         style="fill:none;stroke:#000000;stroke-width:1.48738503;stroke-linecap:round;stroke-linejoin:round" />
      <path
         id="path178"
         d="M 450.69938,370.008 L 449.84438,371.828 L 450.69938,370.008"
         style="fill:#000000;stroke:none" />
      <path
         id="path180"
         d="M 450.69938,370.008 L 449.84438,371.828 L 450.69938,370.008"
         style="fill:none;stroke:#000000;stroke-width:1.48738503;stroke-linecap:round;stroke-linejoin:round" />
      <path
         id="path182"
         d="M 452.94938,373.523 L 454.27438,373.058 L 455.30938,373.623 L 455.52438,374.678 L 455.21438,375.988 L 455.97438,376.808 L 457.00938,377.098 L 458.10438,376.083 L 458.19938,372.918"
         style="fill:none;stroke:#000000;stroke-width:1.48738503;stroke-linecap:round;stroke-linejoin:round" />
      <path
         id="path184"
         d="M 455.40938,378.663 L 454.54938,380.478"
         style="fill:none;stroke:#000000;stroke-width:1.48738503;stroke-linecap:round;stroke-linejoin:round" />
      <path
         id="path186"
         d="M 457.26438,378.718 L 456.93438,380.828"
         style="fill:none;stroke:#000000;stroke-width:1.48738503;stroke-linecap:round;stroke-linejoin:round" />
      <path
         id="path188"
         d="M 459.11938,378.523 L 460.97438,378.348 L 462.06938,377.333 L 462.88938,376.043 L 463.19938,374.483"
         style="fill:none;stroke:#000000;stroke-width:1.48738503;stroke-linecap:round;stroke-linejoin:round" />
      <path
         id="path190"
         d="M 483.41438,372.783 L 483.12438,373.818 L 482.57438,374.578 L 482.28438,375.363"
         style="fill:none;stroke:#000000;stroke-width:1.48738503;stroke-linecap:round;stroke-linejoin:round" />
      <path
         id="path192"
         d="M 472.04938,372.373 L 470.97438,373.113 L 469.64938,373.328 L 467.24438,374.288 L 465.93438,373.993 L 465.19438,372.648 L 465.77938,371.083 L 467.10938,370.868 L 468.35938,372.488 L 468.04438,374.053 L 466.91438,376.123 L 466.07438,377.668 L 463.94438,378.113"
         style="fill:none;stroke:#000000;stroke-width:1.48738503;stroke-linecap:round;stroke-linejoin:round" />
      <path
         id="path194"
         d="M 437.06938,375.303 L 437.69438,376.358 L 438.60938,376.358 L 439.21938,375.438"
         style="fill:none;stroke:#000000;stroke-width:1.48738503;stroke-linecap:round;stroke-linejoin:round" />
      <path
         id="path196"
         d="M 466.83438,372.958 L 465.91438,372.043 L 467.14938,371.748 L 466.85438,372.978 L 466.83438,372.958 z "
         style="fill:none;stroke:#000000;stroke-width:1.48738503;stroke-linecap:round;stroke-linejoin:round" />
      <path
         id="path198"
         d="M 472.04938,372.373 L 472.73438,372.648 L 472.51938,373.973 L 471.94938,375.263 L 472.14938,376.843 L 473.18438,377.138 L 473.62938,375.713 L 473.62938,374.168 L 474.85938,372.938 L 476.75438,372.528 L 478.35938,372.058 L 479.39438,372.098 L 479.60938,373.428 L 479.80438,375.008 L 478.74938,375.223 L 478.55438,373.643 L 480.50438,370.808 L 481.38438,368.213 L 483.25938,367.488 L 484.82438,367.803 L 485.54438,369.403 L 483.94438,370.128 L 481.83438,370.048 L 482.92938,368.778 L 483.98438,368.798 L 484.80438,367.783"
         style="fill:none;stroke:#000000;stroke-width:1.48738503;stroke-linecap:round;stroke-linejoin:round" />
    </g>
  </g>
</svg>
