<?xml version="1.0" encoding="UTF-8" standalone="no"?>
<!-- Created with Inkscape (http://www.inkscape.org/) -->
<svg
   xmlns:dc="http://purl.org/dc/elements/1.1/"
   xmlns:cc="http://web.resource.org/cc/"
   xmlns:rdf="http://www.w3.org/1999/02/22-rdf-syntax-ns#"
   xmlns:svg="http://www.w3.org/2000/svg"
   xmlns="http://www.w3.org/2000/svg"
   xmlns:sodipodi="http://inkscape.sourceforge.net/DTD/sodipodi-0.dtd"
   xmlns:inkscape="http://www.inkscape.org/namespaces/inkscape"
   height="496.06299"
   id="svg583"
   version="1.0"
   width="744.09448"
   x="0.0000000"
   y="0.0000000"
   sodipodi:version="0.32"
   inkscape:version="0.42"
   sodipodi:docname="lebanon.svg"
   sodipodi:docbase="/usr/share/rmap/flags/src">
  <sodipodi:namedview
     inkscape:window-height="913"
     inkscape:window-width="1425"
     inkscape:pageshadow="2"
     inkscape:pageopacity="0.0"
     borderopacity="1.0"
     bordercolor="#666666"
     pagecolor="#ffffff"
     id="base"
     inkscape:zoom="0.98070099"
     inkscape:cx="372.04724"
     inkscape:cy="248.03149"
     inkscape:window-x="208"
     inkscape:window-y="218"
     inkscape:current-layer="svg583" />
  <defs
     id="defs585" />
  <metadata
     id="metadata29">
    <rdf:RDF>
      <cc:Work
         rdf:about="">
        <dc:title>Lebanon</dc:title>
        <dc:description />
        <dc:subject>
          <rdf:Bag>
            <rdf:li>flags</rdf:li>
            <rdf:li>sign</rdf:li>
            <rdf:li>signs_and_symbols</rdf:li>
            <rdf:li />
            <rdf:li>united_nations_member</rdf:li>
            <rdf:li>asia</rdf:li>
          </rdf:Bag>
        </dc:subject>
        <dc:publisher>
          <cc:Agent
             rdf:about="http://www.openclipart.org">
            <dc:title>Tobias Jakobs</dc:title>
          </cc:Agent>
        </dc:publisher>
        <dc:creator>
          <cc:Agent
             rdf:about="">
            <dc:title>Tobias Jakobs</dc:title>
          </cc:Agent>
        </dc:creator>
        <dc:rights>
          <cc:Agent
             rdf:about="">
            <dc:title>Tobias Jakobs</dc:title>
          </cc:Agent>
        </dc:rights>
        <dc:date />
        <dc:format>image/svg+xml</dc:format>
        <dc:type
           rdf:resource="http://purl.org/dc/dcmitype/StillImage" />
        <cc:license
           rdf:resource="http://web.resource.org/cc/PublicDomain">
          <dc:date />
        </cc:license>
        <dc:language>en</dc:language>
      </cc:Work>
      <cc:License
         rdf:about="http://web.resource.org/cc/PublicDomain">
        <cc:permits
           rdf:resource="http://web.resource.org/cc/Reproduction" />
        <cc:permits
           rdf:resource="http://web.resource.org/cc/Distribution" />
        <cc:permits
           rdf:resource="http://web.resource.org/cc/DerivativeWorks" />
      </cc:License>
    </rdf:RDF>
  </metadata>
  <g
     id="g2123">
    <g
       transform="translate(0.000000,-1.525879e-5)"
       id="g709">
      <rect
         y="372.04724"
         x="0.0000000"
         width="744.09448"
         style="font-size:12.000000;fill:#ff0000;fill-opacity:1.0000000;fill-rule:evenodd;stroke-width:1.0000000pt;"
         id="rect704"
         height="124.01575" />
      <rect
         y="0.0000000"
         x="0.0000000"
         width="744.09448"
         style="font-size:12.000000;fill:#ff0000;fill-opacity:1.0000000;fill-rule:evenodd;stroke-width:1.0000000pt;"
         id="rect707"
         height="124.01575" />
      <rect
         y="124.01578"
         x="0.0000000"
         width="744.09448"
         style="font-size:12.000000;fill:#ffffff;fill-opacity:1.0000000;fill-rule:evenodd;stroke-width:1.0000000pt;"
         id="rect708"
         height="248.03146" />
    </g>
    <path
       id="path1366"
       d="M 367.93002,128.90059 C 364.74874,134.76082 357.54911,141.62560 350.85182,145.14171 C 348.17287,146.48116 343.65214,150.16470 340.80582,153.01098 L 335.78279,158.53636 L 340.30350,157.36433 C 342.64754,156.86207 345.82881,155.85737 347.33566,155.35509 C 348.84257,154.85284 350.01463,155.18770 350.01463,156.19227 C 350.01463,158.03406 335.61529,168.08007 332.93641,168.08007 C 330.59236,168.08007 319.87657,175.44711 319.87657,177.12147 C 319.87657,177.95861 322.05320,178.12610 324.73214,177.62380 C 327.91333,176.95406 330.25744,177.45634 331.59695,178.96325 C 334.10845,181.97708 332.43410,184.82339 328.24825,184.82339 C 322.55550,184.82339 316.02558,188.84184 314.01643,193.69744 C 312.50949,197.21349 309.49570,199.55757 302.46348,202.40395 C 292.41746,206.42235 279.69258,214.45919 279.69258,216.63577 C 279.69258,219.98446 288.73393,219.64957 300.62176,215.79860 C 303.13325,214.96145 304.64015,215.96608 306.98423,219.81704 L 309.99801,225.00747 L 303.63546,232.54196 C 300.11941,236.72786 295.43132,240.57880 293.08725,241.08106 C 290.74319,241.58339 287.39449,242.25312 285.38530,242.58797 C 283.37602,243.09032 277.18101,247.44354 271.48829,252.63397 C 265.79552,257.65703 260.27024,261.84285 259.09823,261.84285 C 257.92621,262.01030 259.26559,263.18232 261.77717,264.52178 C 267.63731,267.70302 272.49291,266.69835 281.70175,260.50333 L 288.39908,256.15010 L 292.41746,260.67088 C 297.94276,267.03327 295.93363,269.87966 281.36688,276.74442 C 274.50208,280.09311 264.95837,286.45555 258.42847,292.31575 C 249.38704,300.68745 246.70813,302.19433 242.68978,301.69198 C 236.99702,300.85483 236.99702,300.85483 240.51309,304.37095 C 241.85257,305.87785 245.36869,307.04987 248.04757,307.04987 C 255.07980,307.04987 277.51588,299.34792 285.05041,294.32494 C 291.74779,289.97170 297.94276,289.30197 303.30067,291.98085 C 305.81217,293.48776 306.14704,294.49240 304.80759,297.00390 C 302.79833,300.85483 289.40371,308.05452 280.19483,310.23116 C 266.80015,313.41234 254.07520,317.09591 253.07065,318.10050 C 250.89399,320.27718 259.09823,323.79325 266.29783,323.79325 C 275.67413,323.79325 287.05958,320.61200 308.82597,311.73804 L 325.40194,304.87329 L 331.09464,308.05452 C 343.81958,314.75182 343.14986,325.30016 329.08545,342.54578 C 320.88119,352.42441 310.50034,358.95429 302.96579,358.95429 C 299.11487,358.95429 286.72476,369.83752 288.56655,371.67922 C 289.23626,372.34896 291.41292,371.34438 293.58954,369.50265 C 299.28218,364.14474 303.97037,362.30298 311.50492,362.30298 C 320.04400,362.30298 327.57854,359.12176 337.62454,351.58721 C 345.82881,345.39219 351.18660,344.22015 356.54451,347.40137 C 358.72116,348.90827 360.89782,348.90827 365.08365,347.56882 C 371.27871,345.39219 373.45532,346.06191 373.45532,350.58259 C 373.45532,352.42441 376.30168,355.27072 380.65492,357.78222 C 384.67336,360.12632 388.85916,363.30755 390.19867,364.64705 C 391.37074,366.15392 392.87760,367.32602 393.71477,367.32602 C 396.05887,367.32602 395.38911,364.47962 392.54274,361.46575 C 388.18946,357.11249 391.70557,355.77305 404.09566,357.11249 C 414.81137,358.28453 416.15082,358.78685 422.34592,365.48420 C 426.86656,370.17232 430.21524,372.34896 432.72679,372.01406 C 434.56854,371.67922 436.24292,370.67464 436.07549,369.83752 C 436.07549,368.83284 429.71298,363.47497 421.84362,357.61480 C 403.92822,344.05270 401.91905,340.53656 401.91905,321.95144 C 401.91905,310.06369 402.42131,307.04987 404.93280,304.87329 C 409.28611,300.85483 413.80683,301.35716 423.18303,306.38014 C 430.88500,310.56597 432.05703,310.56597 449.13525,309.56137 C 466.21350,308.55679 467.55295,308.72429 476.76182,312.91007 C 482.11965,315.25414 489.98908,319.60738 494.34230,322.28632 C 502.21173,327.47682 509.07648,328.14656 510.41597,324.12811 C 511.75537,319.94231 498.52819,310.23116 477.93379,300.18511 C 456.50233,289.63680 455.16288,287.96247 463.03224,282.93950 C 468.55753,279.25593 470.56677,279.59084 480.44537,284.61381 C 487.14270,288.12993 490.15652,288.79962 495.01202,287.79503 L 501.20708,286.79044 L 493.00285,281.26518 C 488.48217,278.25134 481.11508,272.39118 476.42690,268.20531 C 465.71121,258.49421 462.19508,256.81985 453.99087,256.81985 C 450.30729,256.81985 446.95861,256.15010 446.45635,255.31288 C 444.44713,252.13167 450.47471,250.45737 467.72041,249.78765 C 496.85382,248.44817 495.01202,245.76922 458.84638,237.23015 C 450.13987,235.05345 446.28892,233.37915 446.28892,231.70481 C 446.28892,228.85844 450.13987,228.69102 467.72041,230.70020 C 473.91546,231.53739 478.93843,231.36999 478.93843,230.70020 C 478.93843,229.86305 471.73879,225.50980 463.03224,221.15646 C 454.15829,216.63577 443.10769,209.26869 438.08463,204.74797 C 433.22907,200.22728 425.52715,195.03689 421.34130,193.19514 C 416.65319,191.18592 413.63938,189.00925 413.97425,187.66979 C 415.14624,184.65599 424.52254,184.32110 430.21524,187.16751 C 433.06163,188.67438 439.25667,189.84646 444.11229,189.84646 L 452.98623,189.67897 L 444.78195,186.49775 C 440.26132,184.65599 435.07085,181.80961 433.06163,180.13534 C 431.21990,178.29347 427.70384,175.94948 425.69457,174.77735 C 420.00181,171.93101 422.34592,170.75903 432.55940,171.26125 L 441.26593,171.76358 L 432.89419,165.73601 C 420.00181,156.52711 410.12322,151.83906 401.08185,150.49958 C 396.39377,149.82985 390.70092,148.15553 388.35684,146.98346 C 382.99901,144.30453 375.29708,135.59799 372.61815,128.90059 L 370.44151,123.87762 L 367.93002,128.90059 z M 344.99162,173.27050 C 344.99162,175.27970 340.13605,179.63295 337.95941,179.80038 C 337.12224,179.80038 336.61995,177.95861 336.61995,175.61459 C 336.61995,172.26586 337.45713,171.42876 340.80582,171.42876 C 343.14986,171.42876 344.99162,172.26586 344.99162,173.27050 z M 389.86381,178.46095 C 390.36613,180.80505 389.36148,181.47477 385.34308,181.47477 C 380.48749,181.47477 378.47831,178.62839 381.32469,175.78204 C 383.50128,173.60536 389.36148,175.61459 389.86381,178.46095 z M 375.12968,180.47015 C 375.12968,183.81882 374.12504,184.48858 368.09747,185.49317 C 364.07903,186.16286 360.56295,186.83263 360.06062,187.00010 C 359.55834,187.16751 359.05603,186.16286 358.72116,184.65599 C 358.55378,183.14909 360.56295,180.97251 363.74416,179.46556 C 371.78092,175.44711 375.12968,175.61459 375.12968,180.47015 z M 404.93280,180.13534 C 404.26311,185.32570 395.22164,186.83263 395.22164,181.80961 C 395.22164,177.62380 396.56112,176.45178 401.41670,176.45178 C 404.76535,176.45178 405.43510,177.28894 404.93280,180.13534 z M 353.86558,188.00467 C 354.70280,191.18592 350.34947,194.53457 341.14064,198.05064 C 334.77814,200.56215 335.11306,196.54378 341.81041,190.01385 C 347.67053,184.15370 352.52613,183.31658 353.86558,188.00467 z M 391.53812,205.41778 C 392.04038,209.43615 391.53812,209.93845 387.01741,209.93845 C 380.98982,209.93845 380.82244,209.43615 384.84079,204.07828 C 388.35684,199.05524 390.86839,199.55757 391.53812,205.41778 z M 377.64119,203.07367 C 379.31548,205.75258 372.61815,208.26411 367.42768,206.75723 C 362.90700,205.58518 362.73961,205.41778 365.92081,203.57600 C 369.93920,201.23191 376.30168,201.06451 377.64119,203.07367 z M 412.46737,206.42235 C 415.64852,207.76181 416.31828,208.93391 415.64852,212.95222 L 414.97880,217.97526 L 406.60719,215.63121 C 401.91905,214.45919 397.90056,213.11967 397.39829,212.61740 C 396.22632,211.44532 403.25849,204.91544 405.93744,204.91544 C 407.27693,204.91544 410.29070,205.58518 412.46737,206.42235 z M 341.64297,208.26411 C 341.64297,210.44078 333.94102,218.31011 331.93173,218.31011 C 330.42493,218.31011 328.24825,212.78485 328.24825,208.59898 C 328.24825,207.42699 330.75979,206.58981 334.94562,206.58981 C 338.62916,206.58981 341.64297,207.42699 341.64297,208.26411 z M 323.22522,213.62204 L 326.57395,219.14729 L 322.05320,221.15646 C 317.69992,222.99827 317.03019,222.83081 312.84440,217.80785 C 307.15162,211.44532 307.15162,210.44078 312.00718,209.43615 C 319.20686,208.09669 319.87657,208.26411 323.22522,213.62204 z M 431.05240,226.01207 C 434.56854,227.35152 434.56854,233.21173 431.05240,234.55121 C 429.71298,235.05345 426.69916,234.71862 424.35510,233.54655 C 420.83906,232.03970 420.50411,231.20256 422.01105,228.35620 C 423.85287,224.84009 426.53174,224.17031 431.05240,226.01207 z M 367.59517,235.05345 C 368.76718,236.89525 365.58595,241.75079 363.40931,241.75079 C 361.56748,241.75079 359.89323,236.72786 361.06525,234.88609 C 362.23728,232.87685 366.25565,233.04430 367.59517,235.05345 z M 349.00999,239.23928 C 353.86558,242.92285 350.18208,245.93668 345.32648,242.42058 C 343.31729,241.08106 341.64297,239.23928 341.64297,238.23476 C 341.64297,236.05809 345.32648,236.56039 349.00999,239.23928 z M 381.82696,243.42515 C 384.50598,249.78765 382.83162,252.13167 377.64119,249.78765 C 372.61815,247.61099 371.27871,244.26232 373.79017,240.24388 C 376.30168,236.22549 379.31548,237.39756 381.82696,243.42515 z M 391.53812,248.28077 C 392.04038,250.95970 391.37074,251.96424 389.86381,251.46195 C 388.69177,250.95970 387.35232,248.95045 387.18486,246.94128 C 386.68257,244.26232 387.35232,243.25772 388.85916,243.76005 C 390.03124,244.26232 391.37074,246.27151 391.53812,248.28077 z M 323.89503,251.12710 C 330.92714,253.80605 322.55550,259.83366 307.98888,262.51257 C 302.29607,263.51721 301.62641,263.18232 298.44509,257.82440 L 294.92903,251.96424 L 300.28687,251.29448 C 309.49570,250.12254 321.21612,250.12254 323.89503,251.12710 z M 432.72679,266.19612 C 437.08010,267.87045 435.74057,273.06088 430.38267,275.23750 C 425.02485,277.41418 413.63938,276.24213 413.63938,273.39573 C 413.63938,271.38656 423.68538,265.19154 427.36893,265.19154 C 428.87578,265.19154 431.21990,265.69380 432.72679,266.19612 z M 458.17669,272.55857 C 461.35790,275.07012 461.19048,275.07012 457.17211,279.25593 C 453.65600,282.77208 451.98166,283.44177 446.62381,282.43717 C 439.25667,281.26518 438.75440,278.41875 444.78195,273.73063 C 449.97239,269.54481 453.65600,269.37732 458.17669,272.55857 z M 337.95941,278.92106 C 339.13145,280.09311 339.96859,283.44177 339.96859,286.45555 C 339.96859,295.16214 334.77814,293.82267 331.26208,284.44640 C 328.41568,276.91185 328.41568,276.91185 332.09922,276.91185 C 334.27589,276.91185 336.78738,277.74899 337.95941,278.92106 z M 376.63655,281.26518 C 376.97143,281.60005 375.46455,284.11149 373.28790,287.12530 L 369.43694,292.65055 L 367.26026,287.62754 C 363.91161,279.75822 364.41390,278.58622 370.60893,279.75822 C 373.45532,280.26051 376.30168,280.93028 376.63655,281.26518 z M 355.87477,286.79044 C 355.87477,292.81806 352.69359,292.81806 350.51689,286.79044 C 348.67515,282.10229 348.84257,281.76744 352.19130,282.26977 C 354.87020,282.60464 355.87477,283.94406 355.87477,286.79044 z "
       style="fill:#009600;fill-opacity:1.0000000;stroke:none" />
  </g>
</svg>
