<?xml version="1.0" encoding="UTF-8" standalone="no"?>
<!-- Created with Sodipodi ("http://www.sodipodi.com/") -->
<svg
   xmlns:dc="http://purl.org/dc/elements/1.1/"
   xmlns:cc="http://web.resource.org/cc/"
   xmlns:rdf="http://www.w3.org/1999/02/22-rdf-syntax-ns#"
   xmlns:svg="http://www.w3.org/2000/svg"
   xmlns="http://www.w3.org/2000/svg"
   xmlns:sodipodi="http://inkscape.sourceforge.net/DTD/sodipodi-0.dtd"
   xmlns:inkscape="http://www.inkscape.org/namespaces/inkscape"
   height="210mm"
   id="svg378"
   sodipodi:docbase="/usr/share/rmap/flags/src"
   sodipodi:docname="lesotho.svg"
   sodipodi:version="0.32"
   version="1"
   width="299.999mm"
   x="0"
   y="0"
   inkscape:version="0.42">
  <sodipodi:namedview
     id="base"
     inkscape:zoom="0.65380066"
     inkscape:cx="618.59202"
     inkscape:cy="336.42740"
     inkscape:window-width="1206"
     inkscape:window-height="844"
     inkscape:window-x="134"
     inkscape:window-y="87"
     inkscape:current-layer="svg378">
    <sodipodi:guide
       id="guide626"
       orientation="vertical"
       position="284.309814" />
    <sodipodi:guide
       id="guide627"
       orientation="vertical"
       position="521.178223" />
    <sodipodi:guide
       id="guide573"
       orientation="horizontal"
       position="401.079895" />
  </sodipodi:namedview>
  <defs
     id="defs380" />
  <metadata
     id="metadata13">
    <rdf:RDF>
      <cc:Work
         rdf:about="">
        <dc:title> lesotho</dc:title>
        <dc:description />
        <dc:subject>
          <rdf:Bag>
            <rdf:li>flags</rdf:li>
            <rdf:li>africa</rdf:li>
            <rdf:li>sign</rdf:li>
            <rdf:li>signs_and_symbols</rdf:li>
            <rdf:li />
            <rdf:li>united_nations_member</rdf:li>
          </rdf:Bag>
        </dc:subject>
        <dc:publisher>
          <cc:Agent
             rdf:about="http://www.openclipart.org">
            <dc:title> Cezary Biele</dc:title>
          </cc:Agent>
        </dc:publisher>
        <dc:creator>
          <cc:Agent
             rdf:about="">
            <dc:title> Cezary Biele</dc:title>
          </cc:Agent>
        </dc:creator>
        <dc:rights>
          <cc:Agent
             rdf:about="">
            <dc:title> Cezary Biele</dc:title>
          </cc:Agent>
        </dc:rights>
        <dc:date />
        <dc:format>image/svg+xml</dc:format>
        <dc:type
           rdf:resource="http://purl.org/dc/dcmitype/StillImage" />
        <cc:license
           rdf:resource="http://web.resource.org/cc/PublicDomain">
          <dc:date />
        </cc:license>
        <dc:language>en</dc:language>
      </cc:Work>
      <cc:License
         rdf:about="http://web.resource.org/cc/PublicDomain">
        <cc:permits
           rdf:resource="http://web.resource.org/cc/Reproduction" />
        <cc:permits
           rdf:resource="http://web.resource.org/cc/Distribution" />
        <cc:permits
           rdf:resource="http://web.resource.org/cc/DerivativeWorks" />
      </cc:License>
    </rdf:RDF>
  </metadata>
  <g
     id="g2173">
    <rect
       y="1.4005661e-08"
       x="-0.0022210418"
       width="1061.7164"
       style="font-size:12.000000px;fill:#ffffff;fill-rule:evenodd;stroke:#087bce;stroke-width:4.0000000;stroke-miterlimit:4.0000000;stroke-dasharray:none;stroke-opacity:1.0000000"
       id="rect628"
       height="743.68323" />
    <path
       style="font-size:12.000000px;fill:#087bce;fill-opacity:1.0000000;fill-rule:evenodd;stroke-width:4.0000000;stroke-miterlimit:4.0000000;stroke-dasharray:none"
       sodipodi:nodetypes="cccc"
       id="path624"
       d="M 1062.9907,742.42849 L 1063.8807,1.4466260 L 6.4605860,744.09449 L 1062.9907,742.42849 z " />
    <path
       style="font-size:12.000000px;fill:#38a100;fill-rule:evenodd;stroke-width:4.0000000;stroke-miterlimit:4.0000000;stroke-dasharray:none"
       sodipodi:nodetypes="cccc"
       id="path575"
       d="M 1062.9907,743.72749 L 1062.4707,245.37049 L 354.80470,744.09449 L 1062.9907,743.72749 z " />
    <g
       style="fill:#9c4a08;fill-opacity:1.0000000;stroke:none;stroke-width:427.24905;stroke-miterlimit:4.0000000;stroke-dasharray:none"
       transform="matrix(9.675857e-2,0.000000,0.000000,-9.675857e-2,50.15567,513.9505)"
       id="g2117">
      <path
         style="fill:#9c4a08;fill-opacity:1.0000000;stroke-width:427.24905;stroke-miterlimit:4.0000000;stroke-dasharray:none"
         d="M 1772.0000,4787.0000 C 1766.0000,4780.0000 1756.0000,4752.0000 1749.0000,4725.0000 C 1743.0000,4697.0000 1729.0000,4668.0000 1720.0000,4659.0000 C 1709.0000,4648.0000 1701.0000,4619.0000 1697.0000,4571.0000 C 1694.0000,4532.0000 1684.0000,4490.0000 1676.0000,4478.0000 C 1665.0000,4462.0000 1660.0000,4432.0000 1660.0000,4374.0000 C 1660.0000,4311.0000 1656.0000,4289.0000 1644.0000,4279.0000 C 1630.0000,4268.0000 1628.0000,4252.0000 1634.0000,4183.0000 C 1639.0000,4118.0000 1637.0000,4098.0000 1625.0000,4086.0000 C 1614.0000,4076.0000 1610.0000,4049.0000 1610.0000,3993.0000 C 1610.0000,3939.0000 1605.0000,3908.0000 1595.0000,3894.0000 C 1585.0000,3881.0000 1581.0000,3849.0000 1580.0000,3794.0000 C 1580.0000,3734.0000 1576.0000,3709.0000 1565.0000,3700.0000 C 1556.0000,3693.0000 1550.0000,3671.0000 1550.0000,3649.0000 C 1550.0000,3611.0000 1550.0000,3611.0000 1503.0000,3605.0000 C 1476.0000,3601.0000 1412.0000,3590.0000 1360.0000,3579.0000 C 1308.0000,3569.0000 1264.0000,3563.0000 1261.0000,3565.0000 C 1259.0000,3568.0000 1203.0000,3670.0000 1139.0000,3793.0000 C 1062.0000,3937.0000 1026.0000,4016.0000 1034.0000,4018.0000 C 1041.0000,4020.0000 1130.0000,4014.0000 1231.0000,4006.0000 C 1332.0000,3998.0000 1416.0000,3992.0000 1417.0000,3994.0000 C 1418.0000,3995.0000 1233.0000,4145.0000 1005.0000,4328.0000 C 777.00000,4511.0000 590.00000,4657.0000 590.00000,4653.0000 C 590.00000,4648.0000 603.00000,4485.0000 619.00000,4290.0000 C 636.00000,4095.0000 655.00000,3859.0000 661.00000,3767.0000 C 672.00000,3626.0000 676.00000,3601.0000 687.00000,3616.0000 C 694.00000,3625.0000 739.00000,3702.0000 786.00000,3786.0000 C 834.00000,3870.0000 877.00000,3937.0000 881.00000,3934.0000 C 885.00000,3932.0000 923.00000,3863.0000 965.00000,3782.0000 C 1008.0000,3701.0000 1058.0000,3607.0000 1077.0000,3573.0000 L 1111.0000,3511.0000 L 1058.0000,3488.0000 C 907.00000,3424.0000 786.00000,3342.0000 672.00000,3228.0000 C 483.00000,3038.0000 352.00000,2793.0000 248.00000,2436.0000 C 210.00000,2307.0000 207.00000,2285.0000 206.00000,2175.0000 C 205.00000,2068.0000 207.00000,2050.0000 228.00000,2012.0000 C 258.00000,1955.0000 301.00000,1930.0000 368.00000,1930.0000 C 434.00000,1930.0000 486.00000,1955.0000 533.00000,2011.0000 C 570.00000,2054.0000 586.00000,2084.0000 668.00000,2261.0000 C 757.00000,2452.0000 875.00000,2597.0000 984.00000,2648.0000 C 1043.0000,2676.0000 1127.0000,2677.0000 1178.0000,2651.0000 C 1265.0000,2606.0000 1304.0000,2526.0000 1304.0000,2395.0000 C 1303.0000,2213.0000 1226.0000,2029.0000 1058.0000,1805.0000 C 874.00000,1559.0000 795.00000,1403.0000 783.00000,1265.0000 C 778.00000,1199.0000 779.00000,1192.0000 803.00000,1165.0000 C 827.00000,1137.0000 832.00000,1135.0000 902.00000,1136.0000 C 953.00000,1137.0000 995.00000,1145.0000 1043.0000,1162.0000 C 1080.0000,1176.0000 1110.0000,1185.0000 1110.0000,1182.0000 C 1110.0000,1178.0000 892.00000,765.00000 699.00000,404.00000 C 671.00000,352.00000 650.00000,300.00000 650.00000,282.00000 C 650.00000,224.00000 737.00000,187.00000 777.00000,228.00000 C 787.00000,237.00000 921.00000,483.00000 1075.0000,774.00000 L 1355.0000,1303.0000 L 1400.0000,1322.0000 C 1475.0000,1354.0000 1608.0000,1390.0000 1681.0000,1396.0000 L 1750.0000,1403.0000 L 1752.0000,821.00000 C 1755.0000,257.00000 1756.0000,238.00000 1774.0000,224.00000 C 1802.0000,204.00000 1837.0000,207.00000 1860.0000,230.00000 C 1880.0000,250.00000 1880.0000,263.00000 1880.0000,826.00000 L 1880.0000,1402.0000 L 1927.0000,1395.0000 C 2005.0000,1384.0000 2139.0000,1341.0000 2223.0000,1302.0000 L 2302.0000,1265.0000 L 2514.0000,865.00000 C 2630.0000,645.00000 2752.0000,416.00000 2784.0000,355.00000 C 2856.0000,218.00000 2864.0000,210.00000 2910.0000,210.00000 C 2953.0000,210.00000 2990.0000,243.00000 2990.0000,280.00000 C 2990.0000,300.00000 2808.0000,655.00000 2618.0000,1004.0000 C 2592.0000,1053.0000 2571.0000,1095.0000 2573.0000,1097.0000 C 2575.0000,1099.0000 2608.0000,1086.0000 2645.0000,1069.0000 C 2800.0000,999.00000 2925.0000,1030.0000 2937.0000,1142.0000 C 2940.0000,1167.0000 2935.0000,1215.0000 2926.0000,1251.0000 C 2904.0000,1337.0000 2808.0000,1531.0000 2723.0000,1660.0000 C 2633.0000,1797.0000 2590.0000,1875.0000 2545.0000,1983.0000 C 2418.0000,2292.0000 2417.0000,2505.0000 2540.0000,2586.0000 C 2602.0000,2627.0000 2689.0000,2631.0000 2764.0000,2597.0000 C 2907.0000,2531.0000 3023.0000,2364.0000 3080.0000,2140.0000 C 3111.0000,2022.0000 3160.0000,1920.0000 3209.0000,1872.0000 C 3302.0000,1781.0000 3439.0000,1795.0000 3500.0000,1902.0000 C 3523.0000,1942.0000 3525.0000,1954.0000 3524.0000,2080.0000 C 3523.0000,2194.0000 3519.0000,2231.0000 3496.0000,2315.0000 C 3372.0000,2770.0000 2991.0000,3238.0000 2578.0000,3441.0000 C 2540.0000,3459.0000 2510.0000,3477.0000 2510.0000,3480.0000 C 2511.0000,3483.0000 2544.0000,3546.0000 2584.0000,3620.0000 L 2657.0000,3755.0000 L 2746.0000,3756.0000 C 2906.0000,3758.0000 3017.0000,3825.0000 3082.0000,3958.0000 C 3112.0000,4018.0000 3115.0000,4033.0000 3115.0000,4115.0000 C 3115.0000,4197.0000 3112.0000,4212.0000 3083.0000,4271.0000 C 2947.0000,4546.0000 2570.0000,4547.0000 2432.0000,4273.0000 C 2370.0000,4151.0000 2396.0000,3972.0000 2490.0000,3872.0000 L 2521.0000,3840.0000 L 2444.0000,3692.0000 C 2402.0000,3611.0000 2366.0000,3544.0000 2365.0000,3542.0000 C 2363.0000,3540.0000 2300.0000,3554.0000 2224.0000,3573.0000 L 2085.0000,3607.0000 L 2082.0000,3651.0000 C 2080.0000,3676.0000 2072.0000,3698.0000 2064.0000,3703.0000 C 2054.0000,3709.0000 2050.0000,3733.0000 2050.0000,3795.0000 C 2050.0000,3841.0000 2046.0000,3882.0000 2040.0000,3885.0000 C 2035.0000,3888.0000 2030.0000,3928.0000 2030.0000,3974.0000 C 2030.0000,4031.0000 2025.0000,4062.0000 2015.0000,4076.0000 C 2005.0000,4089.0000 2000.0000,4122.0000 2000.0000,4180.0000 C 2000.0000,4238.0000 1995.0000,4271.0000 1985.0000,4284.0000 C 1975.0000,4298.0000 1970.0000,4329.0000 1970.0000,4382.0000 C 1970.0000,4432.0000 1965.0000,4469.0000 1956.0000,4483.0000 C 1948.0000,4495.0000 1939.0000,4538.0000 1935.0000,4578.0000 C 1930.0000,4624.0000 1923.0000,4653.0000 1914.0000,4658.0000 C 1906.0000,4663.0000 1893.0000,4690.0000 1885.0000,4719.0000 C 1878.0000,4748.0000 1866.0000,4778.0000 1860.0000,4786.0000 C 1845.0000,4803.0000 1786.0000,4805.0000 1772.0000,4787.0000 z "
         id="path2119" />
    </g>
  </g>
</svg>
