<?xml version="1.0" encoding="UTF-8" standalone="no"?><!DOCTYPE svg PUBLIC "-//W3C//DTD SVG 1.1//EN" "http://www.w3.org/Graphics/SVG/1.1/DTD/svg11.dtd"><svg width="100%" height="100%" viewBox="0 0 745 497" version="1.1" xmlns="http://www.w3.org/2000/svg" xmlns:xlink="http://www.w3.org/1999/xlink" xml:space="preserve" style="fill-rule:evenodd;clip-rule:evenodd;"><rect id="Artboard1" x="0" y="0" width="745" height="497" style="fill:none;"/><clipPath id="_clip1"><rect id="Artboard11" x="0" y="0" width="745" height="497"/></clipPath><g clip-path="url(#_clip1)"><rect id="rect937" x="0" y="0" width="744.094" height="155.02" style="fill:#009a00;stroke:#000;stroke-width:1.33px;"/><rect id="rect935" x="0" y="154.984" width="744.094" height="15.52" style="fill:#fff;stroke:#000;stroke-width:1.33px;"/><rect id="rect934" x="0" y="170.504" width="744.094" height="155.02" style="stroke:#000;stroke-width:1.33px;"/><rect id="rect933" x="0" y="325.524" width="744.094" height="15.52" style="fill:#fff;stroke:#000;stroke-width:1.33px;"/><rect id="rect931" x="0" y="341.043" width="744.094" height="155.02" style="fill:#ffca00;stroke:#000;stroke-width:1.33px;"/><path id="path932" d="M0,0l0,496.063l325.559,-248.032l-325.559,-248.031Z" style="fill:#f00;stroke:#000;stroke-width:1.33px;"/><g id="g938"><path id="polygon916" d="M192.349,322.603l-49.634,-36.34l-49.568,36.351l19.223,-58.436l-49.888,-35.908l61.515,0.225l18.735,-58.543l18.795,58.574l61.467,-0.273l-49.899,35.976l19.254,58.374Z" style="fill:#ffca00;stroke:#000;stroke-width:1.11px;"/><path id="path919" d="M99.636,281.855l35.756,0c2.876,3.227 9.295,4.543 15.409,-0.039c11.207,-6.137 32.888,0.039 32.888,0.039l4.27,-4.536l-10.407,-34.155l-3.736,-4.003c0,0 -8.005,-4.803 -23.215,-3.202c-15.209,1.601 -20.546,-0.533 -20.546,-0.533c0,0 -13.342,1.601 -17.077,3.468c-0.411,0.333 -4.27,4.27 -4.27,4.27l-9.072,38.691Z" style="fill:#fff;stroke:#000;stroke-width:1.07px;stroke-linecap:round;stroke-linejoin:round;"/><path id="path918" d="M106.84,273.049c0,0 34.155,-4.269 44.029,8.806c-5.577,3.815 -10.486,4.129 -15.744,0.267c0.837,-1.396 12.274,-13.342 41.359,-9.339" style="fill:none;stroke:#000;stroke-width:1.07px;stroke-linecap:round;stroke-linejoin:round;"/><path id="path920" d="M143.397,238.894l-0.267,37.625" style="fill:none;stroke:#000;stroke-width:1.14px;"/><path id="path921" d="M173.816,239.428l6.404,29.885" style="fill:none;stroke:#000;stroke-width:1.14px;"/><path id="path922" d="M113.33,238.958l-3.554,15.412" style="fill:none;stroke:#000;stroke-width:1.07px;stroke-linecap:round;stroke-linejoin:round;"/><path id="path917" d="M76.413,285.951l8.409,9.859c0.987,0.589 1.864,0.552 2.741,0l12.462,-14.954l5.234,-6.48c0.811,-0.96 1.07,-2.031 0.997,-2.991l10.007,-8.891c0.818,0.056 1.306,0.148 2.124,0.204c-0.967,-0.251 -1.676,-0.721 -0.915,-1.781l2.243,-1.745l1.745,2.243c0,0 -2.492,3.24 -2.741,3.24c-0.25,0 -2.742,0 -2.742,0l-5.234,4.736l2.288,2.022l3.444,9.443l4.238,-2.991l-2.742,-9.72l5.982,-6.48l-2.244,-3.49l1.496,-1.994c0,0 20.703,13.034 28.679,9.545c0.215,0.078 0.482,-9.296 0.482,-9.296c0,0 -21.434,-2.242 -21.934,-6.48c-0.498,-4.237 4.736,-4.735 4.736,-4.735l-2.243,-3.24l0.499,-1.746l3.738,4.736l8.475,-7.228l49.847,56.827c2.722,-1.103 3.303,-1.769 3.49,-4.486c-0.07,-0.069 -48.851,-56.08 -48.851,-56.08l3.739,-3.987c0.737,-0.831 0.996,-1.184 0.996,-2.493l5.733,-4.984c1.724,0.592 2.823,1.625 3.738,2.99l15.76,-13.356c0.416,0.415 1.677,0.83 2.534,0.363l26.056,-25.01l-28.398,20.058l-0.997,-0.748c0,-0.831 1.03,-1.036 0,-2.492c-1.103,-1.324 -2.742,1.246 -2.99,1.246c-0.25,0 -4.111,-1.364 -4.957,-3.093l-0.278,4.589l-7.228,6.729l-5.483,-0.249l-7.976,7.726l-0.997,2.991l1.247,2.493c0,0 -4.238,3.739 -4.238,3.489c0,-0.249 -0.856,-1.102 -0.893,-1.212l3.635,-3.274l0.498,-2.243l-1.213,-1.894c-0.367,0.267 -5.018,5.134 -5.267,4.635c-0.416,-0.465 -13.459,-15.204 -13.459,-15.204l0.747,-2.741l-8.473,-9.222c-3.089,-1.067 -7.976,-1.246 -8.973,5.483c-0.776,1.581 -7.228,0.249 -7.228,0.249l-3.489,0.748l-19.691,27.915l10.967,13.21l22.432,-28.414l0.666,-8.049l4.706,5.263c1.57,0.201 3.065,0.219 4.487,-0.499l13.29,14.834l-2.213,2.159c0.748,0.831 1.262,1.362 2.01,2.193c0.748,-0.499 1.462,-1.097 2.21,-1.596c0.249,0.333 0.665,0.965 0.914,1.297c-1.114,0.606 -1.895,1.413 -3.008,2.019c-1.783,-1.161 -3.503,-2.607 -3.372,-4.909l-7.477,6.231l-0.25,1.246l-22.182,18.444l-1.994,0.249l-0.498,5.733l14.455,-11.964l0,-1.745l1.496,1.246l11.215,-8.972c0,0 0.748,0.997 0.5,0.997c-0.25,0 -9.971,8.973 -9.971,8.973l-0.248,0.996l-1.745,1.496l-0.997,-0.748l-13.459,11.963l-1.994,0l-7.477,7.478c-1.929,0.168 -3.6,0.372 -5.235,1.495l-13.393,11.825Z" style="stroke:#000;stroke-width:1.07px;stroke-linecap:round;stroke-linejoin:round;"/></g></g></svg>