<?xml version="1.0" encoding="UTF-8" standalone="no"?><!DOCTYPE svg PUBLIC "-//W3C//DTD SVG 1.1//EN" "http://www.w3.org/Graphics/SVG/1.1/DTD/svg11.dtd"><svg width="100%" height="100%" viewBox="0 0 1068 744" version="1.1" xmlns="http://www.w3.org/2000/svg" xmlns:xlink="http://www.w3.org/1999/xlink" xml:space="preserve" style="fill-rule:evenodd;clip-rule:evenodd;"><rect id="Artboard1" x="0" y="0" width="1068" height="744" style="fill:none;"/><clipPath id="_clip1"><rect x="0" y="0" width="1068" height="744"/></clipPath><g clip-path="url(#_clip1)"><rect id="rect628" x="-5.263" y="0" width="1073.51" height="744.094" style="fill:#fff;"/><path id="path623" d="M-5.838,0l1.246,536.409l835.324,-536.756l-836.57,0.347Z" style="fill:#3662a2;"/><path id="path624" d="M1069.54,744.094l-1.96,-557.754l-842.605,558.166l844.565,-0.412Z" style="fill:#38a100;"/><path id="path625" d="M-5.3,576.852l0.708,167.922l182.283,-0.24l890.303,-596.88l-1,-145.998l-180.114,-1.656l-892.18,576.852Z" style="fill:#c70000;"/><path id="polygon715" d="M226.903,266.546l-33.738,-20.374l-19.519,34.316l-18.998,-34.533l-34.044,19.992l0.833,-39.439l-39.447,0.313l20.44,-33.778l-34.28,-19.452l34.571,-19.065l-19.928,-34.005l39.438,0.756l-0.235,-39.445l33.738,20.375l19.518,-34.317l18.999,34.534l34.044,-19.993l-0.833,39.439l39.447,-0.312l-20.44,33.777l34.279,19.453l-34.571,19.065l19.928,34.004l-39.438,-0.756l0.236,39.445Z" style="fill:#ffe700;stroke:#000;stroke-width:1.21px;"/><path id="path716" d="M246.809,174.189c0,-39.388 -32.664,-71.799 -72.36,-71.799c-39.695,0 -72.36,32.411 -72.36,71.799c0,0.057 0,0.114 0,0.171c0,39.388 32.665,71.799 72.36,71.799c39.696,0 72.36,-32.411 72.36,-71.799c0,-0.057 0,-0.114 0,-0.171l-72.36,0l72.36,0Z" style="fill:#3662a2;"/><path id="path717" d="M231.103,174.189c0,-31.079 -25.574,-56.654 -56.654,-56.654c-31.079,0 -56.654,25.575 -56.654,56.654c0,0.045 0,0.09 0,0.135c0,31.079 25.575,56.654 56.654,56.654c31.08,0 56.654,-25.575 56.654,-56.654c0,-0.045 0,-0.09 0,-0.135l-56.654,0l56.654,0Z" style="fill:#ffe700;"/></g></svg>