<?xml version="1.0" encoding="UTF-8" standalone="no"?><!DOCTYPE svg PUBLIC "-//W3C//DTD SVG 1.1//EN" "http://www.w3.org/Graphics/SVG/1.1/DTD/svg11.dtd"><svg width="100%" height="100%" viewBox="0 0 580 497" version="1.1" xmlns="http://www.w3.org/2000/svg" xmlns:xlink="http://www.w3.org/1999/xlink" xml:space="preserve" style="fill-rule:evenodd;clip-rule:evenodd;stroke-linejoin:round;stroke-miterlimit:1.41421;"><rect id="Artboard1" x="0" y="0" width="580" height="497" style="fill:none;"/><clipPath id="_clip1"><rect id="Artboard11" x="0" y="0" width="580" height="497"/></clipPath><g clip-path="url(#_clip1)"><g id="g2490"><rect id="rect149" x="0" y="0" width="579.685" height="496.063" style="fill:#fff;"/><rect id="rect148" x="0" y="0" width="579.685" height="165.354" style="fill:#ff7000;"/><rect id="rect585" x="0" y="330.709" width="579.685" height="165.354" style="fill:#36a100;"/></g><path id="path578" d="M337.677,248.031c0,-26.241 -21.593,-47.834 -47.834,-47.834c-26.242,0 -47.835,21.593 -47.835,47.834c0,0.034 0,0.068 0,0.102c0,26.241 21.593,47.835 47.834,47.835c26.242,0 47.835,-21.594 47.835,-47.835c0,-0.034 0,-0.068 0,-0.101l-47.834,-0.001l47.834,0Z" style="fill:#ff7000;"/></g></svg>