<?xml version="1.0" encoding="UTF-8" standalone="no"?><!DOCTYPE svg PUBLIC "-//W3C//DTD SVG 1.1//EN" "http://www.w3.org/Graphics/SVG/1.1/DTD/svg11.dtd"><svg width="100%" height="100%" viewBox="0 0 659 496" version="1.1" xmlns="http://www.w3.org/2000/svg" xmlns:xlink="http://www.w3.org/1999/xlink" xml:space="preserve" style="fill-rule:evenodd;clip-rule:evenodd;"><rect id="Artboard1" x="0" y="0" width="659" height="496" style="fill:none;"/><clipPath id="_clip1"><rect id="Artboard11" x="0" y="0" width="659" height="496"/></clipPath><g clip-path="url(#_clip1)"><g id="g575"><path id="path572" d="M0.514,0l-0.514,496.063l659.05,0l-658.536,-496.063Z"/><path id="path574" d="M658.536,496.063l0.514,-496.063l-659.05,0l658.536,496.063Z" style="fill:#f00;"/></g><g id="g578"><path id="selection_to_path" d="M406.903,123.442l-8.778,-0.457c-2.698,-6.355 -10.317,-8.74 -15.003,-6.065c-4.252,0.366 -26.511,-0.335 -26.511,-0.335l16.277,7.132c4.023,10.881 18.013,13.441 18.013,13.441c-1.241,20.059 -20.302,-2.588 -36.303,8.841c-11.43,6.858 -11.565,15.049 -17.742,28.28c-1.909,3.678 -9.962,13.171 -9.962,13.171l13.441,-1.143l-4.297,5.715l16.002,-2.286c0,0 -2.149,1.794 -3.429,3.154c2.37,0.464 18.287,-3.726 18.287,-3.726l-1.143,5.144c8.161,-3.269 18.288,-6.584 18.288,-6.584c0,0 3.589,2.995 6.858,4.298l2.286,-9.144l9.144,2.286l2.286,-9.144c13.716,18.288 18.288,36.575 43.433,41.147l-2.286,-9.144c6.995,2.995 19.98,9.35 19.98,9.35l1.966,-4.183c10.904,7.818 19.956,7.681 26.06,8.549c0,0 -4.549,-11.384 -4.572,-11.43c0.297,0.115 4.549,2.309 4.572,2.286l-6.858,-18.287l6.858,2.285l-9.144,-13.715l3.429,-2.286l-1.143,-6.858c13.716,4.572 32.003,11.43 34.289,27.431c2.286,25.146 -25.145,32.004 -43.433,29.718c13.716,11.43 38.861,6.858 50.291,-4.572c4.572,-4.572 6.858,-11.43 9.144,-18.288c2.286,6.858 6.858,16.002 6.858,25.146c-2.286,20.574 -29.718,27.432 -48.005,29.718c20.573,11.43 57.149,-2.286 59.435,-32.004c0,-25.146 -16.002,-36.575 -22.86,-48.005c-1.028,-4.161 -2.286,-12.299 -2.286,-12.299c0.887,0.262 6.858,3.178 6.858,3.178c0,0 -4.046,-7.567 -4.572,-9.167c0,0 -7.132,-19.431 -9.715,-23.728c0.425,-0.241 5.143,0.8 5.143,0.8l-18.722,-23.477c0,0 4.517,-0.411 5.304,-0.549c0,0 -21.763,-17.168 -27.729,-19.339l6.858,-2.286c-13.716,-6.858 -29.718,-2.286 -43.434,6.858l2.286,-6.858l-4.183,0.388l0,-7.84l4.183,-6.264l-6.858,-2.286l4.572,-11.43l-6.858,2.286l2.286,-11.43c0,0 -5.12,2.378 -8.229,2.035c0.114,0.251 3.635,-7.818 3.635,-7.818c-2.181,-3.406 0.022,-10.219 0.022,-10.219c-16.001,2.286 -18.287,4.572 -27.431,18.288c-13.716,25.146 -9.144,36.576 -6.858,61.721Z" style="fill:none;stroke:#000;stroke-width:2.29px;"/><g id="path566"><path d="M493.271,161.019c1.191,1.965 14.167,8.215 23.93,13.752c-2.62,-10.537 -21.669,-12.859 -23.93,-13.752Z" style="fill:#f00;"/><path d="M493.849,159.608l0.03,0.011l0.041,0.013l0.052,0.016l0.062,0.018l0.07,0.02l0.078,0.021l0.083,0.022l0.194,0.05l0.218,0.052l0.241,0.057l0.262,0.06l0.589,0.134l0.661,0.148l0.357,0.081l0.372,0.085l0.387,0.09l0.401,0.094l0.414,0.099l0.427,0.104l0.439,0.109l0.449,0.114l0.458,0.12l0.234,0.062l0.236,0.063l0.237,0.065l0.24,0.066l0.241,0.068l0.244,0.069l0.245,0.071l0.247,0.073l0.248,0.074l0.25,0.075l0.251,0.077l0.253,0.079l0.253,0.08l0.255,0.083l0.256,0.083l0.257,0.086l0.257,0.087l0.259,0.089l0.259,0.091l0.259,0.093l0.26,0.095l0.26,0.096l0.261,0.098l0.261,0.101l0.261,0.102l0.261,0.104l0.26,0.107l0.261,0.108l0.26,0.11l0.26,0.113l0.26,0.114l0.259,0.117l0.258,0.119l0.258,0.121l0.257,0.123l0.256,0.126l0.255,0.128l0.253,0.13l0.253,0.133l0.251,0.135l0.25,0.137l0.249,0.14l0.247,0.142l0.245,0.145l0.242,0.147l0.123,0.076l0.121,0.075l0.12,0.076l0.12,0.077l0.119,0.077l0.118,0.078l0.119,0.079l0.117,0.08l0.117,0.08l0.117,0.081l0.116,0.081l0.115,0.082l0.115,0.083l0.114,0.084l0.113,0.085l0.113,0.085l0.112,0.086l0.112,0.086l0.111,0.088l0.11,0.088l0.109,0.089l0.109,0.089l0.108,0.091l0.107,0.091l0.107,0.092l0.106,0.093l0.105,0.093l0.104,0.095l0.103,0.095l0.102,0.096l0.102,0.096l0.101,0.098l0.1,0.098l0.099,0.1l0.098,0.1l0.097,0.101l0.097,0.101l0.095,0.103l0.094,0.104l0.094,0.104l0.092,0.105l0.092,0.106l0.09,0.107l0.089,0.108l0.089,0.109l0.087,0.109l0.086,0.111l0.085,0.111l0.084,0.112l0.083,0.114l0.081,0.114l0.08,0.115l0.079,0.115l0.079,0.117l0.076,0.118l0.076,0.119l0.074,0.119l0.073,0.121l0.071,0.121l0.071,0.123l0.069,0.123l0.067,0.124l0.066,0.125l0.065,0.126l0.063,0.127l0.062,0.128l0.061,0.129l0.059,0.13l0.057,0.13l0.056,0.132l0.054,0.132l0.053,0.134l0.051,0.134l0.05,0.135l0.048,0.136l0.047,0.137l0.044,0.138l0.043,0.139l0.042,0.139l0.04,0.141l0.038,0.141l0.918,3.595l-3.569,-2.018l-0.461,-0.259l-0.466,-0.26l-0.469,-0.261l-0.473,-0.261l-0.476,-0.263l-0.478,-0.262l-0.482,-0.263l-0.483,-0.264l-0.485,-0.263l-0.974,-0.526l-0.977,-0.526l-0.977,-0.524l-0.975,-0.52l-0.97,-0.518l-1.911,-1.019l-0.938,-0.5l-0.92,-0.493l-0.902,-0.485l-0.88,-0.475l-0.432,-0.235l-0.425,-0.231l-0.418,-0.229l-0.411,-0.226l-0.404,-0.223l-0.396,-0.221l-0.388,-0.217l-0.38,-0.213l-0.371,-0.211l-0.362,-0.207l-0.353,-0.204l-0.344,-0.2l-0.334,-0.197l-0.323,-0.193l-0.313,-0.189l-0.303,-0.185l-0.292,-0.182l-0.281,-0.178l-0.268,-0.173l-0.132,-0.087l-0.127,-0.085l-0.125,-0.083l-0.122,-0.083l-0.119,-0.083l-0.116,-0.081l-0.114,-0.081l-0.11,-0.08l-0.108,-0.079l-0.104,-0.078l-0.103,-0.079l-0.099,-0.077l-0.096,-0.078l-0.094,-0.077l-0.092,-0.077l-0.088,-0.077l-0.087,-0.078l-0.084,-0.079l-0.082,-0.08l-0.08,-0.081l-0.079,-0.084l-0.077,-0.087l-0.075,-0.09l-0.074,-0.096l-0.073,-0.103l-2.538,-3.954l4.349,1.643Zm8.471,5.376l0.427,0.231l0.875,0.473l0.896,0.482l0.918,0.491l0.934,0.499l1.912,1.019l0.97,0.518l0.978,0.522l0.98,0.526l0.982,0.528l0.98,0.529l0.046,0.025l-0.008,-0.009l-0.08,-0.081l-0.08,-0.08l-0.081,-0.08l-0.083,-0.08l-0.083,-0.079l-0.084,-0.079l-0.085,-0.078l-0.086,-0.078l-0.087,-0.077l-0.087,-0.077l-0.089,-0.077l-0.089,-0.076l-0.091,-0.075l-0.091,-0.076l-0.092,-0.074l-0.093,-0.075l-0.094,-0.073l-0.094,-0.074l-0.095,-0.073l-0.096,-0.072l-0.097,-0.072l-0.098,-0.072l-0.098,-0.071l-0.099,-0.071l-0.1,-0.07l-0.101,-0.07l-0.101,-0.069l-0.102,-0.069l-0.103,-0.068l-0.103,-0.069l-0.104,-0.067l-0.105,-0.067l-0.105,-0.067l-0.106,-0.066l-0.105,-0.065l-0.216,-0.131l-0.217,-0.128l-0.22,-0.127l-0.221,-0.124l-0.224,-0.123l-0.225,-0.121l-0.228,-0.12l-0.229,-0.117l-0.23,-0.116l-0.233,-0.114l-0.233,-0.112l-0.235,-0.111l-0.236,-0.108l-0.238,-0.107l-0.238,-0.105l-0.239,-0.104l-0.24,-0.102l-0.241,-0.1l-0.242,-0.098l-0.242,-0.097l-0.242,-0.095l-0.243,-0.093l-0.243,-0.092l-0.244,-0.09l-0.243,-0.089l-0.243,-0.087l-0.243,-0.085l-0.243,-0.084l-0.242,-0.082l-0.242,-0.081l-0.242,-0.079l-0.241,-0.077l-0.24,-0.076l-0.054,-0.017l0.229,0.125Z" style="fill:#f00;"/></g><g id="polygon567"><path d="M178.978,412.382l-14.539,-9.274l-19.515,9.345l4.328,-16.692l-14.919,-15.673l17.215,-1.042l10.294,-19.031l6.311,16.05l21.28,3.909l-13.313,10.961l2.858,21.447Z" style="fill:#fff;"/><path d="M169.261,374.719l23.671,4.348l-15.19,12.507l3.179,23.856l-16.588,-10.582l-21.707,10.395l4.938,-19.045l-16.594,-17.433l19.64,-1.189l11.451,-21.169l7.2,18.312Zm-16.776,5.797l-14.788,0.895l13.243,13.913l-3.718,14.339l17.322,-8.295l12.49,7.967l-2.537,-19.038l11.437,-9.416l-18.89,-3.47l-5.421,-13.788l-9.138,16.893Z"/></g><g id="polygon568"><path d="M216.291,330.798l-6.745,-3.228l-6.483,3.727l0.986,-7.412l-5.547,-5.013l7.354,-1.353l3.055,-6.826l3.559,6.577l7.435,0.795l-5.154,5.418l1.54,7.315Z" style="fill:#fff;"/><path d="M213.429,315.84l9.708,1.039l-6.73,7.074l2.012,9.553l-8.808,-4.215l-8.465,4.866l1.287,-9.678l-7.244,-6.547l9.603,-1.767l3.989,-8.913l4.648,8.588Zm-6.509,3.033l-5.105,0.939l3.851,3.48l-0.685,5.145l4.5,-2.587l4.682,2.241l-1.069,-5.078l3.578,-3.761l-5.161,-0.552l-2.471,-4.565l-2.12,4.738Z"/></g><g id="polygon569"><path d="M249.178,284l-14.802,-7.215l-14.332,8.104l2.287,-16.306l-12.135,-11.128l16.214,-2.864l6.834,-14.98l7.734,14.536l16.358,1.87l-11.434,11.846l3.276,16.137Z" style="fill:#fff;"/><path d="M241.947,252.724l18.63,2.13l-13.022,13.491l3.73,18.378l-16.856,-8.217l-16.324,9.23l2.606,-18.571l-13.821,-12.673l18.466,-3.263l7.784,-17.06l8.807,16.555Zm-14.483,3.228l-13.962,2.467l10.45,9.583l-1.97,14.041l12.341,-6.979l12.747,6.213l-2.821,-13.896l9.846,-10.2l-14.086,-1.61l-6.66,-12.518l-5.885,12.899Z"/></g><g id="polygon570"><path d="M181.507,218.859l-17.422,-8.73l-17.068,9.403l2.919,-19.267l-14.217,-13.328l19.226,-3.177l8.282,-17.64l8.964,17.303l19.335,2.426l-13.687,13.872l3.668,19.138Z" style="fill:#fff;"/><path d="M173.175,182.011l21.605,2.71l-15.293,15.5l4.098,21.384l-19.466,-9.754l-19.071,10.505l3.261,-21.528l-15.885,-14.891l21.482,-3.55l9.254,-19.71l10.015,19.334Zm-17.191,3.122l-16.97,2.804l12.549,11.764l-2.577,17.006l15.066,-8.299l15.377,7.705l-3.237,-16.892l12.08,-12.244l-17.066,-2.141l-7.911,-15.273l-7.311,15.57Z"/></g><path id="polygon571" d="M118.897,286.53l-17.571,-10.433l-17.521,10.667l4.491,-19.934l-15.559,-13.366l20.346,-1.891l7.906,-18.927l8.083,18.767l20.445,1.669l-15.351,13.487l4.731,19.961Z" style="fill:#fff;"/><path d="M110.109,249.969l23.113,1.886l-17.362,15.254l5.348,22.566l-19.872,-11.8l-19.808,12.059l5.08,-22.545l-17.589,-15.11l23.011,-2.138l8.937,-21.398l9.142,21.226Zm-15.972,3.037l-17.682,1.643l13.529,11.622l-3.903,17.323l15.235,-9.275l15.269,9.066l-4.113,-17.356l13.34,-11.72l-17.777,-1.451l-7.025,-16.31l-6.873,16.458Z"/></g></g></svg>