<?xml version="1.0" encoding="UTF-8" standalone="no"?>
<!-- Created with Inkscape (http://www.inkscape.org/) -->
<svg
   xmlns:dc="http://purl.org/dc/elements/1.1/"
   xmlns:cc="http://web.resource.org/cc/"
   xmlns:rdf="http://www.w3.org/1999/02/22-rdf-syntax-ns#"
   xmlns:svg="http://www.w3.org/2000/svg"
   xmlns="http://www.w3.org/2000/svg"
   xmlns:sodipodi="http://inkscape.sourceforge.net/DTD/sodipodi-0.dtd"
   xmlns:inkscape="http://www.inkscape.org/namespaces/inkscape"
   version="1.0"
   x="0.00000000"
   y="0.00000000"
   width="960.00000"
   height="480.00000"
   id="svg378"
   sodipodi:version="0.32"
   inkscape:version="0.43"
   sodipodi:docname="philippines.svg"
   sodipodi:docbase="/home/demailly">
  <metadata
     id="metadata21">
    <rdf:RDF>
      <cc:Work
         rdf:about="">
        <dc:format>image/svg+xml</dc:format>
        <dc:type
           rdf:resource="http://purl.org/dc/dcmitype/StillImage" />
      </cc:Work>
    </rdf:RDF>
  </metadata>
  <sodipodi:namedview
     inkscape:cy="257.18126"
     inkscape:cx="466.47193"
     inkscape:zoom="1.2279853"
     inkscape:window-height="1140"
     inkscape:window-width="1533"
     inkscape:pageshadow="2"
     inkscape:pageopacity="0.0"
     borderopacity="1.0"
     bordercolor="#666666"
     pagecolor="#ffffff"
     id="base"
     inkscape:window-x="102"
     inkscape:window-y="2"
     inkscape:current-layer="svg378" />
  <defs
     id="defs380" />
  <g
     id="g4331"
     transform="matrix(1.6,0,0,1.6,-3.041613e-2,0.206395)">
    <rect
       width="600"
       height="300.00031"
       x="0"
       y="-0.0003003215"
       style="font-size:12px;fill:#ce1126;fill-opacity:1;fill-rule:evenodd;stroke-width:1pt"
       id="rect149" />
    <rect
       width="600"
       height="150.00035"
       x="0"
       y="-0.0003003215"
       style="font-size:12px;fill:#0038a8;fill-opacity:1;fill-rule:evenodd;stroke-width:1pt"
       id="rect280" />
    <path
       d="M 0,-0.0003003215 L 258.21596,149.80744 L 0,299.42214 L 0,-0.0003003215 z "
       style="font-size:12px;fill:#ffffff;fill-opacity:1;fill-rule:evenodd;stroke-width:1pt"
       id="path279" />
    <path
       d="M 12.236619,273.18555 L 14.868605,261.62924 L 4.4906008,255.89479 L 16.55372,254.38875 L 19.297956,242.85252 L 24.121408,253.47937 L 36.194799,252.08356 L 27.112588,260.15677 L 31.830497,270.83043 L 21.394522,265.19356 L 12.236619,273.18555 z "
       style="font-size:12px;fill:#fcd116;fill-opacity:1;fill-rule:evenodd;stroke-width:0.112872"
       id="path205" />
    <path
       d="M 67.157602,124.06265 L 57.891121,108.15097 L 52.56223,107.54749 L 65.250409,125.56597 L 67.157602,124.06265 z M 59.96491,131.353 L 40.481564,116.36187 L 39.783601,107.63426 L 47.66247,107.368 L 63.769473,127.06701 L 59.96491,131.353 z M 57.006209,134.78105 L 40.971009,125.72999 L 40.295723,120.40972 L 58.483672,132.85375 L 57.006209,134.78105 z "
       style="font-size:12px;fill:#fcd116;fill-opacity:1;fill-rule:evenodd;stroke-width:1pt"
       id="path425" />
    <path
       d="M 90.089402,120.79079 L 94.925886,103.02402 L 91.617068,98.803469 L 87.680085,120.48655 L 90.089402,120.79079 z M 79.848106,120.7806 L 76.860347,96.379598 L 82.589566,89.758841 L 88.307227,95.186171 L 85.571459,120.48446 L 79.848106,120.7806 z M 75.329563,121.07752 L 70.528424,103.30117 L 73.84563,99.08721 L 77.73948,120.77808 L 75.329563,121.07752 z "
       style="font-size:12px;fill:#fcd116;fill-opacity:1;fill-rule:evenodd;stroke-width:1pt"
       id="path426" />
    <path
       d="M 108.66953,135.1155 L 124.81881,126.26965 L 125.56188,120.95843 L 107.21677,133.16953 L 108.66953,135.1155 z M 101.57039,127.73404 L 117.06748,108.6507 L 125.81038,108.18194 L 125.86985,116.06508 L 105.75509,131.64973 L 101.57039,127.73404 z M 98.221154,124.68643 L 107.68975,108.89422 L 113.0259,108.35874 L 100.10902,126.21394 L 98.221154,124.68643 z "
       style="font-size:12px;fill:#fcd116;fill-opacity:1;fill-rule:evenodd;stroke-width:1pt"
       id="path427" />
    <path
       d="M 111.54251,157.38192 L 129.30674,162.22773 L 133.52903,158.92113 L 111.848,154.97276 L 111.54251,157.38192 z M 111.55807,147.14062 L 135.96065,144.16568 L 142.5784,149.89837 L 137.14807,155.61319 L 111.85121,152.86413 L 111.55807,147.14062 z M 111.26352,142.62192 L 129.0424,137.83011 L 133.25462,141.14954 L 111.5617,145.032 L 111.26352,142.62192 z "
       style="font-size:12px;fill:#fcd116;fill-opacity:1;fill-rule:evenodd;stroke-width:1pt"
       id="path428" />
    <path
       d="M 98.015889,175.48437 L 107.35254,191.355 L 112.68405,191.93494 L 99.916429,173.97264 L 98.015889,175.48437 z M 105.17633,168.16232 L 124.72569,183.06731 L 125.46218,191.79176 L 117.58456,192.09281 L 101.39073,172.46507 L 105.17633,168.16232 z M 108.11987,164.72125 L 124.19489,173.70143 L 124.89366,179.01867 L 106.65093,166.65505 L 108.11987,164.72125 z "
       style="font-size:12px;fill:#fcd116;fill-opacity:1;fill-rule:evenodd;stroke-width:1pt"
       id="path429" />
    <path
       d="M 75.170261,178.87528 L 70.456059,196.67489 L 73.793822,200.87259 L 77.581614,179.16294 L 75.170261,178.87528 z M 85.411388,178.81504 L 88.566865,203.19493 L 82.883306,209.85493 L 77.128459,204.46704 L 79.690206,179.15054 L 85.411388,178.81504 z M 89.927784,178.48706 L 94.851045,196.22998 L 91.562893,200.46665 L 87.519982,178.80306 L 89.927784,178.48706 z "
       style="font-size:12px;fill:#fcd116;fill-opacity:1;fill-rule:evenodd;stroke-width:1pt"
       id="path430" />
    <path
       d="M 56.630016,164.91712 L 40.624962,174.02137 L 39.967347,179.34385 L 58.11387,166.8395 L 56.630016,164.91712 z M 63.846876,172.18355 L 48.658459,191.51349 L 39.92421,192.1227 L 39.73805,184.24153 L 59.599782,168.33561 L 63.846876,172.18355 z M 67.244663,175.17694 L 58.031071,191.11931 L 52.704214,191.74047 L 65.332488,173.67997 L 67.244663,175.17694 z "
       style="font-size:12px;fill:#fcd116;fill-opacity:1;fill-rule:evenodd;stroke-width:1pt"
       id="path431" />
    <path
       d="M 53.464051,142.43899 L 35.665909,137.71937 L 31.467202,141.05584 L 53.175657,144.85025 L 53.464051,142.43899 z M 53.521166,152.68012 L 29.140359,155.82815 L 22.482107,150.14257 L 27.871739,144.38938 L 53.187417,146.95884 L 53.521166,152.68012 z M 53.847773,157.1966 L 36.10338,162.11445 L 31.86772,158.82501 L 53.532503,154.78871 L 53.847773,157.1966 z "
       style="font-size:12px;fill:#fcd116;fill-opacity:1;fill-rule:evenodd;stroke-width:1pt"
       id="path432" />
    <path
       d="M 213.57513,165.47743 L 206.70592,155.81877 L 195.51722,159.74304 L 202.42611,149.74033 L 195.64663,140.01129 L 206.78676,143.4888 L 213.78473,133.55181 L 213.76029,145.70347 L 224.86507,149.29089 L 213.71057,153.32338 L 213.57513,165.47743 z "
       style="font-size:12px;fill:#fcd116;fill-opacity:1;fill-rule:evenodd;stroke-width:0.112872"
       id="path433" />
    <path
       d="M 18.842135,57.575773 L 16.711995,45.916503 L 4.9144826,44.730826 L 15.410533,38.597303 L 13.391484,26.912299 L 22.009079,34.78205 L 32.55797,28.745812 L 27.387517,39.742628 L 35.926524,47.696966 L 24.114139,46.623813 L 18.842135,57.575773 z "
       style="font-size:12px;fill:#fcd116;fill-opacity:1;fill-rule:evenodd;stroke-width:0.112872"
       id="path434" />
    <ellipse
       cx="190.68362"
       cy="353.87601"
       rx="73.028603"
       ry="73.028595"
       transform="matrix(0.423334,0,0,0.423334,1.807234,-3.104686e-4)"
       style="font-size:12px;fill:#fcd116;fill-opacity:1;fill-rule:evenodd;stroke-width:1pt"
       id="path418"
       sodipodi:cx="190.68362"
       sodipodi:cy="353.87601"
       sodipodi:rx="73.028603"
       sodipodi:ry="73.028595" />
  </g>
</svg>
