<?xml version="1.0" encoding="UTF-8" standalone="no"?><!DOCTYPE svg PUBLIC "-//W3C//DTD SVG 1.1//EN" "http://www.w3.org/Graphics/SVG/1.1/DTD/svg11.dtd"><svg width="100%" height="100%" viewBox="0 0 745 496" version="1.1" xmlns="http://www.w3.org/2000/svg" xmlns:xlink="http://www.w3.org/1999/xlink" xml:space="preserve" style="fill-rule:evenodd;clip-rule:evenodd;"><rect id="Artboard1" x="0" y="0" width="745" height="496" style="fill:none;"/><clipPath id="_clip1"><rect id="Artboard11" x="0" y="0" width="745" height="496"/></clipPath><g clip-path="url(#_clip1)"><rect id="rect1242" x="0" y="0" width="744.094" height="248.031" style="fill:#009af4;stroke:#000;stroke-width:1.33px;"/><rect id="rect1243" x="0" y="372.047" width="744.094" height="124.016" style="fill:#1c8f31;stroke:#000;stroke-width:1.33px;"/><rect id="rect1244" x="0" y="248.031" width="744.094" height="124.016" style="fill:#efef00;stroke:#000;stroke-width:1.33px;"/><path id="polygon1249" d="M675.63,172.652l-36.014,-19.863l21.411,35.115l-29.645,-28.508l11.593,39.461l-21.257,-35.209l0.985,41.116l-11.419,-39.511l-9.691,39.97l-0.804,-41.12l-19.706,36.1l9.866,-39.927l-28.377,29.77l19.864,-36.014l-35.116,21.412l28.508,-29.646l-39.461,11.593l35.21,-21.256l-41.117,0.984l39.511,-11.419l-39.97,-9.691l41.12,-0.804l-36.1,-19.706l39.927,9.867l-29.77,-28.378l36.014,19.864l-21.411,-35.116l29.645,28.508l-11.593,-39.461l21.257,35.209l-0.985,-41.116l11.419,39.511l9.691,-39.97l0.804,41.12l19.706,-36.1l-9.866,39.927l28.377,-29.77l-19.864,36.014l35.116,-21.412l-28.508,29.646l39.461,-11.593l-35.21,21.257l41.117,-0.985l-39.511,11.42l39.97,9.69l-41.12,0.804l36.1,19.706l-39.927,-9.866l29.77,28.377Z" style="fill:#ffda00;stroke:#000;stroke-width:1.33px;"/><path id="path1251" d="M641.771,124.82c0,-17.207 -14.16,-31.367 -31.367,-31.367c-17.207,0 -31.366,14.16 -31.366,31.367c0,17.207 14.159,31.366 31.366,31.366c17.208,0 31.367,-14.159 31.367,-31.366c0,0 0,0 0,0l-31.367,0l31.367,0Z" style="fill:#0098f6;"/><path id="path1250" d="M635.621,124.82c0,-14.035 -11.383,-25.585 -25.217,-25.585c-13.834,0 -25.217,11.55 -25.217,25.585c0,14.035 11.384,25.584 25.217,25.584c13.834,0 25.217,-11.549 25.217,-25.584c0,0 0,0 0,0l-25.217,0l25.217,0Z" style="fill:#ffd900;"/></g></svg>