<?xml version="1.0" encoding="UTF-8" standalone="no"?>
<!DOCTYPE svg PUBLIC "-//W3C//DTD SVG 20010904//EN"
"http://www.w3.org/TR/2001/REC-SVG-20010904/DTD/svg10.dtd"
[
 <!ATTLIST svg
  xmlns:xlink CDATA #FIXED "http://www.w3.org/1999/xlink">
]>
<!-- Created with Sodipodi ("http://www.sodipodi.com/") --><svg height="708.661" id="svg378" version="1" width="1062.99" x="0" xmlns="http://www.w3.org/2000/svg" xmlns:xlink="http://www.w3.org/1999/xlink" y="0">
  <defs id="defs380"/>
  <rect height="708.661" id="rect149" style="font-size:12;fill:#ffffff;fill-rule:evenodd;stroke-width:1pt;" width="1062.99" x="0" y="0"/>
  <rect height="354.331" id="rect148" style="font-size:12;fill:#df0000;fill-rule:evenodd;stroke-width:1pt;" width="1062.99" x="0" y="0"/>
  <path d="M 263.397 473.624 C 240.211 478.94 222.983 496.108 218.112 519.45 C 211.494 551.162 232.151 582.212 263.924 588.84 C 231.823 597.992 198.651 579.539 189.583 547.734 C 180.516 515.93 198.969 482.758 230.774 473.69 C 241.939 470.506 252.218 470.486 263.397 473.624 z " id="path141" style="font-size:12;fill:#ffffff;fill-rule:evenodd;stroke-width:0.524368;" transform="matrix(2.11676,0,0,2.11676,-312.396,-943.158)"/>
  <polygon id="polygon142" points="266.186,534.45 255.778,527.018 245.421,534.523 249.273,522.327 238.935,514.796 251.725,514.691 255.692,502.532 259.744,514.663 272.534,514.679 262.249,522.281 266.186,534.45 " style="font-size:12;fill:#ffffff;fill-rule:evenodd;stroke-width:0.524368;" transform="matrix(1.83411,0,0,1.83411,-255.129,-795.563)"/>
  <polygon id="polygon144" points="266.186,534.45 255.778,527.018 245.421,534.523 249.273,522.327 238.935,514.796 251.725,514.691 255.692,502.532 259.744,514.663 272.534,514.679 262.249,522.281 266.186,534.45 " style="font-size:12;fill:#ffffff;fill-rule:evenodd;stroke-width:0.524368;" transform="matrix(1.83411,0,0,1.83411,-229.205,-718.704)"/>
  <polygon id="polygon145" points="266.186,534.45 255.778,527.018 245.421,534.523 249.273,522.327 238.935,514.796 251.725,514.691 255.692,502.532 259.744,514.663 272.534,514.679 262.249,522.281 266.186,534.45 " style="font-size:12;fill:#ffffff;fill-rule:evenodd;stroke-width:0.524368;" transform="matrix(1.83411,0,0,1.83411,-142.945,-719.269)"/>
  <polygon id="polygon146" points="266.186,534.45 255.778,527.018 245.421,534.523 249.273,522.327 238.935,514.796 251.725,514.691 255.692,502.532 259.744,514.663 272.534,514.679 262.249,522.281 266.186,534.45 " style="font-size:12;fill:#ffffff;fill-rule:evenodd;stroke-width:0.524368;" transform="matrix(1.83411,0,0,1.83411,-117.224,-795.502)"/>
  <polygon id="polygon147" points="266.186,534.45 255.778,527.018 245.421,534.523 249.273,522.327 238.935,514.796 251.725,514.691 255.692,502.532 259.744,514.663 272.534,514.679 262.249,522.281 266.186,534.45 " style="font-size:12;fill:#ffffff;fill-rule:evenodd;stroke-width:0.524368;" transform="matrix(1.83411,0,0,1.83411,-185.512,-846.078)"/>
  <metadata>
    <rdf:RDF xmlns="http://web.resource.org/cc/" xmlns:dc="http://purl.org/dc/elements/1.1/" xmlns:rdf="http://www.w3.org/1999/02/22-rdf-syntax-ns#">
      <Work rdf:about="">
        <dc:title> singapore</dc:title>
        <dc:description></dc:description>
        <dc:subject>
          <rdf:Bag>
            <rdf:li>flags</rdf:li>
            <rdf:li>sign</rdf:li>
            <rdf:li>signs_and_symbols</rdf:li>
            <rdf:li></rdf:li>
            <rdf:li>united_nations_member</rdf:li>
            <rdf:li>asia</rdf:li>
          </rdf:Bag>
        </dc:subject>
        <dc:publisher>
          <Agent rdf:about="http://www.openclipart.org">
            <dc:title> Lauris Kaplinski</dc:title>
          </Agent>
        </dc:publisher>
        <dc:creator>
          <Agent rdf:about="">
            <dc:title> Lauris Kaplinski</dc:title>
          </Agent>
        </dc:creator>
        <dc:rights>
          <Agent rdf:about="">
            <dc:title> Lauris Kaplinski</dc:title>
          </Agent>
        </dc:rights>
        <dc:date></dc:date>
        <dc:format>image/svg+xml</dc:format>
        <dc:type rdf:resource="http://purl.org/dc/dcmitype/StillImage"/>
        <license rdf:resource="http://web.resource.org/cc/PublicDomain">
          <dc:date></dc:date>
        </license>
        <dc:language>en</dc:language>
      </Work>
      <License rdf:about="http://web.resource.org/cc/PublicDomain">
        <permits rdf:resource="http://web.resource.org/cc/Reproduction"/>
        <permits rdf:resource="http://web.resource.org/cc/Distribution"/>
        <permits rdf:resource="http://web.resource.org/cc/DerivativeWorks"/>
      </License>
    </rdf:RDF>
  </metadata>
</svg>
