<?xml version="1.0" encoding="UTF-8" standalone="no"?><!DOCTYPE svg PUBLIC "-//W3C//DTD SVG 1.1//EN" "http://www.w3.org/Graphics/SVG/1.1/DTD/svg11.dtd"><svg width="100%" height="100%" viewBox="0 0 745 497" version="1.1" xmlns="http://www.w3.org/2000/svg" xmlns:xlink="http://www.w3.org/1999/xlink" xml:space="preserve" style="fill-rule:evenodd;clip-rule:evenodd;"><rect id="Artboard1" x="0" y="0" width="745" height="497" style="fill:none;"/><clipPath id="_clip1"><rect id="Artboard11" x="0" y="0" width="745" height="497"/></clipPath><g clip-path="url(#_clip1)"><rect id="rect585" x="0" y="0" width="744.094" height="496.063" style="fill:#3e5eb9;"/><rect id="rect966" x="0" y="88.583" width="744.094" height="318.898" style="fill:#ffd900;"/><rect id="rect967" x="0" y="124.016" width="744.094" height="248.032" style="fill:#b10c0c;"/><path id="rect969" d="M676.54,247.954c0,-2.89 -2.347,-5.237 -5.238,-5.237l-591.886,0c-2.891,0 -5.238,2.347 -5.238,5.237l0,0.154c0,2.891 2.347,5.238 5.238,5.238l591.886,0c2.891,0 5.238,-2.347 5.238,-5.238l0,-0.154Z" style="fill:#ffd900;stroke:#000;stroke-width:1.34px;"/><g id="g978"><path id="path971" d="M611.22,191.339l-30.118,10.63l30.118,10.63l30.118,-10.63l-30.118,-10.63Z" style="fill:#fff;stroke:#000;stroke-width:1.25px;"/><path id="rect968" d="M595.275,201.968c0,-1.955 -1.587,-3.543 -3.543,-3.543l-435.827,0c-1.955,0 -3.543,1.588 -3.543,3.543c0,1.956 1.588,3.544 3.543,3.544l435.827,0c1.956,0 3.543,-1.588 3.543,-3.544Z" style="fill:#ffd900;stroke:#000;stroke-width:1.25px;"/><path id="path975" d="M584.646,205.512c1.77,0 3.545,-1.772 3.545,-3.544c0,-1.771 -1.775,-3.543 -3.545,-3.543" style="fill:none;stroke:#000;stroke-width:1.25px;"/><path id="path976" d="M581.103,205.512c1.77,0 3.545,-1.772 3.545,-3.544c0,-1.771 -1.775,-3.543 -3.545,-3.543" style="fill:none;stroke:#000;stroke-width:1.25px;"/><path id="path977" d="M577.559,205.512c1.77,0 3.545,-1.772 3.545,-3.543c0,-1.772 -1.775,-3.544 -3.545,-3.544" style="fill:none;stroke:#000;stroke-width:1.25px;"/></g><g id="g984"><path id="path985" d="M582.874,212.598l-30.118,10.63l30.118,10.63l30.118,-10.63l-30.118,-10.63Z" style="fill:#fff;stroke:#000;stroke-width:1.25px;"/><path id="rect986" d="M566.929,223.228c0,-1.955 -1.588,-3.543 -3.543,-3.543l-435.827,0c-1.956,0 -3.543,1.588 -3.543,3.543c0,1.956 1.587,3.544 3.543,3.544l435.827,0c1.955,0 3.543,-1.588 3.543,-3.544Z" style="fill:#ffd900;stroke:#000;stroke-width:1.25px;"/><path id="path987" d="M556.299,226.772c1.77,0 3.545,-1.772 3.545,-3.544c0,-1.771 -1.775,-3.543 -3.545,-3.543" style="fill:none;stroke:#000;stroke-width:1.25px;"/><path id="path988" d="M552.756,226.772c1.77,0 3.545,-1.772 3.545,-3.544c0,-1.771 -1.775,-3.543 -3.545,-3.543" style="fill:none;stroke:#000;stroke-width:1.25px;"/><path id="path989" d="M549.212,226.772c1.77,0 3.545,-1.772 3.545,-3.544c0,-1.771 -1.775,-3.543 -3.545,-3.543" style="fill:none;stroke:#000;stroke-width:1.25px;"/></g><g id="g943"><path id="path925" d="M634.169,243.811c-5.367,9.296 4.119,-3.091 27.266,12.471c4.289,2.891 8.037,10.528 8.037,15.823c-1.089,-0.729 -1.897,-2.35 -3.097,-3.402c-1.679,1.683 1.603,9.397 2.083,13.044c-3.619,-2.026 -3.27,-2.984 -4.472,-5.473c0.24,3.008 -0.622,11.294 0.818,14.486c-2.852,-0.815 -2.663,-3.111 -4.153,-3.572c1.014,3.612 -0.882,7.542 -0.379,11.602c-1.667,-1.65 -3.443,-2.942 -4.216,-3.608c-0.131,1.934 -3.206,7.014 -3.276,8.842c-1.415,-0.854 -1.798,-2.186 -2.034,-3.083c-1.757,2.208 -8.005,10.365 -8.405,12.853c-4.814,-4.251 -17.143,-14.603 -18.748,-20.098c-1.42,3.119 -3.473,4.171 -7.532,6.449c-1.604,-8.709 -7.603,-18.497 -4.394,-25.962c-2.273,1.348 -4.145,2.696 -6.417,4.355c2.152,-12.613 13.13,-27.402 28.919,-34.727Z" style="fill:#3d5da7;stroke:#000;stroke-width:1.15px;"/><path id="path938" d="M614.145,289.852c2.229,-4.454 4.281,-5.867 5.721,-8.735c2.544,-5.041 2.907,-9.052 5.123,-8.464c2.217,0.588 2.214,2.652 -0.657,7.609c-2.871,4.957 -4.236,6.016 -10.187,9.59Z" style="fill:#a70000;stroke:#000;stroke-width:0.56px;"/><path id="path939" d="M629.217,300.463c-0.286,-3.392 0.697,-4.808 0.517,-6.993c-0.306,-3.843 -1.877,-6.481 0.166,-6.669c2.044,-0.187 2.999,1.124 3.005,4.997c0.006,3.873 -0.593,4.89 -3.688,8.665Z" style="fill:#a70000;stroke:#000;stroke-width:0.45px;"/><path id="path940" d="M640.655,307.113c-0.893,-4.735 -0.225,-6.835 -0.796,-9.885c-0.995,-5.368 -2.963,-8.901 -1.069,-9.392c1.894,-0.491 3.037,1.245 3.754,6.688c0.718,5.443 0.339,6.939 -1.889,12.589Z" style="fill:#a70000;stroke:#000;stroke-width:0.47px;"/><path id="path941" d="M652.548,273.935c-2.793,-2.12 -4.423,-2.262 -6.224,-3.625c-3.173,-2.39 -4.778,-4.948 -5.798,-3.678c-1.021,1.271 -0.297,2.659 3.028,4.864c3.324,2.205 4.45,2.379 8.994,2.439Z" style="fill:#a70000;stroke:#000;stroke-width:0.37px;"/><path id="path942" d="M650.577,289.657c-1.472,-3.057 -3.021,-3.832 -3.973,-5.799c-1.684,-3.456 -1.686,-6.447 -3.512,-5.68c-1.825,0.766 -1.972,2.332 -0.019,5.677c1.952,3.345 2.974,3.951 7.504,5.802Z" style="fill:#a70000;stroke:#000;stroke-width:0.44px;"/></g><g id="g950"><path id="path926" d="M100.183,252.771c-0.3,-2.707 0.279,-3.03 -1.386,-5.073c2.424,1.015 2.516,3.711 5.464,1.797c1.083,-0.56 1.554,-0.578 0.239,-3.585c3.074,0.142 13.141,3.594 14.753,3.675c4.233,0.194 11.96,-4.447 17.324,1.26c5.148,5.203 3.429,10.605 3.429,17.811c-2.068,-0.991 -1.072,-1.479 -3.267,-4.056c1.646,6.299 -0.088,17.656 -0.088,24.337c-0.845,-1.611 -0.721,-0.912 -1.547,-2.58c-2.195,6.098 -4.826,7.353 -4.826,14.559c-0.792,-2.826 -0.028,-2.229 -0.909,-3.715c-2.133,4.629 -16.445,8.586 -10.93,13.252c-4.978,-2.918 -7.161,-2.612 -9.418,-5.237c-0.972,0.628 -1.746,1.816 -2.649,3.444c-8.752,-4.026 -5.623,-12.711 -12.479,-18.513c-1.187,2.433 -0.646,2.08 -1.928,6.039c-1.389,-5.499 -1.768,-8.993 -3.329,-13.036c-1.348,2.241 -1.226,1.382 -3.672,4.769c-1.012,-6.699 -2.659,-8.28 -2.008,-12.712c-2.599,1.834 -0.898,1.092 -3.496,3.349c2.462,-17.164 13.094,-29.847 20.723,-25.785Z" style="fill:#3d5da7;stroke:#000;stroke-width:1.41px;"/><path id="path928" d="M89.418,280.784c2.255,-5.527 4.288,-7.262 5.745,-10.819c2.572,-6.254 2.992,-11.252 5.154,-10.49c2.162,0.763 2.126,3.337 -0.766,9.482c-2.892,6.144 -4.246,7.447 -10.133,11.827Z" style="fill:#a70000;stroke:#000;stroke-width:0.56px;"/><path id="path929" d="M97.956,294.61c0.903,-4.955 2.33,-6.759 2.916,-9.95c1.041,-5.61 0.461,-9.788 2.47,-9.568c2.009,0.219 2.463,2.337 1.126,7.919c-1.336,5.581 -2.259,6.903 -6.512,11.599Z" style="fill:#a70000;stroke:#000;stroke-width:0.49px;"/><path id="path930" d="M108.167,304.222c0.255,-4.804 1.38,-6.679 1.548,-9.772c0.306,-5.442 -0.742,-9.338 1.174,-9.36c1.916,-0.022 2.598,1.935 2.011,7.383c-0.587,5.447 -1.296,6.807 -4.733,11.749Z" style="fill:#a70000;stroke:#000;stroke-width:0.46px;"/><path id="path931" d="M130.095,272.812c-4.193,-4.177 -6.728,-4.957 -9.432,-7.644c-4.765,-4.718 -7.068,-9.147 -8.764,-7.577c-1.696,1.57 -0.676,3.923 4.341,8.413c5.016,4.49 6.761,5.144 13.855,6.808Z" style="fill:#a70000;stroke:#000;stroke-width:0.56px;"/><path id="path932" d="M127.546,288.958c-2.732,-4.194 -4.736,-5.281 -6.499,-7.98c-3.109,-4.742 -4.177,-8.817 -5.941,-7.808c-1.763,1.009 -1.369,3.139 2.001,7.736c3.37,4.596 4.725,5.441 10.439,8.052Z" style="fill:#a70000;stroke:#000;stroke-width:0.49px;"/></g><g id="g1018"><path id="path552" d="M549.213,248.032c-35.433,35.433 -82.677,106.299 -177.166,106.299c-82.677,0 -141.732,-70.866 -177.165,-106.299c35.433,-35.433 94.488,-106.3 177.165,-106.3c94.489,0 141.733,70.867 177.166,106.3Z" style="fill:#fff;stroke:#000;stroke-width:1.25px;"/><path id="path555" d="M359.681,178.709c9.427,10.602 1.556,14.877 11.534,15.573c10.522,0.772 4.558,11.203 13.409,11.565c6.188,0.27 -0.618,24.991 5.339,33.148c6.068,8.505 11.15,2.492 11.257,8.636c0.105,6.354 -16.515,5.713 -16.807,25.288c-0.487,11.28 -14.026,12.002 -14.672,19.26c-0.803,6.827 26.672,10.66 26.306,16.772c-0.376,6.093 -29.667,5.139 -30.942,12.087c-0.654,6.241 40.239,11.357 43.527,29.408c-6.102,1.996 -23.463,3.874 -36.585,3.884c-82.672,0.066 -141.732,-70.866 -177.165,-106.299c35.433,-35.433 94.488,-106.299 177.165,-106.299c0,0 -24.542,22.424 -12.366,36.977Z" style="stroke:#000;stroke-width:0.85px;"/><g id="g569"><rect id="rect557" x="261.024" y="210.236" width="8.59" height="28.346" style="fill:#fff;stroke:#000;stroke-width:0.68px;"/><rect id="rect558" x="261.024" y="257.48" width="8.59" height="28.346" style="fill:#fff;stroke:#000;stroke-width:0.68px;"/><rect id="rect559" x="278.203" y="210.236" width="8.59" height="28.346" style="fill:#fff;stroke:#000;stroke-width:0.68px;"/><rect id="rect560" x="278.203" y="257.48" width="8.59" height="28.346" style="fill:#fff;stroke:#000;stroke-width:0.68px;"/><rect id="rect561" x="295.383" y="210.236" width="8.59" height="28.346" style="fill:#fff;stroke:#000;stroke-width:0.68px;"/><rect id="rect562" x="295.383" y="257.48" width="8.59" height="28.346" style="fill:#fff;stroke:#000;stroke-width:0.68px;"/><rect id="rect563" x="312.563" y="210.236" width="8.59" height="28.346" style="fill:#fff;stroke:#000;stroke-width:0.68px;"/><rect id="rect564" x="312.563" y="257.48" width="8.59" height="28.346" style="fill:#fff;stroke:#000;stroke-width:0.68px;"/><rect id="rect565" x="329.743" y="210.236" width="8.59" height="28.346" style="fill:#fff;stroke:#000;stroke-width:0.68px;"/><rect id="rect566" x="329.743" y="257.48" width="8.59" height="28.346" style="fill:#fff;stroke:#000;stroke-width:0.68px;"/><rect id="rect567" x="346.922" y="210.236" width="8.59" height="28.346" style="fill:#fff;stroke:#000;stroke-width:0.68px;"/><rect id="rect568" x="346.922" y="257.48" width="8.59" height="28.346" style="fill:#fff;stroke:#000;stroke-width:0.68px;"/></g><g id="g586"><rect id="rect587" x="390.945" y="210.236" width="8.59" height="28.346" style="stroke:#000;stroke-width:0.68px;"/><rect id="rect588" x="390.945" y="257.48" width="8.59" height="28.346" style="stroke:#000;stroke-width:0.68px;"/><rect id="rect589" x="408.125" y="210.236" width="8.59" height="28.346" style="stroke:#000;stroke-width:0.68px;"/><rect id="rect590" x="408.125" y="257.48" width="8.59" height="28.346" style="stroke:#000;stroke-width:0.68px;"/><rect id="rect591" x="425.304" y="210.236" width="8.59" height="28.346" style="stroke:#000;stroke-width:0.68px;"/><rect id="rect592" x="425.304" y="257.48" width="8.59" height="28.346" style="stroke:#000;stroke-width:0.68px;"/><rect id="rect593" x="442.484" y="210.236" width="8.59" height="28.346" style="stroke:#000;stroke-width:0.68px;"/><rect id="rect594" x="442.484" y="257.48" width="8.59" height="28.346" style="stroke:#000;stroke-width:0.68px;"/><rect id="rect595" x="459.664" y="210.236" width="8.59" height="28.346" style="stroke:#000;stroke-width:0.68px;"/><rect id="rect596" x="459.664" y="257.48" width="8.59" height="28.346" style="stroke:#000;stroke-width:0.68px;"/><rect id="rect597" x="476.844" y="210.236" width="8.59" height="28.346" style="stroke:#000;stroke-width:0.68px;"/><rect id="rect598" x="476.844" y="257.48" width="8.59" height="28.346" style="stroke:#000;stroke-width:0.68px;"/></g></g><g id="g957"><path id="path924" d="M314.753,160.604c-4.909,9.492 8.594,-3.157 29.762,12.734c3.922,2.953 9.545,14.618 9.545,20.025c-4.507,-0.959 -12.488,-5.407 -12.488,-5.407c0,0 9.366,9.381 9.366,20.195c-3.309,-2.068 -4.965,-1.758 -6.065,-4.299c0,3.501 2.943,5.732 2.943,11.139c-2.388,-1.906 -4.411,-3.176 -6.432,-4.292c3.122,5.407 -5.689,15.896 -1.279,19.397c-7.712,-1.115 -15.602,-6.042 -18.724,-11.449c-1.655,1.116 -1.834,2.866 -1.899,4.733c0.244,0.201 -11.738,-8.893 -10.637,-12.387c-1.607,2.255 -1.834,3.494 -2.2,6.034c-4.402,-4.34 -8.436,-8.681 -9.904,-14.292c-1.956,2.541 -2.079,2.541 -4.035,5.082c-1.467,-8.894 -1.467,-8.576 1.467,-16.199c-2.078,1.377 -3.79,2.753 -5.868,4.447c1.969,-12.879 12.008,-27.982 26.448,-35.461Z" style="fill:#3d5da7;stroke:#000;stroke-width:1.1px;"/><path id="path933" d="M302.65,206.988c0.785,-6.542 2.496,-9.006 3.007,-13.219c0.911,-7.409 -0.17,-12.824 2.455,-12.687c2.626,0.137 3.382,2.87 2.084,10.263c-1.298,7.393 -2.392,9.189 -7.546,15.643Z" style="fill:#a70000;stroke:#000;stroke-width:0.64px;"/><path id="path934" d="M316.359,218.966c-0.532,-5.519 0.487,-7.869 0.15,-11.424c-0.583,-6.256 -2.516,-10.494 -0.227,-10.883c2.288,-0.39 3.445,1.709 3.692,8.025c0.247,6.315 -0.364,7.999 -3.615,14.282Z" style="fill:#a70000;stroke:#000;stroke-width:0.56px;"/><path id="path935" d="M337.752,228.737c-2.327,-4.775 -4.325,-6.2 -5.828,-9.273c-2.653,-5.403 -3.207,-9.814 -5.253,-9.015c-2.046,0.799 -1.934,3.081 1.021,8.37c2.956,5.288 4.291,6.366 10.06,9.918Z" style="fill:#a70000;stroke:#000;stroke-width:0.53px;"/><path id="path936" d="M345.148,185.965c-5.925,-3.119 -8.968,-3.158 -12.787,-5.162c-6.725,-3.514 -10.638,-7.485 -12.028,-5.3c-1.39,2.185 0.465,4.358 7.397,7.553c6.932,3.195 9.063,3.346 17.418,2.909Z" style="fill:#a70000;stroke:#000;stroke-width:0.64px;"/><path id="path937" d="M347.319,203.828c-4.315,-3.589 -6.866,-4.118 -9.648,-6.426c-4.902,-4.052 -7.342,-8.031 -8.98,-6.418c-1.637,1.613 -0.544,3.744 4.602,7.561c5.145,3.817 6.905,4.291 14.026,5.283Z" style="fill:#a70000;stroke:#000;stroke-width:0.56px;"/></g></g></svg>