<?xml version="1.0" encoding="UTF-8" standalone="no"?><!DOCTYPE svg PUBLIC "-//W3C//DTD SVG 1.1//EN" "http://www.w3.org/Graphics/SVG/1.1/DTD/svg11.dtd"><svg width="100%" height="100%" viewBox="0 0 745 497" version="1.1" xmlns="http://www.w3.org/2000/svg" xmlns:xlink="http://www.w3.org/1999/xlink" xml:space="preserve" style="fill-rule:evenodd;clip-rule:evenodd;"><rect id="Artboard1" x="0" y="0" width="745" height="497" style="fill:none;"/><clipPath id="_clip1"><rect id="Artboard11" x="0" y="0" width="745" height="497"/></clipPath><g clip-path="url(#_clip1)"><rect id="rect558" x="0" y="0" width="744.094" height="496.304" style="fill:#ffe300;stroke:#000;stroke-width:1.33px;"/><rect id="rect555" x="0" y="201.521" width="744.094" height="99.66" style="fill:#118600;stroke:#000;stroke-width:1.33px;"/><rect id="rect570" x="0" y="0" width="744.094" height="99.66" style="fill:#118600;stroke:#000;stroke-width:1.33px;"/><rect id="rect554" x="0" y="0" width="297.118" height="301.181" style="fill:#d80000;stroke:#000;stroke-width:1.33px;"/><path id="path567" d="M130.3,124.25c0,-0.83 18.259,-51.456 18.259,-51.456l16.599,50.626c0,0 55.606,1.66 55.606,0.83c0,-0.83 -43.987,33.198 -43.987,33.198c0,0 20.748,58.096 19.919,56.436c-0.83,-1.66 -48.137,-34.858 -48.137,-34.858c0,0 -48.136,33.198 -47.306,33.198c0.83,0 18.258,-54.776 18.258,-54.776l-43.157,-32.368l53.946,-0.83Z" style="fill:#fff;"/><rect id="rect569" x="0" y="396.403" width="744.094" height="99.66" style="fill:#118600;stroke:#000;stroke-width:1.33px;"/></g></svg>