<?xml version="1.0" encoding="UTF-8" standalone="no"?><!DOCTYPE svg PUBLIC "-//W3C//DTD SVG 1.1//EN" "http://www.w3.org/Graphics/SVG/1.1/DTD/svg11.dtd"><svg width="100%" height="100%" viewBox="0 0 745 495" version="1.1" xmlns="http://www.w3.org/2000/svg" xmlns:xlink="http://www.w3.org/1999/xlink" xml:space="preserve" style="fill-rule:evenodd;clip-rule:evenodd;"><rect id="Artboard1" x="0" y="0" width="745" height="495" style="fill:none;"/><clipPath id="_clip1"><rect id="Artboard11" x="0" y="0" width="745" height="495"/></clipPath><g clip-path="url(#_clip1)"><rect id="rect983" x="0" y="0" width="744.094" height="496.063" style="fill:#de2110;stroke:#000;stroke-width:1.33px;"/><rect id="rect984" x="0" y="0" width="373.689" height="248.031" style="fill:#08399c;stroke:#000;stroke-width:1.33px;"/><path id="polygon1007" d="M273.327,172.997l-45.863,-9.426l9.766,45.791l-35.005,-31.095l-14.438,44.541l-14.768,-44.432l-34.774,31.354l9.427,-45.863l-45.792,9.766l31.095,-35.005l-44.54,-14.438l44.432,-14.768l-31.354,-34.773l45.863,9.426l-9.767,-45.792l35.006,31.095l14.437,-44.54l14.768,44.432l34.774,-31.354l-9.426,45.863l45.791,-9.766l-31.095,35.005l44.541,14.437l-44.432,14.768l31.354,34.774Z" style="fill:#fff;stroke:#000;stroke-width:1.33px;"/><path id="polygon1009" d="M231.053,169.482l-14.477,7.686l-14.11,8.34l-16.392,-0.562l-16.4,0.186l-13.913,-8.661l-14.297,-8.017l-7.707,-14.439l-8.362,-14.072l0.563,-16.348l-0.186,-16.356l8.684,-13.877l8.039,-14.258l14.476,-7.687l14.11,-8.339l16.392,0.562l16.401,-0.186l13.913,8.661l14.297,8.016l7.706,14.439l8.363,14.072l-0.564,16.348l0.187,16.356l-8.684,13.877l-8.039,14.259Z" style="fill:#005387;stroke:#000;stroke-width:1.35px;"/><path id="path1011" d="M237.027,124.293c0,-27.568 -22.685,-50.253 -50.253,-50.253c-27.568,0 -50.253,22.685 -50.253,50.253c0,0 0,0 0,0c0,27.568 22.685,50.253 50.253,50.253c27.568,0 50.253,-22.685 50.253,-50.253l-50.253,0l50.253,0Z" style="fill:#fff;stroke:#000;stroke-width:1.33px;"/></g></svg>