<?xml version="1.0" encoding="UTF-8" standalone="no"?><!DOCTYPE svg PUBLIC "-//W3C//DTD SVG 1.1//EN" "http://www.w3.org/Graphics/SVG/1.1/DTD/svg11.dtd"><svg width="100%" height="100%" viewBox="0 0 744 497" version="1.1" xmlns="http://www.w3.org/2000/svg" xmlns:xlink="http://www.w3.org/1999/xlink" xml:space="preserve" style="fill-rule:evenodd;clip-rule:evenodd;"><rect id="Artboard1" x="0" y="0" width="744" height="497" style="fill:none;"/><clipPath id="_clip1"><rect id="Artboard11" x="0" y="0" width="744" height="497"/></clipPath><g clip-path="url(#_clip1)"><rect id="rect585" x="0" y="330.732" width="744.094" height="82.665" style="fill:#ffe700;stroke:#000;stroke-width:1.33px;"/><rect id="rect586" x="0" y="248.031" width="744.094" height="82.665" style="stroke:#000;stroke-width:1.33px;"/><rect id="rect587" x="0" y="165.366" width="744.094" height="82.665" style="fill:#de3908;stroke:#000;stroke-width:1.33px;"/><rect id="rect588" x="0" y="82.701" width="744.094" height="82.665" style="fill:#ffe700;stroke:#000;stroke-width:1.33px;"/><rect id="rect589" x="0" y="0" width="744.094" height="82.665" style="stroke:#000;stroke-width:1.33px;"/><g id="g568"><path id="path567" d="M449.276,248.032c0,-42.367 -34.862,-77.23 -77.229,-77.23c-42.366,0 -77.229,34.863 -77.229,77.23c0,0 0,0 0,0c0,42.366 34.863,77.229 77.229,77.229c42.367,0 77.229,-34.863 77.229,-77.229l-77.229,0l77.229,0Z" style="fill:#fffdff;stroke:#000;stroke-width:0.9px;"/><path id="path556" d="M358.422,188.827l-5.014,-9.235c1.935,-1.935 5.19,-3.431 10.379,-3.431c0,0.352 -0.528,10.115 -0.528,10.115l-4.837,2.551Z" style="fill:#de3108;stroke:#000;stroke-width:0.9px;"/><path id="path557" d="M363.259,186.364l0.704,-10.203c0,0 10.379,-0.615 16.008,6.157c0.088,-0.088 -5.541,7.916 -5.541,7.916l-11.171,-3.87Z" style="fill:#ffe700;stroke:#000;stroke-width:0.9px;"/><path id="path558" d="M374.606,190.146l5.101,-7.916c3.43,3.607 4.837,6.157 5.365,10.027c0.088,0.088 -8.091,2.023 -8.091,1.935c0,-0.088 -2.287,-3.958 -2.375,-4.046Z" style="fill:#de3108;stroke:#000;stroke-width:0.9px;"/><path id="path565" d="M360.973,320.848c0,0 9.587,-10.995 28.233,-8.62c-2.814,-4.574 -11.874,-4.046 -11.874,-4.046c0,0 -2.814,-21.373 -0.615,-22.428c2.198,-1.056 11.522,0.088 11.522,0.088c1.231,0 3.342,-3.343 1.671,-5.453c-1.671,-2.112 -6.597,-10.203 -4.574,-11.787c2.024,-1.583 13.018,0.88 13.018,0.88l-31.049,-39.756c0,0 -3.166,-14.952 3.167,-22.165c7.652,-6.332 6.86,-13.193 6.597,-13.105c-1.056,-6.949 -11.61,-11.962 -18.735,-5.541c-4.222,5.101 -1.407,8.971 -1.407,8.971c0,0 -11.083,2.991 -11.522,4.926c-0.44,1.935 12.489,-0.352 12.489,-0.352l-1.231,8.884c0,0 -25.156,22.868 -5.893,42.658c0.176,-0.088 0.615,-0.88 0.615,-0.88c0,0 6.773,8.356 13.897,10.203c6.685,6.861 6.07,5.805 6.07,5.805c0,0 1.319,10.819 0.088,12.929c-1.672,-0.527 -18.735,-1.143 -21.286,-0.176c-2.287,0.704 -11.082,0.264 -8.884,14.601c1.671,-3.87 3.167,-7.3 3.167,-7.3c0,0 -0.264,5.189 1.847,7.037c-0.352,-5.454 2.023,-9.148 2.023,-9.148c0,0 0.44,5.981 1.759,6.86c1.319,0.88 1.319,-9.675 8.62,-8.795c7.3,0.88 12.578,0.616 12.578,0.616c0,0 2.462,20.669 1.67,22.604c-5.277,-1.231 -17.854,0.528 -18.646,3.695c7.388,-0.44 10.819,0.439 10.819,0.439c0,0 -5.981,5.277 -4.134,8.356Z" style="stroke:#000;stroke-width:0.84px;stroke-linecap:round;stroke-linejoin:round;"/><path id="path552" d="M363.938,208.066c0,0 -18.304,20.175 -10.408,35.613c0.421,-2.153 0.238,-3.505 0.501,-3.417c-0.439,-0.264 2.27,1.857 2.064,1.444c0.058,-1.116 -0.825,-3.508 -0.825,-3.508c0.825,0.206 1.651,0.413 2.476,0.619c-0.481,-0.894 -0.963,-1.788 -1.445,-2.683c1.17,0.138 2.339,0.275 3.509,0.413c0,0 -1.238,-3.302 -0.825,-3.302c0.412,0 2.889,0.206 2.889,0.206c-5.205,-9.342 -0.295,-17.1 2.064,-25.385Z" style="fill:#9ca69c;stroke:#9ca69c;stroke-width:0.84px;stroke-linecap:round;stroke-linejoin:round;"/><path id="path554" d="M370.296,190.762c0,0 0.968,6.948 -2.815,8.971c-0.615,0.44 -2.99,1.232 -2.638,2.639c0.44,1.935 1.495,1.583 2.99,1.231c3.958,-0.704 8.532,-9.147 2.463,-12.841Z" style="fill:#9ca69c;stroke:#9ca69c;stroke-width:0.9px;"/><path id="path555" d="M363.523,196.743c0,-0.82 -0.675,-1.495 -1.495,-1.495c-0.82,0 -1.495,0.675 -1.495,1.495c0,0.004 0,0.007 0,0.011c0,0.82 0.675,1.495 1.495,1.495c0.82,0 1.495,-0.675 1.495,-1.495c0,-0.004 0,-0.008 0,-0.011l-1.495,0l1.495,0Z" style="fill:#fff;"/><path id="path559" d="M357.63,202.548c-0.967,0.791 -6.069,6.069 -1.055,8.004c5.189,-1.408 3.782,-2.375 4.925,-3.518c0.03,-2.375 -2.58,-2.991 -3.87,-4.486Z" style="fill:#de3108;stroke:#000;stroke-width:0.9px;"/><path id="path560" d="M368.712,252.419c-0.264,1.144 -1.407,5.365 0.176,8.619c4.398,-1.847 6.421,-1.319 7.917,-0.352c-3.606,-2.902 -5.014,-4.134 -8.093,-8.267Z" style="fill:#9ca69c;stroke:#9ca69c;stroke-width:0.84px;stroke-linecap:round;stroke-linejoin:round;"/><path id="path561" d="M376.277,272.384l0.264,9.851c0,0 3.43,0.616 5.013,0c1.583,-0.615 -0.088,-6.86 -5.277,-9.851Z" style="fill:#fff;stroke:#fff;stroke-width:0.84px;stroke-linecap:round;stroke-linejoin:round;"/><path id="path564" d="M401.168,273.616c0,0 -6.333,-15.304 -22.517,-19.174c-16.183,-3.871 -14.073,-21.11 -12.753,-22.165c0.704,-1.496 1.231,-3.782 5.893,-1.583c4.662,2.199 26.123,13.017 29.201,13.545c3.079,0.527 0.44,29.729 0.176,29.377Z" style="fill:#9ca69c;stroke:#000;stroke-width:0.9px;"/><path id="path563" d="M385.776,254.354c-0.264,0.176 21.637,12.928 15.04,23.923c6.246,-4.134 4.222,-11.346 4.222,-11.346c0,0 5.101,13.282 -7.3,19.79c1.319,1.144 2.199,0.879 2.199,0.879l-2.111,2.112c0,0 -0.968,1.583 7.388,-2.463c-2.287,1.847 -2.462,3.166 -2.462,3.166c0,0 0.615,1.759 6.068,-2.991c-4.398,4.75 -5.365,7.213 -5.365,7.125c11.874,-1.056 37.733,-39.668 -8.18,-51.102c2.463,2.551 2.111,2.199 2.111,2.199l-11.61,8.708Z" style="fill:#de3108;stroke:#000;stroke-width:0.84px;stroke-linejoin:round;"/><path id="path562" d="M386.744,250.571c2.99,2.111 4.045,2.815 4.397,3.871c-2.726,-0.616 -5.189,-0.44 -5.189,-0.44c0,0 -5.893,-5.629 -6.949,-6.069c-0.791,0 -5.365,-2.903 -5.365,-2.903c-2.286,-1.143 -4.397,-9.059 4.046,-6.772c8.707,4.133 9.939,4.486 9.939,4.486c3.46,1.084 6.919,2.17 10.379,3.254c1.994,2.228 3.987,4.457 5.981,6.685c0,0 -10.643,-5.278 -11.962,-5.366c2.902,2.375 4.574,5.629 4.574,5.629c-3.372,-0.968 -6.303,-1.847 -9.851,-2.375Z" style="fill:#fff;stroke:#000;stroke-width:0.84px;stroke-linecap:round;stroke-linejoin:round;"/><path id="path566" d="M345.317,203.339c0,0 10.203,-2.462 11.434,-2.11" style="fill:none;stroke:#fff;stroke-width:0.84px;stroke-linecap:round;"/></g><rect id="rect584" x="0" y="413.397" width="744.094" height="82.665" style="fill:#de3908;stroke:#000;stroke-width:1.33px;"/></g></svg>