<?xml version="1.0" encoding="UTF-8" standalone="no"?><!DOCTYPE svg PUBLIC "-//W3C//DTD SVG 1.1//EN" "http://www.w3.org/Graphics/SVG/1.1/DTD/svg11.dtd"><svg width="100%" height="100%" viewBox="0 0 744 496" version="1.1" xmlns="http://www.w3.org/2000/svg" xmlns:xlink="http://www.w3.org/1999/xlink" xml:space="preserve" style="fill-rule:evenodd;clip-rule:evenodd;"><rect id="Artboard1" x="0" y="0" width="744" height="496" style="fill:none;"/><clipPath id="_clip1"><rect id="Artboard11" x="0" y="0" width="744" height="496"/></clipPath><g clip-path="url(#_clip1)"><g id="g579"><path id="path553" d="M0,0l336.614,212.598l407.48,0l0,70.867l-407.48,0l-336.614,212.598l0,-496.063Z"/><path id="path561" d="M0,478.346l343.701,-219.685c0,0 347.244,0 400.393,0c0,-17.716 0,-17.716 0,-21.259l-400.393,0l-343.701,-219.685l0,31.889l322.441,198.425l-322.441,198.426l0,31.889Z" style="fill:#ff0;"/><path id="path562" d="M0,496.063l343.701,-219.685l400.393,0l0,219.685l-744.094,0Z" style="fill:#40aa40;"/><path id="path566" d="M0,0l343.701,219.685l400.393,0l0,-219.685l-744.094,0Z" style="fill:#ce0000;stroke:#000;stroke-width:1.33px;"/><path id="path574" d="M92.826,258.334c1.189,0.261 1.502,0.601 2.68,-1.126c0.253,-0.869 0.991,-2.085 1.634,-3.163c0.859,-1.41 1.236,-1.977 2.045,-0.903c0.523,0.613 2.606,-0.518 3.47,0.076c1.336,0.887 0.532,0.759 1.627,-0.202c0.841,-1.79 0.101,-1.579 -1.085,-2.393c-0.831,-0.57 -2.956,0.607 -3.788,0.036c0.291,-1.789 0.86,-1.98 1.89,-2.328c0.779,0.535 3.048,-0.407 3.749,-0.392c0.991,0.208 1.872,0.318 2.184,-1.137c0.489,-1.03 0.276,-0.319 -0.116,-1.068c-0.832,-0.571 -2.957,0.607 -3.788,0.036c-1.081,-0.818 -0.903,-1.123 -0.272,-2.494c0.845,-0.464 1.474,-0.239 2.518,0.41c1.075,0.738 2.767,-0.695 3.71,-0.748c0.848,-0.964 1.848,-1.286 1.216,-2.461c-0.353,-0.893 -0.619,-0.993 -1.782,-1.223c-1.189,-0.817 -2.738,0.678 -3.192,-0.544c0.944,-1.351 1.296,-1.062 2.44,-0.302c0.736,0.253 2.96,-1.065 3.672,-1.104c1.059,-0.307 0.546,0.885 1.293,-1.749c-0.259,-1.142 -2.173,0.7 -3.253,0.403c-1.037,0.138 -1.863,-0.229 -1.96,-1.346c0.015,-1.501 0.76,-1.604 1.828,-1.381c0.94,0.168 3.06,-1 3.849,-0.982c1.123,0.596 1.479,0.373 2.363,-1.015c0.651,-1.64 -0.072,-0.962 -1.186,-1.803c-0.831,-0.571 -2.956,0.607 -3.788,0.036c0.146,-0.605 0.409,-1.342 0.976,-1.637c0.82,0.162 1.525,0.125 2.556,0.767c1.015,0.443 2.687,-1.517 3.556,-2.173c-0.165,-0.935 -1.826,0.394 -2.836,-0.299c-0.64,-0.44 -1.441,-0.9 -1.642,-1.457c0.573,-1.636 0.294,-1.555 1.867,-1.026c0.836,-0.217 2.255,-0.205 1.293,-1.748c-0.153,-0.25 -0.981,-0.162 -1.704,-0.511c-0.872,-0.599 -1.711,-1.202 -2.634,-1.479c-0.666,-0.103 -1.635,-0.319 -2.162,-0.166c-0.055,0.973 0.189,1.59 0.133,2.727c0.434,0.71 1.254,0.726 1.425,0.979c-0.872,0.766 -1.343,0.374 -2.262,0.425c-1.095,-0.752 -0.466,-3.081 -1.758,-2.526c0.297,0.684 0.189,3.271 0.744,3.807c0.584,0.401 1.33,0.793 1.464,1.334c-0.931,1.432 -1.284,1.352 -2.401,0.659c-0.934,-0.641 -0.641,-2.745 -1.441,-2.638c-0.984,0.744 -1.001,0.71 -0.798,1.76c0.053,1.373 -0.496,3.285 0.605,4.04c1.324,0.939 1.492,0.828 0.45,2.616c-0.718,0.871 -1.121,0.711 -1.944,0.313c-0.887,-0.608 -0.695,-2.85 -1.38,-3.583c-1.298,-0.776 -0.546,-0.747 -1.627,0.201c-0.334,1.217 -0.091,1.538 0.45,2.616c0.44,0.669 0.412,2.957 1.163,3.105c1.212,0.694 1.254,0.554 -0.124,1.892c-1.083,0.043 -1.548,0.34 -2.378,-0.644c-1.007,-0.76 -0.378,-3.102 -1.658,-3.116c-1.186,0.097 -1.443,0.128 -1.294,1.749c0.205,1.427 -0.325,3.67 0.822,4.519c1.074,0.491 1.723,0.458 2.1,1.112c-0.335,0.293 -0.964,1.201 -1.332,1.392c-0.752,0.054 -1.528,-0.466 -2.379,-0.644c-1.012,-0.466 -0.554,-1.369 -1.363,-1.925c-0.936,0.303 -0.952,-1.004 -1.449,0.324c0.192,1.091 -0.177,2.515 0.845,3.217c0.832,0.571 1.563,1.732 2.394,2.302c0.954,1.13 0.58,1.326 -0.007,2.962c-0.796,0.022 -1.729,-0.528 -2.595,-1.123c-0.832,-0.571 -0.687,-2.779 -1.519,-3.35c-0.719,-0.708 -0.511,-1.31 -1.627,0.202c-0.104,1.072 0.096,1.15 0.373,1.903c0.031,1.096 -0.263,3.116 0.744,3.807c1.017,0.205 2.114,0.737 2.913,1.011c0.766,0.897 0.099,0.722 -0.759,2.116c-0.539,1.394 -0.545,1.641 -1.394,2.338c-0.736,0.981 -1.027,1.412 -0.364,2.717Z" style="fill:#ff0;"/><path id="path576" d="M117.158,259.515c0.713,-1.158 1.15,-1.354 0.033,-3.296c-0.697,-0.616 -1.519,-1.886 -2.253,-2.999c-0.953,-1.476 -1.323,-2.103 -0.016,-2.533c0.771,-0.31 0.563,-2.974 1.451,-3.655c1.346,-1.063 0.909,-0.262 0.462,-1.808c-1.308,-1.609 -1.409,-0.738 -2.628,0.196c-0.855,0.655 -0.619,3.382 -1.475,4.037c-1.526,-1.024 -1.475,-1.705 -1.385,-2.937c0.801,-0.614 0.84,-3.4 1.133,-4.138c0.584,-0.97 1.036,-1.861 -0.175,-2.774c-0.751,-0.932 -0.183,-0.421 -1.027,-0.304c-0.855,0.655 -0.62,3.382 -1.475,4.037c-1.181,0.821 -1.39,0.51 -2.397,-0.708c-0.09,-1.083 0.367,-1.661 1.379,-2.51c1.105,-0.846 0.462,-3.217 0.789,-4.239c-0.547,-1.286 -0.445,-2.476 -1.775,-2.274c-0.96,0.018 -1.158,0.259 -1.832,1.403c-1.223,0.937 -0.467,3.179 -1.769,3.172c-0.865,-1.542 -0.46,-1.801 0.693,-2.712c0.525,-0.68 0.201,-3.568 0.448,-4.34c0.14,-1.248 1.029,-0.226 -1.091,-2.073c-1.151,-0.181 -0.222,2.588 -0.925,3.616c-0.285,1.157 -0.951,1.887 -2.015,1.544c-1.373,-0.616 -1.171,-1.449 -0.541,-2.493c0.528,-0.931 0.301,-3.65 0.63,-4.481c0.995,-0.954 0.932,-1.421 0.009,-2.915c-1.246,-1.347 -0.911,-0.308 -2.127,0.539c-0.855,0.655 -0.619,3.382 -1.474,4.037c-0.498,-0.397 -1.069,-0.97 -1.115,-1.691c0.475,-0.805 0.722,-1.569 1.721,-2.408c0.812,-0.9 -0.323,-3.459 -0.58,-4.644c-0.923,-0.198 -0.364,2.096 -1.402,2.892c-0.658,0.504 -1.4,1.171 -1.992,1.161c-1.273,-1.262 -1.31,-0.933 -0.198,-2.392c0.133,-0.975 0.709,-2.477 -1.091,-2.072c-0.29,0.063 -0.538,0.978 -1.147,1.606c-0.897,0.686 -1.784,1.336 -2.406,2.206c-0.36,0.666 -0.943,1.608 -1.012,2.229c0.87,0.448 1.534,0.435 2.556,0.949c0.824,-0.177 1.165,-1.041 1.466,-1.122c0.356,1.232 -0.192,1.575 -0.511,2.571c-1.126,0.863 -3.014,-0.735 -3.018,0.859c0.746,-0.043 3.078,1.106 3.79,0.731c0.602,-0.461 1.258,-1.096 1.809,-1.022c0.944,1.562 0.729,1.903 -0.352,2.813c-0.96,0.736 -2.774,-0.417 -2.994,0.477c0.291,1.342 0.253,1.346 1.297,1.55c1.282,0.493 2.819,1.839 3.951,0.972c1.388,-1.031 1.354,-1.254 2.58,0.568c0.514,1.111 0.207,1.475 -0.487,2.19c-0.911,0.698 -2.892,-0.402 -3.838,0.033c-1.229,1.068 -0.904,0.281 -0.463,1.808c0.984,0.841 1.375,0.712 2.58,0.567c0.79,-0.199 2.879,0.745 3.314,0.007c1.119,-1.01 1.008,-1.111 1.688,0.888c-0.392,1.167 -0.305,1.779 -1.538,2.268c-1.098,0.766 -2.999,-0.838 -3.52,0.515c-0.383,1.299 -0.457,1.584 1.09,2.073c1.392,0.352 3.24,1.812 4.476,0.933c0.877,-0.944 1.106,-1.646 1.856,-1.785c0.137,0.472 0.719,1.503 0.748,1.971c-0.249,0.82 -1.035,1.436 -1.537,2.268c-0.831,0.889 -1.478,0.041 -2.31,0.679c-0.095,1.115 -1.301,0.61 -0.28,1.668c1.078,0.232 2.238,1.193 3.29,0.388c0.855,-0.655 2.211,-0.967 3.066,-1.622c1.417,-0.561 1.448,-0.086 2.716,1.191c-0.296,0.854 -1.172,1.625 -2.063,2.307c-0.855,0.655 -2.825,-0.38 -3.68,0.275c-0.936,0.481 -1.407,0.019 -0.463,1.808c0.944,0.54 1.094,0.358 1.896,0.365c1.018,0.404 2.756,1.524 3.791,0.731c0.593,-0.998 1.518,-1.951 2.087,-2.689c1.129,-0.455 0.703,0.183 1.641,1.651c1.066,1.13 1.29,1.235 1.592,2.415c0.608,1.174 0.887,1.656 2.349,1.472Z" style="fill:#ff0;"/><path id="path577" d="M94.961,304.724c0,-5.154 -0.8,-10.307 0,-10.307c45.354,0 56.693,-30.924 56.693,-51.54c0,-20.615 -15.755,-41.231 -45.355,-41.231c-34.016,0 -45.354,20.141 -45.354,41.231c0,20.616 17.008,36.078 34.016,36.078c22.677,0 28.346,-5.154 45.354,-25.77c-5.669,25.77 -34.016,36.078 -45.354,36.078c-22.678,0 -45.355,-15.462 -45.355,-46.386c0,-25.769 17.008,-51.538 56.693,-51.538c34.016,0 56.693,25.769 56.693,51.538c0,36.078 -28.346,61.847 -68.031,61.847Z" style="fill:#ff0;"/></g></g></svg>